<?xml version="1.0" encoding="utf-8" standalone="no"?>
<!DOCTYPE svg PUBLIC "-//W3C//DTD SVG 1.1//EN"
  "http://www.w3.org/Graphics/SVG/1.1/DTD/svg11.dtd">
<svg xmlns:xlink="http://www.w3.org/1999/xlink" width="1140.614375pt" height="564.9575pt" viewBox="0 0 1140.614375 564.9575" xmlns="http://www.w3.org/2000/svg" version="1.1">
 <metadata>
  <rdf:RDF xmlns:dc="http://purl.org/dc/elements/1.1/" xmlns:cc="http://creativecommons.org/ns#" xmlns:rdf="http://www.w3.org/1999/02/22-rdf-syntax-ns#">
   <cc:Work>
    <dc:type rdf:resource="http://purl.org/dc/dcmitype/StillImage"/>
    <dc:date>2025-09-29T21:15:13.115906</dc:date>
    <dc:format>image/svg+xml</dc:format>
    <dc:creator>
     <cc:Agent>
      <dc:title>Matplotlib v3.10.0, https://matplotlib.org/</dc:title>
     </cc:Agent>
    </dc:creator>
   </cc:Work>
  </rdf:RDF>
 </metadata>
 <defs>
  <style type="text/css">*{stroke-linejoin: round; stroke-linecap: butt}</style>
 </defs>
 <g id="figure_1">
  <g id="patch_1">
   <path d="M 0 564.9575 
L 1140.614375 564.9575 
L 1140.614375 0 
L 0 0 
z
" style="fill: #ffffff"/>
  </g>
  <g id="axes_1">
   <g id="patch_2">
    <path d="M 152.064375 507.58 
L 1133.414375 507.58 
L 1133.414375 41.6 
L 152.064375 41.6 
z
" style="fill: #f4f5f6"/>
   </g>
   <g id="matplotlib.axis_1">
    <g id="xtick_1">
     <g id="line2d_1">
      <path d="M 255.998896 507.58 
L 255.998896 41.6 
" clip-path="url(#pd840e34a2e)" style="fill: none; stroke: #ffffff; stroke-linecap: round"/>
     </g>
     <g id="text_1">
      <!-- −20 -->
      <g style="fill: #262626" transform="translate(245.565458 525.64875) scale(0.12 -0.12)">
       <defs>
        <path id="Outfit-Regular-2212" d="M 378 1882 
L 378 2400 
L 3091 2400 
L 3091 1882 
L 378 1882 
z
" transform="scale(0.015625)"/>
        <path id="Outfit-Regular-32" d="M 211 365 
L 1850 2093 
Q 2099 2349 2240 2537 
Q 2381 2726 2441 2886 
Q 2502 3046 2502 3219 
Q 2502 3558 2284 3750 
Q 2067 3942 1722 3942 
Q 1382 3942 1126 3779 
Q 870 3616 672 3277 
L 250 3629 
Q 512 4064 883 4285 
Q 1254 4506 1741 4506 
Q 2150 4506 2454 4346 
Q 2758 4186 2924 3898 
Q 3091 3610 3091 3226 
Q 3091 2950 3024 2732 
Q 2957 2515 2787 2288 
Q 2618 2061 2317 1747 
L 992 384 
L 211 365 
z
M 211 0 
L 211 365 
L 723 538 
L 3194 538 
L 3194 0 
L 211 0 
z
" transform="scale(0.015625)"/>
        <path id="Outfit-Regular-30" d="M 2112 -64 
Q 1613 -64 1200 217 
Q 787 499 544 1014 
Q 301 1530 301 2227 
Q 301 2925 541 3437 
Q 781 3949 1190 4227 
Q 1600 4506 2093 4506 
Q 2598 4506 3008 4227 
Q 3418 3949 3658 3437 
Q 3898 2925 3898 2221 
Q 3898 1523 3658 1008 
Q 3418 493 3011 214 
Q 2605 -64 2112 -64 
z
M 2099 506 
Q 2451 506 2716 701 
Q 2982 896 3136 1280 
Q 3290 1664 3290 2227 
Q 3290 2790 3136 3171 
Q 2982 3552 2713 3747 
Q 2445 3942 2093 3942 
Q 1747 3942 1478 3747 
Q 1210 3552 1059 3171 
Q 909 2790 909 2227 
Q 909 1664 1059 1280 
Q 1210 896 1478 701 
Q 1747 506 2099 506 
z
" transform="scale(0.015625)"/>
       </defs>
       <use xlink:href="#Outfit-Regular-2212"/>
       <use xlink:href="#Outfit-Regular-32" transform="translate(54.199997 0)"/>
       <use xlink:href="#Outfit-Regular-30" transform="translate(108.299988 0)"/>
      </g>
     </g>
    </g>
    <g id="xtick_2">
     <g id="line2d_2">
      <path d="M 414.629117 507.58 
L 414.629117 41.6 
" clip-path="url(#pd840e34a2e)" style="fill: none; stroke: #ffffff; stroke-linecap: round"/>
     </g>
     <g id="text_2">
      <!-- −10 -->
      <g style="fill: #262626" transform="translate(405.359117 525.64875) scale(0.12 -0.12)">
       <defs>
        <path id="Outfit-Regular-31" d="M 1107 0 
L 1107 4442 
L 1702 4442 
L 1702 0 
L 1107 0 
z
M 198 3904 
L 198 4442 
L 1638 4442 
L 1638 3904 
L 198 3904 
z
" transform="scale(0.015625)"/>
       </defs>
       <use xlink:href="#Outfit-Regular-2212"/>
       <use xlink:href="#Outfit-Regular-31" transform="translate(54.199997 0)"/>
       <use xlink:href="#Outfit-Regular-30" transform="translate(88.899994 0)"/>
      </g>
     </g>
    </g>
    <g id="xtick_3">
     <g id="line2d_3">
      <path d="M 573.259338 507.58 
L 573.259338 41.6 
" clip-path="url(#pd840e34a2e)" style="fill: none; stroke: #ffffff; stroke-linecap: round"/>
     </g>
     <g id="text_3">
      <!-- 0 -->
      <g style="fill: #262626" transform="translate(569.323713 525.64875) scale(0.12 -0.12)">
       <use xlink:href="#Outfit-Regular-30"/>
      </g>
     </g>
    </g>
    <g id="xtick_4">
     <g id="line2d_4">
      <path d="M 731.889559 507.58 
L 731.889559 41.6 
" clip-path="url(#pd840e34a2e)" style="fill: none; stroke: #ffffff; stroke-linecap: round"/>
     </g>
     <g id="text_4">
      <!-- 10 -->
      <g style="fill: #262626" transform="translate(725.871747 525.64875) scale(0.12 -0.12)">
       <use xlink:href="#Outfit-Regular-31"/>
       <use xlink:href="#Outfit-Regular-30" transform="translate(34.699997 0)"/>
      </g>
     </g>
    </g>
    <g id="xtick_5">
     <g id="line2d_5">
      <path d="M 890.51978 507.58 
L 890.51978 41.6 
" clip-path="url(#pd840e34a2e)" style="fill: none; stroke: #ffffff; stroke-linecap: round"/>
     </g>
     <g id="text_5">
      <!-- 20 -->
      <g style="fill: #262626" transform="translate(883.33853 525.64875) scale(0.12 -0.12)">
       <use xlink:href="#Outfit-Regular-32"/>
       <use xlink:href="#Outfit-Regular-30" transform="translate(54.099991 0)"/>
      </g>
     </g>
    </g>
    <g id="xtick_6">
     <g id="line2d_6">
      <path d="M 1049.150002 507.58 
L 1049.150002 41.6 
" clip-path="url(#pd840e34a2e)" style="fill: none; stroke: #ffffff; stroke-linecap: round"/>
     </g>
     <g id="text_6">
      <!-- 30 -->
      <g style="fill: #262626" transform="translate(1041.986564 525.64875) scale(0.12 -0.12)">
       <defs>
        <path id="Outfit-Regular-33" d="M 1581 -64 
Q 1146 -64 790 99 
Q 435 262 192 576 
L 602 986 
Q 749 762 1005 630 
Q 1261 499 1574 499 
Q 1869 499 2083 611 
Q 2298 723 2422 928 
Q 2547 1133 2547 1402 
Q 2547 1677 2422 1878 
Q 2298 2080 2074 2189 
Q 1850 2298 1542 2298 
Q 1427 2298 1312 2282 
Q 1197 2266 1088 2234 
L 1344 2579 
Q 1466 2637 1606 2669 
Q 1747 2701 1888 2701 
Q 2246 2701 2531 2534 
Q 2816 2368 2985 2067 
Q 3155 1766 3155 1370 
Q 3155 947 2953 624 
Q 2752 301 2400 118 
Q 2048 -64 1581 -64 
z
M 1088 2234 
L 1088 2598 
L 2387 4077 
L 3104 4083 
L 1766 2566 
L 1088 2234 
z
M 403 3904 
L 403 4442 
L 3104 4442 
L 3104 4083 
L 2579 3904 
L 403 3904 
z
" transform="scale(0.015625)"/>
       </defs>
       <use xlink:href="#Outfit-Regular-33"/>
       <use xlink:href="#Outfit-Regular-30" transform="translate(53.799988 0)"/>
      </g>
     </g>
    </g>
    <g id="text_7">
     <!-- Increase in Women (%) -->
     <g style="fill: #262626" transform="translate(563.218125 554.5575) scale(0.16 -0.16)">
      <defs>
       <path id="Outfit-Medium-49" d="M 486 0 
L 486 4480 
L 1222 4480 
L 1222 0 
L 486 0 
z
" transform="scale(0.015625)"/>
       <path id="Outfit-Medium-6e" d="M 2496 0 
L 2496 1773 
Q 2496 2080 2301 2278 
Q 2106 2477 1798 2477 
Q 1594 2477 1434 2387 
Q 1274 2298 1184 2138 
Q 1094 1978 1094 1773 
L 819 1926 
Q 819 2278 972 2550 
Q 1126 2822 1398 2979 
Q 1670 3136 2010 3136 
Q 2355 3136 2624 2960 
Q 2893 2784 3046 2505 
Q 3200 2227 3200 1926 
L 3200 0 
L 2496 0 
z
M 390 0 
L 390 3072 
L 1094 3072 
L 1094 0 
L 390 0 
z
" transform="scale(0.015625)"/>
       <path id="Outfit-Medium-63" d="M 1805 -64 
Q 1350 -64 982 147 
Q 614 358 403 723 
Q 192 1088 192 1536 
Q 192 1990 403 2352 
Q 614 2714 982 2925 
Q 1350 3136 1805 3136 
Q 2163 3136 2473 2998 
Q 2784 2861 3002 2605 
L 2541 2138 
Q 2406 2298 2217 2378 
Q 2029 2458 1805 2458 
Q 1542 2458 1340 2339 
Q 1139 2221 1027 2016 
Q 915 1811 915 1536 
Q 915 1267 1027 1059 
Q 1139 851 1340 732 
Q 1542 614 1805 614 
Q 2029 614 2217 694 
Q 2406 774 2541 934 
L 3002 467 
Q 2784 211 2473 73 
Q 2163 -64 1805 -64 
z
" transform="scale(0.015625)"/>
       <path id="Outfit-Medium-72" d="M 390 0 
L 390 3072 
L 1094 3072 
L 1094 0 
L 390 0 
z
M 1094 1709 
L 851 1830 
Q 851 2413 1110 2774 
Q 1370 3136 1894 3136 
Q 2125 3136 2310 3053 
Q 2496 2970 2656 2784 
L 2195 2310 
Q 2112 2400 2009 2438 
Q 1907 2477 1773 2477 
Q 1478 2477 1286 2291 
Q 1094 2106 1094 1709 
z
" transform="scale(0.015625)"/>
       <path id="Outfit-Medium-65" d="M 1818 -64 
Q 1357 -64 989 144 
Q 621 352 406 717 
Q 192 1082 192 1536 
Q 192 1990 403 2352 
Q 614 2714 976 2925 
Q 1338 3136 1779 3136 
Q 2208 3136 2537 2937 
Q 2867 2739 3056 2393 
Q 3245 2048 3245 1606 
Q 3245 1530 3235 1450 
Q 3226 1370 3206 1274 
L 685 1274 
L 685 1850 
L 2842 1850 
L 2579 1619 
Q 2566 1901 2470 2093 
Q 2374 2285 2198 2387 
Q 2022 2490 1766 2490 
Q 1498 2490 1299 2374 
Q 1101 2259 992 2051 
Q 883 1843 883 1555 
Q 883 1267 998 1049 
Q 1114 832 1325 713 
Q 1536 595 1811 595 
Q 2048 595 2249 678 
Q 2451 762 2592 922 
L 3040 467 
Q 2816 205 2496 70 
Q 2176 -64 1818 -64 
z
" transform="scale(0.015625)"/>
       <path id="Outfit-Medium-61" d="M 1677 -64 
Q 1261 -64 925 147 
Q 589 358 393 720 
Q 198 1082 198 1530 
Q 198 1984 393 2345 
Q 589 2707 925 2921 
Q 1261 3136 1677 3136 
Q 2029 3136 2301 2985 
Q 2573 2835 2733 2572 
Q 2893 2310 2893 1978 
L 2893 1094 
Q 2893 762 2736 499 
Q 2579 237 2304 86 
Q 2029 -64 1677 -64 
z
M 1792 602 
Q 2182 602 2422 864 
Q 2662 1126 2662 1536 
Q 2662 1811 2553 2022 
Q 2445 2234 2249 2352 
Q 2054 2470 1792 2470 
Q 1536 2470 1341 2352 
Q 1146 2234 1034 2022 
Q 922 1811 922 1536 
Q 922 1261 1034 1049 
Q 1146 838 1341 720 
Q 1536 602 1792 602 
z
M 2618 0 
L 2618 826 
L 2739 1574 
L 2618 2317 
L 2618 3072 
L 3322 3072 
L 3322 0 
L 2618 0 
z
" transform="scale(0.015625)"/>
       <path id="Outfit-Medium-73" d="M 1395 -64 
Q 1139 -64 902 3 
Q 666 70 467 195 
Q 269 320 122 499 
L 570 947 
Q 730 762 938 669 
Q 1146 576 1408 576 
Q 1645 576 1766 646 
Q 1888 717 1888 851 
Q 1888 992 1773 1069 
Q 1658 1146 1475 1200 
Q 1293 1254 1091 1312 
Q 890 1370 707 1469 
Q 525 1568 409 1741 
Q 294 1914 294 2189 
Q 294 2483 432 2694 
Q 570 2906 822 3021 
Q 1075 3136 1427 3136 
Q 1798 3136 2083 3005 
Q 2368 2874 2560 2611 
L 2112 2163 
Q 1978 2330 1805 2413 
Q 1632 2496 1408 2496 
Q 1197 2496 1081 2432 
Q 966 2368 966 2246 
Q 966 2118 1081 2048 
Q 1197 1978 1379 1926 
Q 1562 1875 1763 1814 
Q 1965 1754 2147 1648 
Q 2330 1542 2445 1366 
Q 2560 1190 2560 909 
Q 2560 461 2246 198 
Q 1933 -64 1395 -64 
z
" transform="scale(0.015625)"/>
       <path id="Outfit-Medium-20" transform="scale(0.015625)"/>
       <path id="Outfit-Medium-69" d="M 397 0 
L 397 3072 
L 1101 3072 
L 1101 0 
L 397 0 
z
M 749 3635 
Q 570 3635 451 3756 
Q 333 3878 333 4058 
Q 333 4237 451 4358 
Q 570 4480 749 4480 
Q 934 4480 1049 4358 
Q 1165 4237 1165 4058 
Q 1165 3878 1049 3756 
Q 934 3635 749 3635 
z
" transform="scale(0.015625)"/>
       <path id="Outfit-Medium-57" d="M 1638 0 
L 166 4480 
L 890 4480 
L 1997 1030 
L 1805 1030 
L 2886 4480 
L 3398 4480 
L 4480 1030 
L 4288 1030 
L 5395 4480 
L 6118 4480 
L 4646 0 
L 4134 0 
L 3046 3443 
L 3238 3443 
L 2150 0 
L 1638 0 
z
" transform="scale(0.015625)"/>
       <path id="Outfit-Medium-6f" d="M 1798 -64 
Q 1350 -64 985 150 
Q 621 365 406 729 
Q 192 1094 192 1542 
Q 192 1990 406 2348 
Q 621 2707 985 2921 
Q 1350 3136 1798 3136 
Q 2253 3136 2617 2925 
Q 2982 2714 3196 2352 
Q 3411 1990 3411 1542 
Q 3411 1094 3196 729 
Q 2982 365 2617 150 
Q 2253 -64 1798 -64 
z
M 1798 614 
Q 2061 614 2262 732 
Q 2464 851 2576 1062 
Q 2688 1274 2688 1542 
Q 2688 1811 2573 2016 
Q 2458 2221 2259 2339 
Q 2061 2458 1798 2458 
Q 1542 2458 1340 2339 
Q 1139 2221 1027 2016 
Q 915 1811 915 1542 
Q 915 1274 1027 1062 
Q 1139 851 1340 732 
Q 1542 614 1798 614 
z
" transform="scale(0.015625)"/>
       <path id="Outfit-Medium-6d" d="M 390 0 
L 390 3072 
L 1094 3072 
L 1094 0 
L 390 0 
z
M 2432 0 
L 2432 1830 
Q 2432 2138 2240 2307 
Q 2048 2477 1766 2477 
Q 1574 2477 1424 2400 
Q 1274 2323 1184 2179 
Q 1094 2035 1094 1830 
L 819 1984 
Q 819 2336 972 2592 
Q 1126 2848 1388 2992 
Q 1651 3136 1978 3136 
Q 2304 3136 2566 2995 
Q 2829 2854 2982 2598 
Q 3136 2342 3136 1984 
L 3136 0 
L 2432 0 
z
M 4474 0 
L 4474 1830 
Q 4474 2138 4282 2307 
Q 4090 2477 3808 2477 
Q 3622 2477 3468 2400 
Q 3315 2323 3225 2179 
Q 3136 2035 3136 1830 
L 2739 1984 
Q 2771 2336 2944 2592 
Q 3117 2848 3389 2992 
Q 3661 3136 3987 3136 
Q 4320 3136 4589 2995 
Q 4858 2854 5018 2598 
Q 5178 2342 5178 1984 
L 5178 0 
L 4474 0 
z
" transform="scale(0.015625)"/>
       <path id="Outfit-Medium-28" d="M 1357 -762 
Q 1018 -461 771 -25 
Q 525 410 390 928 
Q 256 1446 256 2003 
Q 256 2560 390 3078 
Q 525 3597 771 4032 
Q 1018 4467 1357 4768 
L 1760 4410 
Q 1338 4019 1104 3401 
Q 870 2784 870 2003 
Q 870 1229 1104 608 
Q 1338 -13 1760 -403 
L 1357 -762 
z
" transform="scale(0.015625)"/>
       <path id="Outfit-Medium-25" d="M 320 0 
L 3194 4480 
L 3891 4480 
L 1018 0 
L 320 0 
z
M 3040 -64 
Q 2790 -64 2582 57 
Q 2374 179 2252 384 
Q 2131 589 2131 845 
Q 2131 1101 2252 1302 
Q 2374 1504 2579 1625 
Q 2784 1747 3040 1747 
Q 3296 1747 3504 1625 
Q 3712 1504 3833 1302 
Q 3955 1101 3955 845 
Q 3955 589 3833 384 
Q 3712 179 3507 57 
Q 3302 -64 3040 -64 
z
M 3040 480 
Q 3200 480 3299 582 
Q 3398 685 3398 845 
Q 3398 998 3296 1100 
Q 3194 1203 3040 1203 
Q 2886 1203 2790 1100 
Q 2694 998 2694 845 
Q 2694 685 2790 582 
Q 2886 480 3040 480 
z
M 1165 2733 
Q 915 2733 707 2854 
Q 499 2976 377 3181 
Q 256 3386 256 3642 
Q 256 3898 377 4099 
Q 499 4301 704 4422 
Q 909 4544 1165 4544 
Q 1421 4544 1629 4422 
Q 1837 4301 1958 4099 
Q 2080 3898 2080 3642 
Q 2080 3386 1958 3181 
Q 1837 2976 1632 2854 
Q 1427 2733 1165 2733 
z
M 1165 3277 
Q 1325 3277 1421 3379 
Q 1517 3482 1517 3642 
Q 1517 3802 1417 3901 
Q 1318 4000 1165 4000 
Q 1011 4000 915 3901 
Q 819 3802 819 3642 
Q 819 3482 915 3379 
Q 1011 3277 1165 3277 
z
" transform="scale(0.015625)"/>
       <path id="Outfit-Medium-29" d="M 557 -762 
L 154 -403 
Q 576 -13 809 608 
Q 1043 1229 1043 2003 
Q 1043 2784 809 3401 
Q 576 4019 154 4410 
L 557 4768 
Q 896 4467 1142 4032 
Q 1389 3597 1523 3078 
Q 1658 2560 1658 2003 
Q 1658 1446 1523 928 
Q 1389 410 1142 -25 
Q 896 -461 557 -762 
z
" transform="scale(0.015625)"/>
      </defs>
      <use xlink:href="#Outfit-Medium-49"/>
      <use xlink:href="#Outfit-Medium-6e" transform="translate(26.699997 0)"/>
      <use xlink:href="#Outfit-Medium-63" transform="translate(81.799988 0)"/>
      <use xlink:href="#Outfit-Medium-72" transform="translate(130.499985 0)"/>
      <use xlink:href="#Outfit-Medium-65" transform="translate(172.999969 0)"/>
      <use xlink:href="#Outfit-Medium-61" transform="translate(226.399963 0)"/>
      <use xlink:href="#Outfit-Medium-73" transform="translate(284.399948 0)"/>
      <use xlink:href="#Outfit-Medium-65" transform="translate(327.399933 0)"/>
      <use xlink:href="#Outfit-Medium-20" transform="translate(380.799927 0)"/>
      <use xlink:href="#Outfit-Medium-69" transform="translate(400.799911 0)"/>
      <use xlink:href="#Outfit-Medium-6e" transform="translate(424.199905 0)"/>
      <use xlink:href="#Outfit-Medium-20" transform="translate(479.299896 0)"/>
      <use xlink:href="#Outfit-Medium-57" transform="translate(499.299881 0)"/>
      <use xlink:href="#Outfit-Medium-6f" transform="translate(597.499863 0)"/>
      <use xlink:href="#Outfit-Medium-6d" transform="translate(653.79985 0)"/>
      <use xlink:href="#Outfit-Medium-65" transform="translate(739.899841 0)"/>
      <use xlink:href="#Outfit-Medium-6e" transform="translate(793.299835 0)"/>
      <use xlink:href="#Outfit-Medium-20" transform="translate(848.399826 0)"/>
      <use xlink:href="#Outfit-Medium-28" transform="translate(868.399811 0)"/>
      <use xlink:href="#Outfit-Medium-25" transform="translate(898.299805 0)"/>
      <use xlink:href="#Outfit-Medium-29" transform="translate(964.099792 0)"/>
     </g>
    </g>
   </g>
   <g id="matplotlib.axis_2">
    <g id="ytick_1">
     <g id="text_8">
      <!-- Algeria -->
      <g style="fill: #262626" transform="translate(103.466875 56.979137) scale(0.12 -0.12)">
       <defs>
        <path id="Outfit-Regular-41" d="M 198 0 
L 2016 4442 
L 2451 4442 
L 4262 0 
L 3610 0 
L 2118 3757 
L 2342 3757 
L 838 0 
L 198 0 
z
M 1062 1005 
L 1062 1530 
L 3398 1530 
L 3398 1005 
L 1062 1005 
z
" transform="scale(0.015625)"/>
        <path id="Outfit-Regular-6c" d="M 422 0 
L 422 4570 
L 998 4570 
L 998 0 
L 422 0 
z
" transform="scale(0.015625)"/>
        <path id="Outfit-Regular-67" d="M 1683 -1338 
Q 1216 -1338 854 -1165 
Q 493 -992 275 -678 
L 646 -301 
Q 832 -538 1088 -662 
Q 1344 -787 1696 -787 
Q 2163 -787 2435 -540 
Q 2707 -294 2707 122 
L 2707 877 
L 2810 1562 
L 2707 2240 
L 2707 3040 
L 3283 3040 
L 3283 122 
Q 3283 -314 3081 -640 
Q 2880 -966 2518 -1152 
Q 2157 -1338 1683 -1338 
z
M 1683 51 
Q 1267 51 937 249 
Q 608 448 416 797 
Q 224 1146 224 1581 
Q 224 2016 416 2358 
Q 608 2701 937 2902 
Q 1267 3104 1683 3104 
Q 2042 3104 2317 2963 
Q 2592 2822 2755 2569 
Q 2918 2317 2931 1978 
L 2931 1171 
Q 2912 838 2749 585 
Q 2586 333 2310 192 
Q 2035 51 1683 51 
z
M 1798 595 
Q 2080 595 2294 716 
Q 2509 838 2624 1059 
Q 2739 1280 2739 1574 
Q 2739 1869 2620 2089 
Q 2502 2310 2291 2435 
Q 2080 2560 1792 2560 
Q 1504 2560 1286 2435 
Q 1069 2310 944 2089 
Q 819 1869 819 1581 
Q 819 1293 944 1069 
Q 1069 845 1289 720 
Q 1510 595 1798 595 
z
" transform="scale(0.015625)"/>
        <path id="Outfit-Regular-65" d="M 1830 -64 
Q 1376 -64 1011 144 
Q 646 352 435 710 
Q 224 1069 224 1523 
Q 224 1971 432 2329 
Q 640 2688 995 2896 
Q 1350 3104 1792 3104 
Q 2214 3104 2537 2912 
Q 2861 2720 3043 2381 
Q 3226 2042 3226 1613 
Q 3226 1549 3219 1475 
Q 3213 1402 3194 1306 
L 627 1306 
L 627 1786 
L 2886 1786 
L 2675 1600 
Q 2675 1907 2566 2121 
Q 2458 2336 2259 2454 
Q 2061 2573 1779 2573 
Q 1485 2573 1261 2445 
Q 1037 2317 915 2086 
Q 794 1856 794 1542 
Q 794 1222 922 982 
Q 1050 742 1286 611 
Q 1523 480 1830 480 
Q 2086 480 2300 569 
Q 2515 659 2669 838 
L 3040 461 
Q 2822 205 2505 70 
Q 2189 -64 1830 -64 
z
" transform="scale(0.015625)"/>
        <path id="Outfit-Regular-72" d="M 422 0 
L 422 3040 
L 998 3040 
L 998 0 
L 422 0 
z
M 998 1734 
L 781 1830 
Q 781 2413 1049 2758 
Q 1318 3104 1824 3104 
Q 2054 3104 2240 3024 
Q 2426 2944 2586 2758 
L 2208 2368 
Q 2112 2470 1997 2515 
Q 1882 2560 1728 2560 
Q 1408 2560 1203 2355 
Q 998 2150 998 1734 
z
" transform="scale(0.015625)"/>
        <path id="Outfit-Regular-69" d="M 429 0 
L 429 3040 
L 1005 3040 
L 1005 0 
L 429 0 
z
M 717 3648 
Q 557 3648 454 3753 
Q 352 3859 352 4019 
Q 352 4173 454 4278 
Q 557 4384 717 4384 
Q 877 4384 979 4278 
Q 1082 4173 1082 4019 
Q 1082 3859 979 3753 
Q 877 3648 717 3648 
z
" transform="scale(0.015625)"/>
        <path id="Outfit-Regular-61" d="M 1715 -64 
Q 1299 -64 960 144 
Q 621 352 425 710 
Q 230 1069 230 1517 
Q 230 1965 425 2323 
Q 621 2682 957 2893 
Q 1293 3104 1715 3104 
Q 2061 3104 2333 2960 
Q 2605 2816 2771 2563 
Q 2938 2310 2957 1978 
L 2957 1062 
Q 2938 736 2774 480 
Q 2611 224 2339 80 
Q 2067 -64 1715 -64 
z
M 1811 480 
Q 2240 480 2502 771 
Q 2765 1062 2765 1517 
Q 2765 1830 2646 2064 
Q 2528 2298 2310 2429 
Q 2093 2560 1805 2560 
Q 1517 2560 1296 2425 
Q 1075 2291 950 2057 
Q 826 1824 826 1523 
Q 826 1216 950 982 
Q 1075 749 1299 614 
Q 1523 480 1811 480 
z
M 2726 0 
L 2726 819 
L 2835 1562 
L 2726 2298 
L 2726 3040 
L 3309 3040 
L 3309 0 
L 2726 0 
z
" transform="scale(0.015625)"/>
       </defs>
       <use xlink:href="#Outfit-Regular-41"/>
       <use xlink:href="#Outfit-Regular-6c" transform="translate(69.599991 0)"/>
       <use xlink:href="#Outfit-Regular-67" transform="translate(91.799988 0)"/>
       <use xlink:href="#Outfit-Regular-65" transform="translate(149.699982 0)"/>
       <use xlink:href="#Outfit-Regular-72" transform="translate(203.299973 0)"/>
       <use xlink:href="#Outfit-Regular-69" transform="translate(245.199966 0)"/>
       <use xlink:href="#Outfit-Regular-61" transform="translate(267.59996 0)"/>
      </g>
     </g>
    </g>
    <g id="ytick_2">
     <g id="text_9">
      <!-- Tunisia -->
      <g style="fill: #262626" transform="translate(104.81125 79.168661) scale(0.12 -0.12)">
       <defs>
        <path id="Outfit-Regular-54" d="M 1702 0 
L 1702 4314 
L 2304 4314 
L 2304 0 
L 1702 0 
z
M 192 3891 
L 192 4442 
L 3808 4442 
L 3808 3891 
L 192 3891 
z
" transform="scale(0.015625)"/>
        <path id="Outfit-Regular-75" d="M 1651 -64 
Q 1274 -64 976 105 
Q 678 275 512 576 
Q 346 877 346 1274 
L 346 3040 
L 922 3040 
L 922 1299 
Q 922 1050 1008 867 
Q 1094 685 1260 589 
Q 1427 493 1651 493 
Q 1990 493 2182 707 
Q 2374 922 2374 1299 
L 2374 3040 
L 2950 3040 
L 2950 1274 
Q 2950 877 2784 576 
Q 2618 275 2326 105 
Q 2035 -64 1651 -64 
z
" transform="scale(0.015625)"/>
        <path id="Outfit-Regular-6e" d="M 2573 0 
L 2573 1773 
Q 2573 2118 2355 2342 
Q 2138 2566 1792 2566 
Q 1562 2566 1382 2464 
Q 1203 2362 1100 2182 
Q 998 2003 998 1773 
L 762 1907 
Q 762 2253 915 2521 
Q 1069 2790 1344 2947 
Q 1619 3104 1965 3104 
Q 2310 3104 2576 2931 
Q 2842 2758 2995 2480 
Q 3149 2202 3149 1888 
L 3149 0 
L 2573 0 
z
M 422 0 
L 422 3040 
L 998 3040 
L 998 0 
L 422 0 
z
" transform="scale(0.015625)"/>
        <path id="Outfit-Regular-73" d="M 1389 -64 
Q 1133 -64 905 3 
Q 678 70 486 195 
Q 294 320 154 493 
L 525 864 
Q 691 659 908 560 
Q 1126 461 1395 461 
Q 1664 461 1811 553 
Q 1958 646 1958 813 
Q 1958 979 1840 1072 
Q 1722 1165 1536 1225 
Q 1350 1286 1142 1347 
Q 934 1408 748 1504 
Q 563 1600 444 1766 
Q 326 1933 326 2208 
Q 326 2483 460 2684 
Q 595 2886 835 2995 
Q 1075 3104 1414 3104 
Q 1773 3104 2051 2979 
Q 2330 2854 2509 2605 
L 2138 2234 
Q 2010 2400 1821 2489 
Q 1632 2579 1395 2579 
Q 1146 2579 1014 2492 
Q 883 2406 883 2253 
Q 883 2099 998 2016 
Q 1114 1933 1302 1875 
Q 1491 1818 1696 1757 
Q 1901 1696 2086 1593 
Q 2272 1491 2390 1318 
Q 2509 1146 2509 864 
Q 2509 435 2205 185 
Q 1901 -64 1389 -64 
z
" transform="scale(0.015625)"/>
       </defs>
       <use xlink:href="#Outfit-Regular-54"/>
       <use xlink:href="#Outfit-Regular-75" transform="translate(62.499985 0)"/>
       <use xlink:href="#Outfit-Regular-6e" transform="translate(114.099976 0)"/>
       <use xlink:href="#Outfit-Regular-69" transform="translate(168.899963 0)"/>
       <use xlink:href="#Outfit-Regular-73" transform="translate(191.299957 0)"/>
       <use xlink:href="#Outfit-Regular-69" transform="translate(233.999954 0)"/>
       <use xlink:href="#Outfit-Regular-61" transform="translate(256.399948 0)"/>
      </g>
     </g>
    </g>
    <g id="ytick_3">
     <g id="text_10">
      <!-- Syrian Arab Republic -->
      <g style="fill: #262626" transform="translate(30.745 101.358185) scale(0.12 -0.12)">
       <defs>
        <path id="Outfit-Regular-53" d="M 1760 -64 
Q 1235 -64 864 128 
Q 493 320 205 685 
L 614 1094 
Q 826 800 1101 649 
Q 1376 499 1779 499 
Q 2176 499 2416 672 
Q 2656 845 2656 1146 
Q 2656 1395 2541 1548 
Q 2426 1702 2230 1801 
Q 2035 1901 1804 1981 
Q 1574 2061 1344 2153 
Q 1114 2246 922 2384 
Q 730 2522 611 2746 
Q 493 2970 493 3309 
Q 493 3686 675 3952 
Q 858 4218 1174 4362 
Q 1491 4506 1888 4506 
Q 2323 4506 2668 4336 
Q 3014 4166 3232 3891 
L 2822 3482 
Q 2624 3712 2397 3827 
Q 2170 3942 1875 3942 
Q 1517 3942 1305 3785 
Q 1094 3629 1094 3347 
Q 1094 3123 1212 2985 
Q 1331 2848 1523 2752 
Q 1715 2656 1948 2576 
Q 2182 2496 2412 2400 
Q 2643 2304 2835 2157 
Q 3027 2010 3145 1776 
Q 3264 1542 3264 1190 
Q 3264 602 2857 269 
Q 2451 -64 1760 -64 
z
" transform="scale(0.015625)"/>
        <path id="Outfit-Regular-79" d="M 1421 -26 
L 102 3040 
L 742 3040 
L 1722 640 
L 1517 640 
L 2547 3040 
L 3187 3040 
L 1766 -26 
L 1421 -26 
z
M 550 -1274 
L 1446 563 
L 1766 -26 
L 1190 -1274 
L 550 -1274 
z
" transform="scale(0.015625)"/>
        <path id="Outfit-Regular-20" transform="scale(0.015625)"/>
        <path id="Outfit-Regular-62" d="M 2022 -64 
Q 1677 -64 1398 80 
Q 1120 224 953 480 
Q 787 736 768 1062 
L 768 1978 
Q 787 2310 956 2563 
Q 1126 2816 1404 2960 
Q 1683 3104 2022 3104 
Q 2438 3104 2774 2893 
Q 3110 2682 3302 2323 
Q 3494 1965 3494 1517 
Q 3494 1069 3302 710 
Q 3110 352 2774 144 
Q 2438 -64 2022 -64 
z
M 422 0 
L 422 4570 
L 998 4570 
L 998 2298 
L 890 1562 
L 998 819 
L 998 0 
L 422 0 
z
M 1926 480 
Q 2214 480 2432 614 
Q 2650 749 2778 982 
Q 2906 1216 2906 1523 
Q 2906 1824 2778 2061 
Q 2650 2298 2432 2429 
Q 2214 2560 1933 2560 
Q 1645 2560 1427 2429 
Q 1210 2298 1088 2061 
Q 966 1824 966 1517 
Q 966 1216 1084 982 
Q 1203 749 1424 614 
Q 1645 480 1926 480 
z
" transform="scale(0.015625)"/>
        <path id="Outfit-Regular-52" d="M 928 1933 
L 928 2438 
L 2131 2438 
Q 2522 2438 2733 2636 
Q 2944 2835 2944 3174 
Q 2944 3494 2736 3705 
Q 2528 3917 2138 3917 
L 928 3917 
L 928 4442 
L 2157 4442 
Q 2579 4442 2892 4278 
Q 3206 4115 3376 3833 
Q 3546 3552 3546 3187 
Q 3546 2810 3376 2528 
Q 3206 2246 2892 2089 
Q 2579 1933 2157 1933 
L 928 1933 
z
M 525 0 
L 525 4442 
L 1126 4442 
L 1126 0 
L 525 0 
z
M 3085 0 
L 1472 1990 
L 2042 2189 
L 3846 0 
L 3085 0 
z
" transform="scale(0.015625)"/>
        <path id="Outfit-Regular-70" d="M 2022 -64 
Q 1677 -64 1398 80 
Q 1120 224 953 480 
Q 787 736 768 1062 
L 768 1978 
Q 787 2310 956 2563 
Q 1126 2816 1404 2960 
Q 1683 3104 2022 3104 
Q 2438 3104 2774 2893 
Q 3110 2682 3302 2323 
Q 3494 1965 3494 1517 
Q 3494 1069 3302 710 
Q 3110 352 2774 144 
Q 2438 -64 2022 -64 
z
M 422 -1274 
L 422 3040 
L 998 3040 
L 998 2240 
L 890 1504 
L 998 762 
L 998 -1274 
L 422 -1274 
z
M 1926 480 
Q 2214 480 2432 614 
Q 2650 749 2778 982 
Q 2906 1216 2906 1523 
Q 2906 1824 2778 2061 
Q 2650 2298 2432 2429 
Q 2214 2560 1933 2560 
Q 1645 2560 1427 2429 
Q 1210 2298 1088 2061 
Q 966 1824 966 1517 
Q 966 1216 1084 982 
Q 1203 749 1424 614 
Q 1645 480 1926 480 
z
" transform="scale(0.015625)"/>
        <path id="Outfit-Regular-63" d="M 1811 -64 
Q 1363 -64 1001 147 
Q 640 358 432 720 
Q 224 1082 224 1523 
Q 224 1971 432 2329 
Q 640 2688 1001 2896 
Q 1363 3104 1811 3104 
Q 2163 3104 2464 2973 
Q 2765 2842 2982 2592 
L 2598 2208 
Q 2458 2374 2256 2460 
Q 2054 2547 1811 2547 
Q 1523 2547 1299 2416 
Q 1075 2285 947 2054 
Q 819 1824 819 1523 
Q 819 1222 947 992 
Q 1075 762 1299 627 
Q 1523 493 1811 493 
Q 2054 493 2256 579 
Q 2458 666 2605 832 
L 2982 448 
Q 2771 205 2467 70 
Q 2163 -64 1811 -64 
z
" transform="scale(0.015625)"/>
       </defs>
       <use xlink:href="#Outfit-Regular-53"/>
       <use xlink:href="#Outfit-Regular-79" transform="translate(55.499985 0)"/>
       <use xlink:href="#Outfit-Regular-72" transform="translate(106.899979 0)"/>
       <use xlink:href="#Outfit-Regular-69" transform="translate(148.799973 0)"/>
       <use xlink:href="#Outfit-Regular-61" transform="translate(171.199966 0)"/>
       <use xlink:href="#Outfit-Regular-6e" transform="translate(229.399963 0)"/>
       <use xlink:href="#Outfit-Regular-20" transform="translate(284.199951 0)"/>
       <use xlink:href="#Outfit-Regular-41" transform="translate(304.999939 0)"/>
       <use xlink:href="#Outfit-Regular-72" transform="translate(374.59993 0)"/>
       <use xlink:href="#Outfit-Regular-61" transform="translate(416.499924 0)"/>
       <use xlink:href="#Outfit-Regular-62" transform="translate(474.699921 0)"/>
       <use xlink:href="#Outfit-Regular-20" transform="translate(532.899918 0)"/>
       <use xlink:href="#Outfit-Regular-52" transform="translate(553.699905 0)"/>
       <use xlink:href="#Outfit-Regular-65" transform="translate(616.69989 0)"/>
       <use xlink:href="#Outfit-Regular-70" transform="translate(670.299881 0)"/>
       <use xlink:href="#Outfit-Regular-75" transform="translate(728.499878 0)"/>
       <use xlink:href="#Outfit-Regular-62" transform="translate(780.099869 0)"/>
       <use xlink:href="#Outfit-Regular-6c" transform="translate(838.299866 0)"/>
       <use xlink:href="#Outfit-Regular-69" transform="translate(860.499863 0)"/>
       <use xlink:href="#Outfit-Regular-63" transform="translate(882.899857 0)"/>
      </g>
     </g>
    </g>
    <g id="ytick_4">
     <g id="text_11">
      <!-- Mauritania -->
      <g style="fill: #262626" transform="translate(83.95375 123.547708) scale(0.12 -0.12)">
       <defs>
        <path id="Outfit-Regular-4d" d="M 525 0 
L 525 4442 
L 947 4442 
L 2829 1350 
L 2541 1350 
L 4422 4442 
L 4845 4442 
L 4845 0 
L 4243 0 
L 4243 3386 
L 4384 3347 
L 2899 909 
L 2477 909 
L 992 3347 
L 1126 3386 
L 1126 0 
L 525 0 
z
" transform="scale(0.015625)"/>
        <path id="Outfit-Regular-74" d="M 890 0 
L 890 4314 
L 1466 4314 
L 1466 0 
L 890 0 
z
M 141 2515 
L 141 3040 
L 2214 3040 
L 2214 2515 
L 141 2515 
z
" transform="scale(0.015625)"/>
       </defs>
       <use xlink:href="#Outfit-Regular-4d"/>
       <use xlink:href="#Outfit-Regular-61" transform="translate(83.899994 0)"/>
       <use xlink:href="#Outfit-Regular-75" transform="translate(142.099991 0)"/>
       <use xlink:href="#Outfit-Regular-72" transform="translate(193.699982 0)"/>
       <use xlink:href="#Outfit-Regular-69" transform="translate(235.599976 0)"/>
       <use xlink:href="#Outfit-Regular-74" transform="translate(257.999969 0)"/>
       <use xlink:href="#Outfit-Regular-61" transform="translate(294.799957 0)"/>
       <use xlink:href="#Outfit-Regular-6e" transform="translate(352.999954 0)"/>
       <use xlink:href="#Outfit-Regular-69" transform="translate(407.799942 0)"/>
       <use xlink:href="#Outfit-Regular-61" transform="translate(430.199936 0)"/>
      </g>
     </g>
    </g>
    <g id="ytick_5">
     <g id="text_12">
      <!-- Oman -->
      <g style="fill: #262626" transform="translate(109.215625 145.737232) scale(0.12 -0.12)">
       <defs>
        <path id="Outfit-Regular-4f" d="M 2547 -64 
Q 2074 -64 1664 112 
Q 1254 288 947 605 
Q 640 922 470 1338 
Q 301 1754 301 2227 
Q 301 2707 470 3120 
Q 640 3533 944 3846 
Q 1248 4160 1654 4333 
Q 2061 4506 2534 4506 
Q 3008 4506 3414 4333 
Q 3821 4160 4128 3846 
Q 4435 3533 4608 3117 
Q 4781 2701 4781 2221 
Q 4781 1747 4608 1331 
Q 4435 915 4131 601 
Q 3827 288 3420 112 
Q 3014 -64 2547 -64 
z
M 2534 512 
Q 3014 512 3376 733 
Q 3738 954 3949 1341 
Q 4160 1728 4160 2227 
Q 4160 2598 4038 2908 
Q 3917 3219 3699 3449 
Q 3482 3680 3187 3805 
Q 2893 3930 2534 3930 
Q 2061 3930 1699 3712 
Q 1338 3494 1130 3110 
Q 922 2726 922 2227 
Q 922 1856 1040 1539 
Q 1158 1222 1372 995 
Q 1587 768 1884 640 
Q 2182 512 2534 512 
z
" transform="scale(0.015625)"/>
        <path id="Outfit-Regular-6d" d="M 422 0 
L 422 3040 
L 998 3040 
L 998 0 
L 422 0 
z
M 2477 0 
L 2477 1837 
Q 2477 2176 2269 2371 
Q 2061 2566 1747 2566 
Q 1536 2566 1369 2476 
Q 1203 2387 1100 2227 
Q 998 2067 998 1843 
L 762 1958 
Q 762 2304 912 2560 
Q 1062 2816 1324 2960 
Q 1587 3104 1914 3104 
Q 2234 3104 2493 2963 
Q 2752 2822 2902 2566 
Q 3053 2310 3053 1958 
L 3053 0 
L 2477 0 
z
M 4531 0 
L 4531 1837 
Q 4531 2176 4323 2371 
Q 4115 2566 3808 2566 
Q 3597 2566 3427 2476 
Q 3258 2387 3155 2227 
Q 3053 2067 3053 1843 
L 2726 1958 
Q 2746 2310 2915 2563 
Q 3085 2816 3353 2960 
Q 3622 3104 3942 3104 
Q 4275 3104 4537 2963 
Q 4800 2822 4957 2566 
Q 5114 2310 5114 1952 
L 5114 0 
L 4531 0 
z
" transform="scale(0.015625)"/>
       </defs>
       <use xlink:href="#Outfit-Regular-4f"/>
       <use xlink:href="#Outfit-Regular-6d" transform="translate(79.399994 0)"/>
       <use xlink:href="#Outfit-Regular-61" transform="translate(164.899979 0)"/>
       <use xlink:href="#Outfit-Regular-6e" transform="translate(223.099976 0)"/>
      </g>
     </g>
    </g>
    <g id="ytick_6">
     <g id="text_13">
      <!-- Yemen, Rep. -->
      <g style="fill: #262626" transform="translate(74.635 167.926756) scale(0.12 -0.12)">
       <defs>
        <path id="Outfit-Regular-59" d="M 1933 1805 
L 186 4442 
L 883 4442 
L 2291 2285 
L 1978 2285 
L 3392 4442 
L 4077 4442 
L 2317 1805 
L 1933 1805 
z
M 1830 0 
L 1830 2202 
L 2432 2202 
L 2432 0 
L 1830 0 
z
" transform="scale(0.015625)"/>
        <path id="Outfit-Regular-2c" d="M 454 -704 
L 851 58 
L 1056 109 
Q 1024 38 976 -6 
Q 928 -51 858 -51 
Q 723 -51 611 61 
Q 499 173 499 339 
Q 499 525 620 649 
Q 742 774 928 774 
Q 1094 774 1222 649 
Q 1350 525 1350 339 
Q 1350 269 1321 169 
Q 1293 70 1210 -83 
L 787 -883 
L 454 -704 
z
" transform="scale(0.015625)"/>
        <path id="Outfit-Regular-2e" d="M 928 -64 
Q 749 -64 630 61 
Q 512 186 512 358 
Q 512 538 630 656 
Q 749 774 928 774 
Q 1107 774 1225 656 
Q 1344 538 1344 358 
Q 1344 186 1225 61 
Q 1107 -64 928 -64 
z
" transform="scale(0.015625)"/>
       </defs>
       <use xlink:href="#Outfit-Regular-59"/>
       <use xlink:href="#Outfit-Regular-65" transform="translate(66.499985 0)"/>
       <use xlink:href="#Outfit-Regular-6d" transform="translate(120.099976 0)"/>
       <use xlink:href="#Outfit-Regular-65" transform="translate(205.59996 0)"/>
       <use xlink:href="#Outfit-Regular-6e" transform="translate(259.199951 0)"/>
       <use xlink:href="#Outfit-Regular-2c" transform="translate(313.999939 0)"/>
       <use xlink:href="#Outfit-Regular-20" transform="translate(341.499924 0)"/>
       <use xlink:href="#Outfit-Regular-52" transform="translate(362.299911 0)"/>
       <use xlink:href="#Outfit-Regular-65" transform="translate(425.299896 0)"/>
       <use xlink:href="#Outfit-Regular-70" transform="translate(478.899887 0)"/>
       <use xlink:href="#Outfit-Regular-2e" transform="translate(537.099884 0)"/>
      </g>
     </g>
    </g>
    <g id="ytick_7">
     <g id="text_14">
      <!-- Saudi Arabia -->
      <g style="fill: #262626" transform="translate(73.538125 190.11628) scale(0.12 -0.12)">
       <defs>
        <path id="Outfit-Regular-64" d="M 1709 -64 
Q 1286 -64 953 144 
Q 621 352 425 710 
Q 230 1069 230 1517 
Q 230 1965 425 2323 
Q 621 2682 953 2893 
Q 1286 3104 1709 3104 
Q 2048 3104 2323 2960 
Q 2598 2816 2768 2563 
Q 2938 2310 2957 1978 
L 2957 1062 
Q 2938 736 2771 480 
Q 2605 224 2329 80 
Q 2054 -64 1709 -64 
z
M 1805 480 
Q 2093 480 2307 614 
Q 2522 749 2643 982 
Q 2765 1216 2765 1517 
Q 2765 1830 2640 2060 
Q 2515 2291 2300 2425 
Q 2086 2560 1798 2560 
Q 1510 2560 1292 2425 
Q 1075 2291 950 2057 
Q 826 1824 826 1523 
Q 826 1216 950 982 
Q 1075 749 1296 614 
Q 1517 480 1805 480 
z
M 3309 0 
L 2726 0 
L 2726 819 
L 2835 1562 
L 2726 2298 
L 2726 4570 
L 3309 4570 
L 3309 0 
z
" transform="scale(0.015625)"/>
       </defs>
       <use xlink:href="#Outfit-Regular-53"/>
       <use xlink:href="#Outfit-Regular-61" transform="translate(55.499985 0)"/>
       <use xlink:href="#Outfit-Regular-75" transform="translate(113.699982 0)"/>
       <use xlink:href="#Outfit-Regular-64" transform="translate(165.299973 0)"/>
       <use xlink:href="#Outfit-Regular-69" transform="translate(223.499969 0)"/>
       <use xlink:href="#Outfit-Regular-20" transform="translate(245.899963 0)"/>
       <use xlink:href="#Outfit-Regular-41" transform="translate(266.699951 0)"/>
       <use xlink:href="#Outfit-Regular-72" transform="translate(336.299942 0)"/>
       <use xlink:href="#Outfit-Regular-61" transform="translate(378.199936 0)"/>
       <use xlink:href="#Outfit-Regular-62" transform="translate(436.399933 0)"/>
       <use xlink:href="#Outfit-Regular-69" transform="translate(494.59993 0)"/>
       <use xlink:href="#Outfit-Regular-61" transform="translate(516.999924 0)"/>
      </g>
     </g>
    </g>
    <g id="ytick_8">
     <g id="text_15">
      <!-- Libya -->
      <g style="fill: #262626" transform="translate(113.11375 212.305804) scale(0.12 -0.12)">
       <defs>
        <path id="Outfit-Regular-4c" d="M 525 0 
L 525 4442 
L 1126 4442 
L 1126 0 
L 525 0 
z
M 934 0 
L 934 550 
L 3315 550 
L 3315 0 
L 934 0 
z
" transform="scale(0.015625)"/>
       </defs>
       <use xlink:href="#Outfit-Regular-4c"/>
       <use xlink:href="#Outfit-Regular-69" transform="translate(55.199997 0)"/>
       <use xlink:href="#Outfit-Regular-62" transform="translate(77.599991 0)"/>
       <use xlink:href="#Outfit-Regular-79" transform="translate(135.799988 0)"/>
       <use xlink:href="#Outfit-Regular-61" transform="translate(187.199982 0)"/>
      </g>
     </g>
    </g>
    <g id="ytick_9">
     <g id="text_16">
      <!-- Kuwait -->
      <g style="fill: #262626" transform="translate(105.293125 234.495327) scale(0.12 -0.12)">
       <defs>
        <path id="Outfit-Regular-4b" d="M 3270 0 
L 1030 2317 
L 3226 4442 
L 4006 4442 
L 1638 2163 
L 1638 2496 
L 4070 0 
L 3270 0 
z
M 525 0 
L 525 4442 
L 1126 4442 
L 1126 0 
L 525 0 
z
" transform="scale(0.015625)"/>
        <path id="Outfit-Regular-77" d="M 1293 0 
L 90 3040 
L 691 3040 
L 1562 672 
L 1370 672 
L 2234 3040 
L 2566 3040 
L 3430 672 
L 3238 672 
L 4109 3040 
L 4710 3040 
L 3514 0 
L 3174 0 
L 2298 2298 
L 2509 2298 
L 1626 0 
L 1293 0 
z
" transform="scale(0.015625)"/>
       </defs>
       <use xlink:href="#Outfit-Regular-4b"/>
       <use xlink:href="#Outfit-Regular-75" transform="translate(66.599991 0)"/>
       <use xlink:href="#Outfit-Regular-77" transform="translate(118.199982 0)"/>
       <use xlink:href="#Outfit-Regular-61" transform="translate(193.199966 0)"/>
       <use xlink:href="#Outfit-Regular-69" transform="translate(251.399963 0)"/>
       <use xlink:href="#Outfit-Regular-74" transform="translate(273.799957 0)"/>
      </g>
     </g>
    </g>
    <g id="ytick_10">
     <g id="text_17">
      <!-- Lebanon -->
      <g style="fill: #262626" transform="translate(95.5975 256.684851) scale(0.12 -0.12)">
       <defs>
        <path id="Outfit-Regular-6f" d="M 1811 -64 
Q 1363 -64 1004 147 
Q 646 358 435 720 
Q 224 1082 224 1530 
Q 224 1971 435 2326 
Q 646 2682 1004 2893 
Q 1363 3104 1811 3104 
Q 2253 3104 2614 2896 
Q 2976 2688 3187 2329 
Q 3398 1971 3398 1530 
Q 3398 1082 3187 720 
Q 2976 358 2614 147 
Q 2253 -64 1811 -64 
z
M 1811 493 
Q 2099 493 2323 627 
Q 2547 762 2675 995 
Q 2803 1229 2803 1530 
Q 2803 1824 2672 2054 
Q 2541 2285 2320 2416 
Q 2099 2547 1811 2547 
Q 1523 2547 1299 2416 
Q 1075 2285 947 2054 
Q 819 1824 819 1530 
Q 819 1229 947 995 
Q 1075 762 1299 627 
Q 1523 493 1811 493 
z
" transform="scale(0.015625)"/>
       </defs>
       <use xlink:href="#Outfit-Regular-4c"/>
       <use xlink:href="#Outfit-Regular-65" transform="translate(55.199997 0)"/>
       <use xlink:href="#Outfit-Regular-62" transform="translate(108.799988 0)"/>
       <use xlink:href="#Outfit-Regular-61" transform="translate(166.999985 0)"/>
       <use xlink:href="#Outfit-Regular-6e" transform="translate(225.199982 0)"/>
       <use xlink:href="#Outfit-Regular-6f" transform="translate(279.999969 0)"/>
       <use xlink:href="#Outfit-Regular-6e" transform="translate(336.59996 0)"/>
      </g>
     </g>
    </g>
    <g id="ytick_11">
     <g id="text_18">
      <!-- Iraq -->
      <g style="fill: #262626" transform="translate(120.46 278.874375) scale(0.12 -0.12)">
       <defs>
        <path id="Outfit-Regular-49" d="M 525 0 
L 525 4442 
L 1126 4442 
L 1126 0 
L 525 0 
z
" transform="scale(0.015625)"/>
        <path id="Outfit-Regular-71" d="M 1722 -64 
Q 1299 -64 960 144 
Q 621 352 425 710 
Q 230 1069 230 1517 
Q 230 1965 425 2323 
Q 621 2682 960 2893 
Q 1299 3104 1715 3104 
Q 2067 3104 2339 2960 
Q 2611 2816 2774 2563 
Q 2938 2310 2957 1978 
L 2957 1062 
Q 2938 736 2774 480 
Q 2611 224 2339 80 
Q 2067 -64 1722 -64 
z
M 1811 480 
Q 2240 480 2502 771 
Q 2765 1062 2765 1517 
Q 2765 1830 2646 2064 
Q 2528 2298 2313 2429 
Q 2099 2560 1811 2560 
Q 1523 2560 1302 2425 
Q 1082 2291 954 2057 
Q 826 1824 826 1523 
Q 826 1216 954 982 
Q 1082 749 1302 614 
Q 1523 480 1811 480 
z
M 2733 -1274 
L 2733 762 
L 2835 1504 
L 2733 2240 
L 2733 3040 
L 3309 3040 
L 3309 -1274 
L 2733 -1274 
z
" transform="scale(0.015625)"/>
       </defs>
       <use xlink:href="#Outfit-Regular-49"/>
       <use xlink:href="#Outfit-Regular-72" transform="translate(25.799988 0)"/>
       <use xlink:href="#Outfit-Regular-61" transform="translate(67.699982 0)"/>
       <use xlink:href="#Outfit-Regular-71" transform="translate(125.899979 0)"/>
      </g>
     </g>
    </g>
    <g id="ytick_12">
     <g id="text_19">
      <!-- Qatar -->
      <g style="fill: #262626" transform="translate(109.346875 301.063899) scale(0.12 -0.12)">
       <defs>
        <path id="Outfit-Regular-51" d="M 2554 -64 
Q 2080 -64 1670 112 
Q 1261 288 953 605 
Q 646 922 473 1338 
Q 301 1754 301 2227 
Q 301 2707 473 3120 
Q 646 3533 950 3846 
Q 1254 4160 1660 4333 
Q 2067 4506 2541 4506 
Q 3014 4506 3420 4333 
Q 3827 4160 4134 3846 
Q 4442 3533 4611 3117 
Q 4781 2701 4781 2221 
Q 4781 1747 4611 1331 
Q 4442 915 4138 601 
Q 3834 288 3427 112 
Q 3021 -64 2554 -64 
z
M 4678 -314 
L 2598 1766 
L 2989 2157 
L 5062 77 
L 4678 -314 
z
M 2541 512 
Q 3014 512 3379 733 
Q 3744 954 3952 1341 
Q 4160 1728 4160 2227 
Q 4160 2598 4041 2908 
Q 3923 3219 3705 3449 
Q 3488 3680 3193 3805 
Q 2899 3930 2541 3930 
Q 2067 3930 1702 3712 
Q 1338 3494 1130 3110 
Q 922 2726 922 2227 
Q 922 1856 1043 1539 
Q 1165 1222 1379 995 
Q 1594 768 1891 640 
Q 2189 512 2541 512 
z
" transform="scale(0.015625)"/>
       </defs>
       <use xlink:href="#Outfit-Regular-51"/>
       <use xlink:href="#Outfit-Regular-61" transform="translate(81.699982 0)"/>
       <use xlink:href="#Outfit-Regular-74" transform="translate(139.899979 0)"/>
       <use xlink:href="#Outfit-Regular-61" transform="translate(176.699966 0)"/>
       <use xlink:href="#Outfit-Regular-72" transform="translate(234.899963 0)"/>
      </g>
     </g>
    </g>
    <g id="ytick_13">
     <g id="text_20">
      <!-- Somalia -->
      <g style="fill: #262626" transform="translate(99.53125 323.253423) scale(0.12 -0.12)">
       <use xlink:href="#Outfit-Regular-53"/>
       <use xlink:href="#Outfit-Regular-6f" transform="translate(55.499985 0)"/>
       <use xlink:href="#Outfit-Regular-6d" transform="translate(112.099976 0)"/>
       <use xlink:href="#Outfit-Regular-61" transform="translate(197.59996 0)"/>
       <use xlink:href="#Outfit-Regular-6c" transform="translate(255.799957 0)"/>
       <use xlink:href="#Outfit-Regular-69" transform="translate(277.999954 0)"/>
       <use xlink:href="#Outfit-Regular-61" transform="translate(300.399948 0)"/>
      </g>
     </g>
    </g>
    <g id="ytick_14">
     <g id="text_21">
      <!-- Sudan -->
      <g style="fill: #262626" transform="translate(109.16875 345.442946) scale(0.12 -0.12)">
       <use xlink:href="#Outfit-Regular-53"/>
       <use xlink:href="#Outfit-Regular-75" transform="translate(55.499985 0)"/>
       <use xlink:href="#Outfit-Regular-64" transform="translate(107.099976 0)"/>
       <use xlink:href="#Outfit-Regular-61" transform="translate(165.299973 0)"/>
       <use xlink:href="#Outfit-Regular-6e" transform="translate(223.499969 0)"/>
      </g>
     </g>
    </g>
    <g id="ytick_15">
     <g id="text_22">
      <!-- Morocco -->
      <g style="fill: #262626" transform="translate(95.355625 367.63247) scale(0.12 -0.12)">
       <use xlink:href="#Outfit-Regular-4d"/>
       <use xlink:href="#Outfit-Regular-6f" transform="translate(83.899994 0)"/>
       <use xlink:href="#Outfit-Regular-72" transform="translate(140.499985 0)"/>
       <use xlink:href="#Outfit-Regular-6f" transform="translate(182.399979 0)"/>
       <use xlink:href="#Outfit-Regular-63" transform="translate(238.999969 0)"/>
       <use xlink:href="#Outfit-Regular-63" transform="translate(287.899963 0)"/>
       <use xlink:href="#Outfit-Regular-6f" transform="translate(336.799957 0)"/>
      </g>
     </g>
    </g>
    <g id="ytick_16">
     <g id="text_23">
      <!-- Jordan -->
      <g style="fill: #262626" transform="translate(104.26 389.821994) scale(0.12 -0.12)">
       <defs>
        <path id="Outfit-Regular-4a" d="M 1344 -64 
Q 960 -64 669 86 
Q 378 237 192 493 
L 614 883 
Q 736 704 918 608 
Q 1101 512 1325 512 
Q 1549 512 1721 608 
Q 1894 704 1993 893 
Q 2093 1082 2093 1357 
L 2093 4442 
L 2694 4442 
L 2694 1389 
Q 2694 947 2518 620 
Q 2342 294 2038 115 
Q 1734 -64 1344 -64 
z
" transform="scale(0.015625)"/>
       </defs>
       <use xlink:href="#Outfit-Regular-4a"/>
       <use xlink:href="#Outfit-Regular-6f" transform="translate(49.499985 0)"/>
       <use xlink:href="#Outfit-Regular-72" transform="translate(106.099976 0)"/>
       <use xlink:href="#Outfit-Regular-64" transform="translate(147.999969 0)"/>
       <use xlink:href="#Outfit-Regular-61" transform="translate(206.199966 0)"/>
       <use xlink:href="#Outfit-Regular-6e" transform="translate(264.399963 0)"/>
      </g>
     </g>
    </g>
    <g id="ytick_17">
     <g id="text_24">
      <!-- Bahrain -->
      <g style="fill: #262626" transform="translate(100.25125 412.011518) scale(0.12 -0.12)">
       <defs>
        <path id="Outfit-Regular-42" d="M 928 0 
L 928 525 
L 2272 525 
Q 2656 525 2873 752 
Q 3091 979 3091 1299 
Q 3091 1517 2995 1693 
Q 2899 1869 2716 1971 
Q 2534 2074 2291 2074 
L 928 2074 
L 928 2598 
L 2202 2598 
Q 2522 2598 2710 2768 
Q 2899 2938 2899 3258 
Q 2899 3578 2700 3747 
Q 2502 3917 2176 3917 
L 928 3917 
L 928 4442 
L 2189 4442 
Q 2624 4442 2915 4285 
Q 3206 4128 3356 3872 
Q 3507 3616 3507 3309 
Q 3507 2950 3312 2681 
Q 3117 2413 2739 2259 
L 2790 2451 
Q 3219 2298 3459 1987 
Q 3699 1677 3699 1254 
Q 3699 902 3526 620 
Q 3354 339 3030 169 
Q 2707 0 2240 0 
L 928 0 
z
M 525 0 
L 525 4442 
L 1126 4442 
L 1126 0 
L 525 0 
z
" transform="scale(0.015625)"/>
        <path id="Outfit-Regular-68" d="M 2573 0 
L 2573 1773 
Q 2573 2118 2355 2342 
Q 2138 2566 1792 2566 
Q 1562 2566 1382 2464 
Q 1203 2362 1100 2182 
Q 998 2003 998 1773 
L 762 1907 
Q 762 2253 915 2521 
Q 1069 2790 1344 2947 
Q 1619 3104 1965 3104 
Q 2310 3104 2576 2950 
Q 2842 2797 2995 2521 
Q 3149 2246 3149 1888 
L 3149 0 
L 2573 0 
z
M 422 0 
L 422 4570 
L 998 4570 
L 998 0 
L 422 0 
z
" transform="scale(0.015625)"/>
       </defs>
       <use xlink:href="#Outfit-Regular-42"/>
       <use xlink:href="#Outfit-Regular-61" transform="translate(62.299988 0)"/>
       <use xlink:href="#Outfit-Regular-68" transform="translate(120.499985 0)"/>
       <use xlink:href="#Outfit-Regular-72" transform="translate(175.299973 0)"/>
       <use xlink:href="#Outfit-Regular-61" transform="translate(217.199966 0)"/>
       <use xlink:href="#Outfit-Regular-69" transform="translate(275.399963 0)"/>
       <use xlink:href="#Outfit-Regular-6e" transform="translate(297.799957 0)"/>
      </g>
     </g>
    </g>
    <g id="ytick_18">
     <g id="text_25">
      <!-- Egypt, Arab Rep. -->
      <g style="fill: #262626" transform="translate(50.87125 434.201042) scale(0.12 -0.12)">
       <defs>
        <path id="Outfit-Regular-45" d="M 525 0 
L 525 4442 
L 1126 4442 
L 1126 0 
L 525 0 
z
M 934 0 
L 934 550 
L 3482 550 
L 3482 0 
L 934 0 
z
M 934 2010 
L 934 2534 
L 3270 2534 
L 3270 2010 
L 934 2010 
z
M 934 3891 
L 934 4442 
L 3450 4442 
L 3450 3891 
L 934 3891 
z
" transform="scale(0.015625)"/>
       </defs>
       <use xlink:href="#Outfit-Regular-45"/>
       <use xlink:href="#Outfit-Regular-67" transform="translate(58.999985 0)"/>
       <use xlink:href="#Outfit-Regular-79" transform="translate(116.899979 0)"/>
       <use xlink:href="#Outfit-Regular-70" transform="translate(168.299973 0)"/>
       <use xlink:href="#Outfit-Regular-74" transform="translate(226.499969 0)"/>
       <use xlink:href="#Outfit-Regular-2c" transform="translate(263.299957 0)"/>
       <use xlink:href="#Outfit-Regular-20" transform="translate(290.799942 0)"/>
       <use xlink:href="#Outfit-Regular-41" transform="translate(311.59993 0)"/>
       <use xlink:href="#Outfit-Regular-72" transform="translate(381.199921 0)"/>
       <use xlink:href="#Outfit-Regular-61" transform="translate(423.099915 0)"/>
       <use xlink:href="#Outfit-Regular-62" transform="translate(481.299911 0)"/>
       <use xlink:href="#Outfit-Regular-20" transform="translate(539.499908 0)"/>
       <use xlink:href="#Outfit-Regular-52" transform="translate(560.299896 0)"/>
       <use xlink:href="#Outfit-Regular-65" transform="translate(623.299881 0)"/>
       <use xlink:href="#Outfit-Regular-70" transform="translate(676.899872 0)"/>
       <use xlink:href="#Outfit-Regular-2e" transform="translate(735.099869 0)"/>
      </g>
     </g>
    </g>
    <g id="ytick_19">
     <g id="text_26">
      <!-- Djibouti -->
      <g style="fill: #262626" transform="translate(101.164375 456.390565) scale(0.12 -0.12)">
       <defs>
        <path id="Outfit-Regular-44" d="M 922 0 
L 922 550 
L 2157 550 
Q 2650 550 3021 764 
Q 3392 979 3600 1356 
Q 3808 1734 3808 2227 
Q 3808 2714 3597 3091 
Q 3386 3469 3014 3680 
Q 2643 3891 2157 3891 
L 928 3891 
L 928 4442 
L 2170 4442 
Q 2656 4442 3069 4275 
Q 3482 4109 3786 3808 
Q 4090 3507 4259 3104 
Q 4429 2701 4429 2221 
Q 4429 1747 4259 1340 
Q 4090 934 3789 633 
Q 3488 333 3075 166 
Q 2662 0 2182 0 
L 922 0 
z
M 525 0 
L 525 4442 
L 1126 4442 
L 1126 0 
L 525 0 
z
" transform="scale(0.015625)"/>
        <path id="Outfit-Regular-6a" d="M 38 -1338 
Q -256 -1338 -457 -1242 
Q -659 -1146 -819 -966 
L -448 -589 
Q -358 -698 -252 -749 
Q -147 -800 0 -800 
Q 192 -800 333 -681 
Q 474 -563 474 -326 
L 474 3040 
L 1050 3040 
L 1050 -320 
Q 1050 -653 909 -877 
Q 768 -1101 537 -1219 
Q 307 -1338 38 -1338 
z
M 768 3648 
Q 614 3648 512 3753 
Q 410 3859 410 4019 
Q 410 4173 512 4278 
Q 614 4384 768 4384 
Q 928 4384 1030 4278 
Q 1133 4173 1133 4019 
Q 1133 3859 1030 3753 
Q 928 3648 768 3648 
z
" transform="scale(0.015625)"/>
       </defs>
       <use xlink:href="#Outfit-Regular-44"/>
       <use xlink:href="#Outfit-Regular-6a" transform="translate(73.999985 0)"/>
       <use xlink:href="#Outfit-Regular-69" transform="translate(96.999969 0)"/>
       <use xlink:href="#Outfit-Regular-62" transform="translate(119.399963 0)"/>
       <use xlink:href="#Outfit-Regular-6f" transform="translate(177.59996 0)"/>
       <use xlink:href="#Outfit-Regular-75" transform="translate(234.199951 0)"/>
       <use xlink:href="#Outfit-Regular-74" transform="translate(285.799942 0)"/>
       <use xlink:href="#Outfit-Regular-69" transform="translate(322.59993 0)"/>
      </g>
     </g>
    </g>
    <g id="ytick_20">
     <g id="text_27">
      <!-- Comoros -->
      <g style="fill: #262626" transform="translate(93.521875 478.580089) scale(0.12 -0.12)">
       <defs>
        <path id="Outfit-Regular-43" d="M 2541 -64 
Q 2061 -64 1651 112 
Q 1242 288 938 601 
Q 634 915 467 1331 
Q 301 1747 301 2221 
Q 301 2701 467 3117 
Q 634 3533 938 3843 
Q 1242 4154 1648 4330 
Q 2054 4506 2534 4506 
Q 3059 4506 3456 4326 
Q 3853 4147 4160 3840 
L 3744 3424 
Q 3533 3661 3229 3795 
Q 2925 3930 2534 3930 
Q 2182 3930 1888 3805 
Q 1594 3680 1376 3449 
Q 1158 3219 1040 2905 
Q 922 2592 922 2221 
Q 922 1850 1040 1536 
Q 1158 1222 1376 992 
Q 1594 762 1888 637 
Q 2182 512 2534 512 
Q 2950 512 3257 649 
Q 3565 787 3776 1024 
L 4192 614 
Q 3885 294 3472 115 
Q 3059 -64 2541 -64 
z
" transform="scale(0.015625)"/>
       </defs>
       <use xlink:href="#Outfit-Regular-43"/>
       <use xlink:href="#Outfit-Regular-6f" transform="translate(68.799988 0)"/>
       <use xlink:href="#Outfit-Regular-6d" transform="translate(125.399979 0)"/>
       <use xlink:href="#Outfit-Regular-6f" transform="translate(210.899963 0)"/>
       <use xlink:href="#Outfit-Regular-72" transform="translate(267.499954 0)"/>
       <use xlink:href="#Outfit-Regular-6f" transform="translate(309.399948 0)"/>
       <use xlink:href="#Outfit-Regular-73" transform="translate(365.999939 0)"/>
      </g>
     </g>
    </g>
    <g id="ytick_21">
     <g id="text_28">
      <!-- United Arab Emirates -->
      <g style="fill: #262626" transform="translate(26.92 500.769613) scale(0.12 -0.12)">
       <defs>
        <path id="Outfit-Regular-55" d="M 2189 -64 
Q 1696 -64 1309 157 
Q 922 378 698 765 
Q 474 1152 474 1645 
L 474 4442 
L 1075 4442 
L 1075 1658 
Q 1075 1306 1222 1050 
Q 1370 794 1622 653 
Q 1875 512 2189 512 
Q 2515 512 2761 653 
Q 3008 794 3152 1050 
Q 3296 1306 3296 1651 
L 3296 4442 
L 3904 4442 
L 3904 1638 
Q 3904 1146 3680 762 
Q 3456 378 3072 157 
Q 2688 -64 2189 -64 
z
" transform="scale(0.015625)"/>
       </defs>
       <use xlink:href="#Outfit-Regular-55"/>
       <use xlink:href="#Outfit-Regular-6e" transform="translate(68.299988 0)"/>
       <use xlink:href="#Outfit-Regular-69" transform="translate(123.099976 0)"/>
       <use xlink:href="#Outfit-Regular-74" transform="translate(145.499969 0)"/>
       <use xlink:href="#Outfit-Regular-65" transform="translate(182.299957 0)"/>
       <use xlink:href="#Outfit-Regular-64" transform="translate(235.899948 0)"/>
       <use xlink:href="#Outfit-Regular-20" transform="translate(294.099945 0)"/>
       <use xlink:href="#Outfit-Regular-41" transform="translate(314.899933 0)"/>
       <use xlink:href="#Outfit-Regular-72" transform="translate(384.499924 0)"/>
       <use xlink:href="#Outfit-Regular-61" transform="translate(426.399918 0)"/>
       <use xlink:href="#Outfit-Regular-62" transform="translate(484.599915 0)"/>
       <use xlink:href="#Outfit-Regular-20" transform="translate(542.799911 0)"/>
       <use xlink:href="#Outfit-Regular-45" transform="translate(563.599899 0)"/>
       <use xlink:href="#Outfit-Regular-6d" transform="translate(622.599884 0)"/>
       <use xlink:href="#Outfit-Regular-69" transform="translate(708.099869 0)"/>
       <use xlink:href="#Outfit-Regular-72" transform="translate(730.499863 0)"/>
       <use xlink:href="#Outfit-Regular-61" transform="translate(772.399857 0)"/>
       <use xlink:href="#Outfit-Regular-74" transform="translate(830.599854 0)"/>
       <use xlink:href="#Outfit-Regular-65" transform="translate(867.399841 0)"/>
       <use xlink:href="#Outfit-Regular-73" transform="translate(920.999832 0)"/>
      </g>
     </g>
    </g>
    <g id="text_29">
     <!-- Country -->
     <g style="fill: #262626" transform="translate(18.72 303.66875) rotate(-90) scale(0.16 -0.16)">
      <defs>
       <path id="Outfit-Medium-43" d="M 2522 -64 
Q 2035 -64 1622 112 
Q 1210 288 902 605 
Q 595 922 428 1341 
Q 262 1760 262 2240 
Q 262 2720 428 3139 
Q 595 3558 902 3872 
Q 1210 4186 1622 4365 
Q 2035 4544 2522 4544 
Q 3066 4544 3462 4365 
Q 3859 4186 4166 3878 
L 3667 3379 
Q 3469 3597 3184 3718 
Q 2899 3840 2522 3840 
Q 2189 3840 1913 3725 
Q 1638 3610 1436 3395 
Q 1235 3181 1126 2886 
Q 1018 2592 1018 2240 
Q 1018 1888 1126 1593 
Q 1235 1299 1436 1084 
Q 1638 870 1913 755 
Q 2189 640 2522 640 
Q 2931 640 3216 765 
Q 3501 890 3699 1107 
L 4198 608 
Q 3891 294 3475 115 
Q 3059 -64 2522 -64 
z
" transform="scale(0.015625)"/>
       <path id="Outfit-Medium-75" d="M 1651 -64 
Q 1261 -64 957 109 
Q 653 282 483 586 
Q 314 890 314 1286 
L 314 3072 
L 1018 3072 
L 1018 1318 
Q 1018 1094 1091 937 
Q 1165 781 1309 697 
Q 1453 614 1651 614 
Q 1958 614 2121 796 
Q 2285 979 2285 1318 
L 2285 3072 
L 2989 3072 
L 2989 1286 
Q 2989 883 2819 579 
Q 2650 275 2349 105 
Q 2048 -64 1651 -64 
z
" transform="scale(0.015625)"/>
       <path id="Outfit-Medium-74" d="M 858 0 
L 858 4352 
L 1562 4352 
L 1562 0 
L 858 0 
z
M 122 2432 
L 122 3072 
L 2298 3072 
L 2298 2432 
L 122 2432 
z
" transform="scale(0.015625)"/>
       <path id="Outfit-Medium-79" d="M 1382 -32 
L 70 3072 
L 845 3072 
L 1741 794 
L 1517 794 
L 2464 3072 
L 3245 3072 
L 1818 -32 
L 1382 -32 
z
M 467 -1280 
L 1421 685 
L 1818 -32 
L 1248 -1280 
L 467 -1280 
z
" transform="scale(0.015625)"/>
      </defs>
      <use xlink:href="#Outfit-Medium-43"/>
      <use xlink:href="#Outfit-Medium-6f" transform="translate(68.299988 0)"/>
      <use xlink:href="#Outfit-Medium-75" transform="translate(124.599976 0)"/>
      <use xlink:href="#Outfit-Medium-6e" transform="translate(176.299973 0)"/>
      <use xlink:href="#Outfit-Medium-74" transform="translate(231.399963 0)"/>
      <use xlink:href="#Outfit-Medium-72" transform="translate(269.199951 0)"/>
      <use xlink:href="#Outfit-Medium-79" transform="translate(311.699936 0)"/>
     </g>
    </g>
   </g>
   <g id="patch_3">
    <path d="M 573.259338 43.818952 
L 196.671193 43.818952 
L 196.671193 61.570571 
L 573.259338 61.570571 
z
" clip-path="url(#pd840e34a2e)" style="fill: #a62937; stroke: #ffffff; stroke-linejoin: miter"/>
   </g>
   <g id="patch_4">
    <path d="M 573.259338 66.008476 
L 325.003042 66.008476 
L 325.003042 83.760095 
L 573.259338 83.760095 
z
" clip-path="url(#pd840e34a2e)" style="fill: #bd403c; stroke: #ffffff; stroke-linejoin: miter"/>
   </g>
   <g id="patch_5">
    <path d="M 573.259338 88.198 
L 535.188085 88.198 
L 535.188085 105.949619 
L 573.259338 105.949619 
z
" clip-path="url(#pd840e34a2e)" style="fill: #cb5546; stroke: #ffffff; stroke-linejoin: miter"/>
   </g>
   <g id="patch_6">
    <path d="M 573.259338 110.387524 
L 543.436857 110.387524 
L 543.436857 128.139143 
L 573.259338 128.139143 
z
" clip-path="url(#pd840e34a2e)" style="fill: #d86e54; stroke: #ffffff; stroke-linejoin: miter"/>
   </g>
   <g id="patch_7">
    <path d="M 573.259338 132.577048 
L 554.382342 132.577048 
L 554.382342 150.328667 
L 573.259338 150.328667 
z
" clip-path="url(#pd840e34a2e)" style="fill: #e18761; stroke: #ffffff; stroke-linejoin: miter"/>
   </g>
   <g id="patch_8">
    <path d="M 573.259338 154.766571 
L 568.024541 154.766571 
L 568.024541 172.51819 
L 573.259338 172.51819 
z
" clip-path="url(#pd840e34a2e)" style="fill: #e69e6c; stroke: #ffffff; stroke-linejoin: miter"/>
   </g>
   <g id="patch_9">
    <path d="M 573.259338 176.956095 
L 573.259338 176.956095 
L 573.259338 194.707714 
L 573.259338 194.707714 
z
" clip-path="url(#pd840e34a2e)" style="fill: #75e000; opacity: 0.9; stroke: #75e000; stroke-linejoin: miter"/>
   </g>
   <g id="patch_10">
    <path d="M 573.259338 199.145619 
L 581.349479 199.145619 
L 581.349479 216.897238 
L 573.259338 216.897238 
z
" clip-path="url(#pd840e34a2e)" style="fill: #eeca8f; stroke: #ffffff; stroke-linejoin: miter"/>
   </g>
   <g id="patch_11">
    <path d="M 573.259338 221.335143 
L 597.688392 221.335143 
L 597.688392 239.086762 
L 573.259338 239.086762 
z
" clip-path="url(#pd840e34a2e)" style="fill: #f1dca1; stroke: #ffffff; stroke-linejoin: miter"/>
   </g>
   <g id="patch_12">
    <path d="M 573.259338 243.524667 
L 622.751967 243.524667 
L 622.751967 261.276286 
L 573.259338 261.276286 
z
" clip-path="url(#pd840e34a2e)" style="fill: #e00700; opacity: 0.9; stroke: #e00700; stroke-linejoin: miter"/>
   </g>
   <g id="patch_13">
    <path d="M 573.259338 265.71419 
L 629.890327 265.71419 
L 629.890327 283.46581 
L 573.259338 283.46581 
z
" clip-path="url(#pd840e34a2e)" style="fill: #f7f7c8; stroke: #ffffff; stroke-linejoin: miter"/>
   </g>
   <g id="patch_14">
    <path d="M 573.259338 287.903714 
L 643.691156 287.903714 
L 643.691156 305.655333 
L 573.259338 305.655333 
z
" clip-path="url(#pd840e34a2e)" style="fill: #eff5dd; stroke: #ffffff; stroke-linejoin: miter"/>
   </g>
   <g id="patch_15">
    <path d="M 573.259338 310.093238 
L 665.582127 310.093238 
L 665.582127 327.844857 
L 573.259338 327.844857 
z
" clip-path="url(#pd840e34a2e)" style="fill: #e5f2f1; stroke: #ffffff; stroke-linejoin: miter"/>
   </g>
   <g id="patch_16">
    <path d="M 573.259338 332.282762 
L 671.927336 332.282762 
L 671.927336 350.034381 
L 573.259338 350.034381 
z
" clip-path="url(#pd840e34a2e)" style="fill: #d2e7ee; stroke: #ffffff; stroke-linejoin: miter"/>
   </g>
   <g id="patch_17">
    <path d="M 573.259338 354.472286 
L 689.69392 354.472286 
L 689.69392 372.223905 
L 573.259338 372.223905 
z
" clip-path="url(#pd840e34a2e)" style="fill: #e07a00; opacity: 0.9; stroke: #e07a00; stroke-linejoin: miter"/>
   </g>
   <g id="patch_18">
    <path d="M 573.259338 376.66181 
L 693.342416 376.66181 
L 693.342416 394.413429 
L 573.259338 394.413429 
z
" clip-path="url(#pd840e34a2e)" style="fill: #a4c9d9; stroke: #ffffff; stroke-linejoin: miter"/>
   </g>
   <g id="patch_19">
    <path d="M 573.259338 398.851333 
L 771.547115 398.851333 
L 771.547115 416.602952 
L 573.259338 416.602952 
z
" clip-path="url(#pd840e34a2e)" style="fill: #8eb6cd; stroke: #ffffff; stroke-linejoin: miter"/>
   </g>
   <g id="patch_20">
    <path d="M 573.259338 421.040857 
L 775.830131 421.040857 
L 775.830131 438.792476 
L 573.259338 438.792476 
z
" clip-path="url(#pd840e34a2e)" style="fill: #c200e0; opacity: 0.9; stroke: #c200e0; stroke-linejoin: miter"/>
   </g>
   <g id="patch_21">
    <path d="M 573.259338 443.230381 
L 786.299725 443.230381 
L 786.299725 460.982 
L 573.259338 460.982 
z
" clip-path="url(#pd840e34a2e)" style="fill: #6288b1; stroke: #ffffff; stroke-linejoin: miter"/>
   </g>
   <g id="patch_22">
    <path d="M 573.259338 465.419905 
L 789.63096 465.419905 
L 789.63096 483.171524 
L 573.259338 483.171524 
z
" clip-path="url(#pd840e34a2e)" style="fill: #5172a3; stroke: #ffffff; stroke-linejoin: miter"/>
   </g>
   <g id="patch_23">
    <path d="M 573.259338 487.609429 
L 1088.807557 487.609429 
L 1088.807557 505.361048 
L 573.259338 505.361048 
z
" clip-path="url(#pd840e34a2e)" style="fill: #475895; stroke: #ffffff; stroke-linejoin: miter"/>
   </g>
   <g id="line2d_7">
    <path clip-path="url(#pd840e34a2e)" style="fill: none; stroke: #424242; stroke-width: 2.25; stroke-linecap: round"/>
   </g>
   <g id="line2d_8">
    <path clip-path="url(#pd840e34a2e)" style="fill: none; stroke: #424242; stroke-width: 2.25; stroke-linecap: round"/>
   </g>
   <g id="line2d_9">
    <path clip-path="url(#pd840e34a2e)" style="fill: none; stroke: #424242; stroke-width: 2.25; stroke-linecap: round"/>
   </g>
   <g id="line2d_10">
    <path clip-path="url(#pd840e34a2e)" style="fill: none; stroke: #424242; stroke-width: 2.25; stroke-linecap: round"/>
   </g>
   <g id="line2d_11">
    <path clip-path="url(#pd840e34a2e)" style="fill: none; stroke: #424242; stroke-width: 2.25; stroke-linecap: round"/>
   </g>
   <g id="line2d_12">
    <path clip-path="url(#pd840e34a2e)" style="fill: none; stroke: #424242; stroke-width: 2.25; stroke-linecap: round"/>
   </g>
   <g id="line2d_13">
    <path clip-path="url(#pd840e34a2e)" style="fill: none; stroke: #424242; stroke-width: 2.25; stroke-linecap: round"/>
   </g>
   <g id="line2d_14">
    <path clip-path="url(#pd840e34a2e)" style="fill: none; stroke: #424242; stroke-width: 2.25; stroke-linecap: round"/>
   </g>
   <g id="line2d_15">
    <path clip-path="url(#pd840e34a2e)" style="fill: none; stroke: #424242; stroke-width: 2.25; stroke-linecap: round"/>
   </g>
   <g id="line2d_16">
    <path clip-path="url(#pd840e34a2e)" style="fill: none; stroke: #424242; stroke-width: 2.25; stroke-linecap: round"/>
   </g>
   <g id="line2d_17">
    <path clip-path="url(#pd840e34a2e)" style="fill: none; stroke: #424242; stroke-width: 2.25; stroke-linecap: round"/>
   </g>
   <g id="line2d_18">
    <path clip-path="url(#pd840e34a2e)" style="fill: none; stroke: #424242; stroke-width: 2.25; stroke-linecap: round"/>
   </g>
   <g id="line2d_19">
    <path clip-path="url(#pd840e34a2e)" style="fill: none; stroke: #424242; stroke-width: 2.25; stroke-linecap: round"/>
   </g>
   <g id="line2d_20">
    <path clip-path="url(#pd840e34a2e)" style="fill: none; stroke: #424242; stroke-width: 2.25; stroke-linecap: round"/>
   </g>
   <g id="line2d_21">
    <path clip-path="url(#pd840e34a2e)" style="fill: none; stroke: #424242; stroke-width: 2.25; stroke-linecap: round"/>
   </g>
   <g id="line2d_22">
    <path clip-path="url(#pd840e34a2e)" style="fill: none; stroke: #424242; stroke-width: 2.25; stroke-linecap: round"/>
   </g>
   <g id="line2d_23">
    <path clip-path="url(#pd840e34a2e)" style="fill: none; stroke: #424242; stroke-width: 2.25; stroke-linecap: round"/>
   </g>
   <g id="line2d_24">
    <path clip-path="url(#pd840e34a2e)" style="fill: none; stroke: #424242; stroke-width: 2.25; stroke-linecap: round"/>
   </g>
   <g id="line2d_25">
    <path clip-path="url(#pd840e34a2e)" style="fill: none; stroke: #424242; stroke-width: 2.25; stroke-linecap: round"/>
   </g>
   <g id="line2d_26">
    <path clip-path="url(#pd840e34a2e)" style="fill: none; stroke: #424242; stroke-width: 2.25; stroke-linecap: round"/>
   </g>
   <g id="line2d_27">
    <path clip-path="url(#pd840e34a2e)" style="fill: none; stroke: #424242; stroke-width: 2.25; stroke-linecap: round"/>
   </g>
   <g id="patch_24">
    <path d="M 152.064375 507.58 
L 152.064375 41.6 
" style="fill: none; stroke: #ffffff; stroke-width: 1.25; stroke-linejoin: miter; stroke-linecap: square"/>
   </g>
   <g id="patch_25">
    <path d="M 1133.414375 507.58 
L 1133.414375 41.6 
" style="fill: none; stroke: #ffffff; stroke-width: 1.25; stroke-linejoin: miter; stroke-linecap: square"/>
   </g>
   <g id="patch_26">
    <path d="M 152.064375 507.58 
L 1133.414375 507.58 
" style="fill: none; stroke: #ffffff; stroke-width: 1.25; stroke-linejoin: miter; stroke-linecap: square"/>
   </g>
   <g id="patch_27">
    <path d="M 152.064375 41.6 
L 1133.414375 41.6 
" style="fill: none; stroke: #ffffff; stroke-width: 1.25; stroke-linejoin: miter; stroke-linecap: square"/>
   </g>
   <g id="text_30">
    <!-- 0.5% -->
    <g style="fill: #262626" transform="translate(586.108386 210.881429) scale(0.11 -0.11)">
     <defs>
      <path id="Outfit-Medium-30" d="M 2106 -64 
Q 1600 -64 1181 221 
Q 762 506 512 1024 
Q 262 1542 262 2246 
Q 262 2950 508 3465 
Q 755 3981 1171 4262 
Q 1587 4544 2093 4544 
Q 2605 4544 3021 4262 
Q 3437 3981 3683 3465 
Q 3930 2950 3930 2240 
Q 3930 1536 3683 1017 
Q 3437 499 3024 217 
Q 2611 -64 2106 -64 
z
M 2093 627 
Q 2426 627 2669 806 
Q 2912 986 3049 1344 
Q 3187 1702 3187 2246 
Q 3187 2784 3049 3142 
Q 2912 3501 2665 3677 
Q 2419 3853 2093 3853 
Q 1766 3853 1520 3677 
Q 1274 3501 1139 3145 
Q 1005 2790 1005 2246 
Q 1005 1702 1139 1344 
Q 1274 986 1520 806 
Q 1766 627 2093 627 
z
" transform="scale(0.015625)"/>
      <path id="Outfit-Medium-2e" d="M 928 -64 
Q 723 -64 592 73 
Q 461 211 461 410 
Q 461 614 592 748 
Q 723 883 928 883 
Q 1133 883 1264 748 
Q 1395 614 1395 410 
Q 1395 211 1264 73 
Q 1133 -64 928 -64 
z
" transform="scale(0.015625)"/>
      <path id="Outfit-Medium-35" d="M 1581 -64 
Q 1114 -64 749 99 
Q 384 262 134 576 
L 634 1075 
Q 768 870 1014 748 
Q 1261 627 1568 627 
Q 1850 627 2061 729 
Q 2272 832 2393 1024 
Q 2515 1216 2515 1478 
Q 2515 1754 2396 1936 
Q 2278 2118 2083 2211 
Q 1888 2304 1664 2304 
Q 1408 2304 1206 2246 
Q 1005 2189 813 2042 
L 832 2502 
Q 934 2637 1068 2723 
Q 1203 2810 1382 2854 
Q 1562 2899 1805 2899 
Q 2278 2899 2601 2700 
Q 2925 2502 3091 2172 
Q 3258 1843 3258 1440 
Q 3258 1005 3043 665 
Q 2829 326 2451 131 
Q 2074 -64 1581 -64 
z
M 813 2042 
L 410 2445 
L 608 4480 
L 1280 4480 
L 1050 2362 
L 813 2042 
z
M 736 3821 
L 608 4480 
L 3008 4480 
L 3008 3821 
L 736 3821 
z
" transform="scale(0.015625)"/>
     </defs>
     <use xlink:href="#Outfit-Medium-30"/>
     <use xlink:href="#Outfit-Medium-2e" transform="translate(65.499985 0)"/>
     <use xlink:href="#Outfit-Medium-35" transform="translate(94.499969 0)"/>
     <use xlink:href="#Outfit-Medium-25" transform="translate(148.999954 0)"/>
    </g>
   </g>
   <g id="text_31">
    <!-- 1.5% -->
    <g style="fill: #262626" transform="translate(602.447299 233.070952) scale(0.11 -0.11)">
     <defs>
      <path id="Outfit-Medium-31" d="M 1062 0 
L 1062 4480 
L 1786 4480 
L 1786 0 
L 1062 0 
z
M 166 3821 
L 166 4480 
L 1722 4480 
L 1722 3821 
L 166 3821 
z
" transform="scale(0.015625)"/>
     </defs>
     <use xlink:href="#Outfit-Medium-31"/>
     <use xlink:href="#Outfit-Medium-2e" transform="translate(35.499985 0)"/>
     <use xlink:href="#Outfit-Medium-35" transform="translate(64.499969 0)"/>
     <use xlink:href="#Outfit-Medium-25" transform="translate(118.999954 0)"/>
    </g>
   </g>
   <g id="text_32">
    <!-- 3.1% -->
    <g style="fill: #262626" transform="translate(627.510874 255.260476) scale(0.11 -0.11)">
     <defs>
      <path id="Outfit-Medium-33" d="M 1574 -64 
Q 1126 -64 764 99 
Q 403 262 154 576 
L 653 1075 
Q 787 870 1030 748 
Q 1274 627 1562 627 
Q 1837 627 2035 729 
Q 2234 832 2346 1017 
Q 2458 1203 2458 1446 
Q 2458 1702 2346 1881 
Q 2234 2061 2026 2160 
Q 1818 2259 1523 2259 
Q 1408 2259 1286 2243 
Q 1165 2227 1069 2195 
L 1395 2618 
Q 1530 2669 1680 2704 
Q 1830 2739 1971 2739 
Q 2317 2739 2595 2572 
Q 2874 2406 3037 2108 
Q 3200 1811 3200 1408 
Q 3200 973 2995 640 
Q 2790 307 2425 121 
Q 2061 -64 1574 -64 
z
M 1069 2195 
L 1069 2630 
L 2266 4026 
L 3149 4045 
L 1901 2611 
L 1069 2195 
z
M 378 3821 
L 378 4480 
L 3149 4480 
L 3149 4045 
L 2515 3821 
L 378 3821 
z
" transform="scale(0.015625)"/>
     </defs>
     <use xlink:href="#Outfit-Medium-33"/>
     <use xlink:href="#Outfit-Medium-2e" transform="translate(53.999985 0)"/>
     <use xlink:href="#Outfit-Medium-31" transform="translate(82.999969 0)"/>
     <use xlink:href="#Outfit-Medium-25" transform="translate(118.499954 0)"/>
    </g>
   </g>
   <g id="text_33">
    <!-- 3.6% -->
    <g style="fill: #262626" transform="translate(634.649234 277.45) scale(0.11 -0.11)">
     <defs>
      <path id="Outfit-Medium-36" d="M 1798 -64 
Q 1350 -64 992 144 
Q 634 352 426 704 
Q 218 1056 218 1485 
Q 218 2099 646 2726 
L 1869 4480 
L 2720 4480 
L 1414 2643 
L 1146 2483 
Q 1210 2630 1309 2736 
Q 1408 2842 1571 2899 
Q 1734 2957 1978 2957 
Q 2368 2957 2685 2774 
Q 3002 2592 3194 2269 
Q 3386 1946 3386 1510 
Q 3386 1075 3174 716 
Q 2963 358 2601 147 
Q 2240 -64 1798 -64 
z
M 1798 627 
Q 2042 627 2234 742 
Q 2426 858 2538 1059 
Q 2650 1261 2650 1510 
Q 2650 1760 2538 1958 
Q 2426 2157 2234 2269 
Q 2042 2381 1798 2381 
Q 1555 2381 1363 2265 
Q 1171 2150 1062 1955 
Q 954 1760 954 1510 
Q 954 1261 1062 1059 
Q 1171 858 1363 742 
Q 1555 627 1798 627 
z
" transform="scale(0.015625)"/>
     </defs>
     <use xlink:href="#Outfit-Medium-33"/>
     <use xlink:href="#Outfit-Medium-2e" transform="translate(53.999985 0)"/>
     <use xlink:href="#Outfit-Medium-36" transform="translate(82.999969 0)"/>
     <use xlink:href="#Outfit-Medium-25" transform="translate(139.199966 0)"/>
    </g>
   </g>
   <g id="text_34">
    <!-- 4.4% -->
    <g style="fill: #262626" transform="translate(648.450063 299.639524) scale(0.11 -0.11)">
     <defs>
      <path id="Outfit-Medium-34" d="M 179 1600 
L 1773 4480 
L 2605 4480 
L 973 1600 
L 179 1600 
z
M 179 1152 
L 179 1600 
L 493 1811 
L 3654 1811 
L 3654 1152 
L 179 1152 
z
M 2304 0 
L 2304 2931 
L 3027 2931 
L 3027 0 
L 2304 0 
z
" transform="scale(0.015625)"/>
     </defs>
     <use xlink:href="#Outfit-Medium-34"/>
     <use xlink:href="#Outfit-Medium-2e" transform="translate(59.899994 0)"/>
     <use xlink:href="#Outfit-Medium-34" transform="translate(88.899979 0)"/>
     <use xlink:href="#Outfit-Medium-25" transform="translate(148.799973 0)"/>
    </g>
   </g>
   <g id="text_35">
    <!-- 5.8% -->
    <g style="fill: #262626" transform="translate(670.341033 321.829048) scale(0.11 -0.11)">
     <defs>
      <path id="Outfit-Medium-38" d="M 1754 -64 
Q 1293 -64 953 102 
Q 614 269 425 566 
Q 237 864 237 1242 
Q 237 1542 355 1795 
Q 474 2048 701 2227 
Q 928 2406 1242 2483 
L 1222 2278 
Q 966 2349 790 2509 
Q 614 2669 524 2886 
Q 435 3104 435 3341 
Q 435 3699 604 3971 
Q 774 4243 1075 4396 
Q 1376 4550 1754 4550 
Q 2138 4550 2435 4396 
Q 2733 4243 2902 3971 
Q 3072 3699 3072 3341 
Q 3072 3104 2982 2886 
Q 2893 2669 2720 2509 
Q 2547 2349 2285 2278 
L 2266 2483 
Q 2586 2406 2810 2227 
Q 3034 2048 3152 1795 
Q 3270 1542 3270 1242 
Q 3270 864 3084 566 
Q 2899 269 2556 102 
Q 2214 -64 1754 -64 
z
M 1754 602 
Q 1990 602 2172 698 
Q 2355 794 2460 960 
Q 2566 1126 2566 1338 
Q 2566 1555 2460 1718 
Q 2355 1882 2172 1978 
Q 1990 2074 1754 2074 
Q 1517 2074 1334 1978 
Q 1152 1882 1046 1718 
Q 941 1555 941 1338 
Q 941 1126 1046 960 
Q 1152 794 1334 698 
Q 1517 602 1754 602 
z
M 1754 2650 
Q 2035 2650 2214 2829 
Q 2394 3008 2394 3290 
Q 2394 3571 2214 3747 
Q 2035 3923 1754 3923 
Q 1478 3923 1296 3747 
Q 1114 3571 1114 3290 
Q 1114 3008 1296 2829 
Q 1478 2650 1754 2650 
z
" transform="scale(0.015625)"/>
     </defs>
     <use xlink:href="#Outfit-Medium-35"/>
     <use xlink:href="#Outfit-Medium-2e" transform="translate(54.499985 0)"/>
     <use xlink:href="#Outfit-Medium-38" transform="translate(83.499969 0)"/>
     <use xlink:href="#Outfit-Medium-25" transform="translate(138.299957 0)"/>
    </g>
   </g>
   <g id="text_36">
    <!-- 6.2% -->
    <g style="fill: #262626" transform="translate(676.686242 344.018571) scale(0.11 -0.11)">
     <defs>
      <path id="Outfit-Medium-32" d="M 179 435 
L 1830 2189 
Q 2035 2406 2163 2579 
Q 2291 2752 2348 2905 
Q 2406 3059 2406 3219 
Q 2406 3520 2211 3689 
Q 2016 3859 1715 3859 
Q 1395 3859 1152 3699 
Q 909 3539 717 3200 
L 205 3622 
Q 467 4077 851 4310 
Q 1235 4544 1741 4544 
Q 2157 4544 2470 4377 
Q 2784 4211 2957 3913 
Q 3130 3616 3130 3226 
Q 3130 2944 3062 2723 
Q 2995 2502 2835 2281 
Q 2675 2061 2394 1766 
L 1126 454 
L 179 435 
z
M 179 0 
L 179 435 
L 813 659 
L 3219 659 
L 3219 0 
L 179 0 
z
" transform="scale(0.015625)"/>
     </defs>
     <use xlink:href="#Outfit-Medium-36"/>
     <use xlink:href="#Outfit-Medium-2e" transform="translate(56.199997 0)"/>
     <use xlink:href="#Outfit-Medium-32" transform="translate(85.199982 0)"/>
     <use xlink:href="#Outfit-Medium-25" transform="translate(139.299973 0)"/>
    </g>
   </g>
   <g id="text_37">
    <!-- 7.3% -->
    <g style="fill: #262626" transform="translate(694.452827 366.208095) scale(0.11 -0.11)">
     <defs>
      <path id="Outfit-Medium-37" d="M 806 0 
L 2438 4032 
L 3168 4032 
L 1574 0 
L 806 0 
z
M 166 3821 
L 166 4480 
L 3168 4480 
L 3168 4032 
L 2854 3821 
L 166 3821 
z
" transform="scale(0.015625)"/>
     </defs>
     <use xlink:href="#Outfit-Medium-37"/>
     <use xlink:href="#Outfit-Medium-2e" transform="translate(52.199997 0)"/>
     <use xlink:href="#Outfit-Medium-33" transform="translate(81.199982 0)"/>
     <use xlink:href="#Outfit-Medium-25" transform="translate(135.199966 0)"/>
    </g>
   </g>
   <g id="text_38">
    <!-- 7.6% -->
    <g style="fill: #262626" transform="translate(698.101322 388.397619) scale(0.11 -0.11)">
     <use xlink:href="#Outfit-Medium-37"/>
     <use xlink:href="#Outfit-Medium-2e" transform="translate(52.199997 0)"/>
     <use xlink:href="#Outfit-Medium-36" transform="translate(81.199982 0)"/>
     <use xlink:href="#Outfit-Medium-25" transform="translate(137.399979 0)"/>
    </g>
   </g>
   <g id="text_39">
    <!-- 12.5% -->
    <g style="fill: #262626" transform="translate(776.306021 410.587143) scale(0.11 -0.11)">
     <use xlink:href="#Outfit-Medium-31"/>
     <use xlink:href="#Outfit-Medium-32" transform="translate(35.499985 0)"/>
     <use xlink:href="#Outfit-Medium-2e" transform="translate(89.599976 0)"/>
     <use xlink:href="#Outfit-Medium-35" transform="translate(118.59996 0)"/>
     <use xlink:href="#Outfit-Medium-25" transform="translate(173.099945 0)"/>
    </g>
   </g>
   <g id="text_40">
    <!-- 12.8% -->
    <g style="fill: #262626" transform="translate(780.589037 432.776667) scale(0.11 -0.11)">
     <use xlink:href="#Outfit-Medium-31"/>
     <use xlink:href="#Outfit-Medium-32" transform="translate(35.499985 0)"/>
     <use xlink:href="#Outfit-Medium-2e" transform="translate(89.599976 0)"/>
     <use xlink:href="#Outfit-Medium-38" transform="translate(118.59996 0)"/>
     <use xlink:href="#Outfit-Medium-25" transform="translate(173.399948 0)"/>
    </g>
   </g>
   <g id="text_41">
    <!-- 13.4% -->
    <g style="fill: #262626" transform="translate(791.058632 454.96619) scale(0.11 -0.11)">
     <use xlink:href="#Outfit-Medium-31"/>
     <use xlink:href="#Outfit-Medium-33" transform="translate(35.499985 0)"/>
     <use xlink:href="#Outfit-Medium-2e" transform="translate(89.499969 0)"/>
     <use xlink:href="#Outfit-Medium-34" transform="translate(118.499954 0)"/>
     <use xlink:href="#Outfit-Medium-25" transform="translate(178.399948 0)"/>
    </g>
   </g>
   <g id="text_42">
    <!-- 13.6% -->
    <g style="fill: #262626" transform="translate(794.389866 477.155714) scale(0.11 -0.11)">
     <use xlink:href="#Outfit-Medium-31"/>
     <use xlink:href="#Outfit-Medium-33" transform="translate(35.499985 0)"/>
     <use xlink:href="#Outfit-Medium-2e" transform="translate(89.499969 0)"/>
     <use xlink:href="#Outfit-Medium-36" transform="translate(118.499954 0)"/>
     <use xlink:href="#Outfit-Medium-25" transform="translate(174.699951 0)"/>
    </g>
   </g>
   <g id="text_43">
    <!-- 32.5% -->
    <g style="fill: #262626" transform="translate(1093.566463 499.345238) scale(0.11 -0.11)">
     <use xlink:href="#Outfit-Medium-33"/>
     <use xlink:href="#Outfit-Medium-32" transform="translate(53.999985 0)"/>
     <use xlink:href="#Outfit-Medium-2e" transform="translate(108.099976 0)"/>
     <use xlink:href="#Outfit-Medium-35" transform="translate(137.09996 0)"/>
     <use xlink:href="#Outfit-Medium-25" transform="translate(191.599945 0)"/>
    </g>
   </g>
   <g id="text_44">
    <!-- Growth in Women Representation in Parliament – Last 10 Years -->
    <g style="fill: #262626" transform="translate(359.489375 21.6) scale(0.2 -0.2)">
     <defs>
      <path id="Outfit-Medium-47" d="M 2509 -64 
Q 2048 -64 1638 115 
Q 1229 294 921 611 
Q 614 928 438 1347 
Q 262 1766 262 2246 
Q 262 2726 438 3142 
Q 614 3558 924 3875 
Q 1235 4192 1654 4368 
Q 2074 4544 2560 4544 
Q 3091 4544 3545 4339 
Q 4000 4134 4307 3757 
L 3808 3258 
Q 3610 3539 3277 3689 
Q 2944 3840 2560 3840 
Q 2099 3840 1750 3638 
Q 1402 3437 1210 3078 
Q 1018 2720 1018 2246 
Q 1018 1773 1213 1411 
Q 1408 1050 1741 845 
Q 2074 640 2496 640 
Q 2944 640 3267 803 
Q 3590 966 3763 1289 
Q 3936 1613 3936 2086 
L 4397 1754 
L 2483 1754 
L 2483 2426 
L 4698 2426 
L 4698 2323 
Q 4698 1523 4413 992 
Q 4128 461 3635 198 
Q 3142 -64 2509 -64 
z
" transform="scale(0.015625)"/>
      <path id="Outfit-Medium-77" d="M 1286 0 
L 51 3072 
L 781 3072 
L 1613 838 
L 1395 832 
L 2208 3072 
L 2618 3072 
L 3430 832 
L 3213 838 
L 4045 3072 
L 4774 3072 
L 3539 0 
L 3130 0 
L 2298 2125 
L 2528 2125 
L 1696 0 
L 1286 0 
z
" transform="scale(0.015625)"/>
      <path id="Outfit-Medium-68" d="M 2496 0 
L 2496 1773 
Q 2496 2080 2301 2278 
Q 2106 2477 1798 2477 
Q 1594 2477 1434 2387 
Q 1274 2298 1184 2138 
Q 1094 1978 1094 1773 
L 819 1926 
Q 819 2278 972 2550 
Q 1126 2822 1398 2979 
Q 1670 3136 2010 3136 
Q 2355 3136 2624 2982 
Q 2893 2829 3046 2557 
Q 3200 2285 3200 1926 
L 3200 0 
L 2496 0 
z
M 390 0 
L 390 4608 
L 1094 4608 
L 1094 0 
L 390 0 
z
" transform="scale(0.015625)"/>
      <path id="Outfit-Medium-52" d="M 992 1901 
L 992 2509 
L 2125 2509 
Q 2464 2509 2653 2685 
Q 2842 2861 2842 3174 
Q 2842 3456 2656 3648 
Q 2470 3840 2131 3840 
L 992 3840 
L 992 4480 
L 2163 4480 
Q 2586 4480 2906 4310 
Q 3226 4141 3402 3849 
Q 3578 3558 3578 3187 
Q 3578 2797 3402 2509 
Q 3226 2221 2906 2061 
Q 2586 1901 2163 1901 
L 992 1901 
z
M 486 0 
L 486 4480 
L 1222 4480 
L 1222 0 
L 486 0 
z
M 2944 0 
L 1376 1946 
L 2061 2195 
L 3872 0 
L 2944 0 
z
" transform="scale(0.015625)"/>
      <path id="Outfit-Medium-70" d="M 2035 -64 
Q 1683 -64 1408 86 
Q 1133 237 976 499 
Q 819 762 819 1094 
L 819 1978 
Q 819 2310 979 2572 
Q 1139 2835 1414 2985 
Q 1690 3136 2035 3136 
Q 2451 3136 2787 2921 
Q 3123 2707 3318 2345 
Q 3514 1984 3514 1530 
Q 3514 1082 3318 720 
Q 3123 358 2787 147 
Q 2451 -64 2035 -64 
z
M 390 -1280 
L 390 3072 
L 1094 3072 
L 1094 2246 
L 973 1498 
L 1094 755 
L 1094 -1280 
L 390 -1280 
z
M 1920 602 
Q 2176 602 2371 720 
Q 2566 838 2678 1049 
Q 2790 1261 2790 1536 
Q 2790 1811 2678 2022 
Q 2566 2234 2371 2352 
Q 2176 2470 1920 2470 
Q 1664 2470 1465 2352 
Q 1267 2234 1158 2022 
Q 1050 1811 1050 1536 
Q 1050 1261 1158 1049 
Q 1267 838 1465 720 
Q 1664 602 1920 602 
z
" transform="scale(0.015625)"/>
      <path id="Outfit-Medium-50" d="M 992 1690 
L 992 2330 
L 2112 2330 
Q 2342 2330 2518 2422 
Q 2694 2515 2796 2684 
Q 2899 2854 2899 3085 
Q 2899 3315 2796 3484 
Q 2694 3654 2518 3747 
Q 2342 3840 2112 3840 
L 992 3840 
L 992 4480 
L 2150 4480 
Q 2573 4480 2909 4307 
Q 3245 4134 3440 3820 
Q 3635 3507 3635 3085 
Q 3635 2662 3440 2348 
Q 3245 2035 2909 1862 
Q 2573 1690 2150 1690 
L 992 1690 
z
M 486 0 
L 486 4480 
L 1222 4480 
L 1222 0 
L 486 0 
z
" transform="scale(0.015625)"/>
      <path id="Outfit-Medium-6c" d="M 390 0 
L 390 4608 
L 1094 4608 
L 1094 0 
L 390 0 
z
" transform="scale(0.015625)"/>
      <path id="Outfit-Medium-2013" d="M 390 1331 
L 390 1933 
L 3149 1933 
L 3149 1331 
L 390 1331 
z
" transform="scale(0.015625)"/>
      <path id="Outfit-Medium-4c" d="M 486 0 
L 486 4480 
L 1222 4480 
L 1222 0 
L 486 0 
z
M 992 0 
L 992 672 
L 3334 672 
L 3334 0 
L 992 0 
z
" transform="scale(0.015625)"/>
      <path id="Outfit-Medium-59" d="M 1888 1792 
L 141 4480 
L 992 4480 
L 2355 2336 
L 1958 2336 
L 3322 4480 
L 4160 4480 
L 2400 1792 
L 1888 1792 
z
M 1786 0 
L 1786 2253 
L 2522 2253 
L 2522 0 
L 1786 0 
z
" transform="scale(0.015625)"/>
     </defs>
     <use xlink:href="#Outfit-Medium-47"/>
     <use xlink:href="#Outfit-Medium-72" transform="translate(77.199982 0)"/>
     <use xlink:href="#Outfit-Medium-6f" transform="translate(119.699966 0)"/>
     <use xlink:href="#Outfit-Medium-77" transform="translate(175.999954 0)"/>
     <use xlink:href="#Outfit-Medium-74" transform="translate(251.399948 0)"/>
     <use xlink:href="#Outfit-Medium-68" transform="translate(289.199936 0)"/>
     <use xlink:href="#Outfit-Medium-20" transform="translate(344.299927 0)"/>
     <use xlink:href="#Outfit-Medium-69" transform="translate(364.299911 0)"/>
     <use xlink:href="#Outfit-Medium-6e" transform="translate(387.699905 0)"/>
     <use xlink:href="#Outfit-Medium-20" transform="translate(442.799896 0)"/>
     <use xlink:href="#Outfit-Medium-57" transform="translate(462.799881 0)"/>
     <use xlink:href="#Outfit-Medium-6f" transform="translate(560.999863 0)"/>
     <use xlink:href="#Outfit-Medium-6d" transform="translate(617.29985 0)"/>
     <use xlink:href="#Outfit-Medium-65" transform="translate(703.399841 0)"/>
     <use xlink:href="#Outfit-Medium-6e" transform="translate(756.799835 0)"/>
     <use xlink:href="#Outfit-Medium-20" transform="translate(811.899826 0)"/>
     <use xlink:href="#Outfit-Medium-52" transform="translate(831.899811 0)"/>
     <use xlink:href="#Outfit-Medium-65" transform="translate(894.699799 0)"/>
     <use xlink:href="#Outfit-Medium-70" transform="translate(948.099792 0)"/>
     <use xlink:href="#Outfit-Medium-72" transform="translate(1006.099777 0)"/>
     <use xlink:href="#Outfit-Medium-65" transform="translate(1048.599762 0)"/>
     <use xlink:href="#Outfit-Medium-73" transform="translate(1101.999756 0)"/>
     <use xlink:href="#Outfit-Medium-65" transform="translate(1144.999741 0)"/>
     <use xlink:href="#Outfit-Medium-6e" transform="translate(1198.399734 0)"/>
     <use xlink:href="#Outfit-Medium-74" transform="translate(1253.499725 0)"/>
     <use xlink:href="#Outfit-Medium-61" transform="translate(1291.299713 0)"/>
     <use xlink:href="#Outfit-Medium-74" transform="translate(1349.299698 0)"/>
     <use xlink:href="#Outfit-Medium-69" transform="translate(1387.099686 0)"/>
     <use xlink:href="#Outfit-Medium-6f" transform="translate(1410.49968 0)"/>
     <use xlink:href="#Outfit-Medium-6e" transform="translate(1466.799667 0)"/>
     <use xlink:href="#Outfit-Medium-20" transform="translate(1521.899658 0)"/>
     <use xlink:href="#Outfit-Medium-69" transform="translate(1541.899643 0)"/>
     <use xlink:href="#Outfit-Medium-6e" transform="translate(1565.299637 0)"/>
     <use xlink:href="#Outfit-Medium-20" transform="translate(1620.399628 0)"/>
     <use xlink:href="#Outfit-Medium-50" transform="translate(1640.399612 0)"/>
     <use xlink:href="#Outfit-Medium-61" transform="translate(1700.799606 0)"/>
     <use xlink:href="#Outfit-Medium-72" transform="translate(1758.799591 0)"/>
     <use xlink:href="#Outfit-Medium-6c" transform="translate(1801.299576 0)"/>
     <use xlink:href="#Outfit-Medium-69" transform="translate(1824.499573 0)"/>
     <use xlink:href="#Outfit-Medium-61" transform="translate(1847.899567 0)"/>
     <use xlink:href="#Outfit-Medium-6d" transform="translate(1905.899551 0)"/>
     <use xlink:href="#Outfit-Medium-65" transform="translate(1991.999542 0)"/>
     <use xlink:href="#Outfit-Medium-6e" transform="translate(2045.399536 0)"/>
     <use xlink:href="#Outfit-Medium-74" transform="translate(2100.499527 0)"/>
     <use xlink:href="#Outfit-Medium-20" transform="translate(2138.299515 0)"/>
     <use xlink:href="#Outfit-Medium-2013" transform="translate(2158.2995 0)"/>
     <use xlink:href="#Outfit-Medium-20" transform="translate(2213.599487 0)"/>
     <use xlink:href="#Outfit-Medium-4c" transform="translate(2233.599472 0)"/>
     <use xlink:href="#Outfit-Medium-61" transform="translate(2288.599457 0)"/>
     <use xlink:href="#Outfit-Medium-73" transform="translate(2346.599442 0)"/>
     <use xlink:href="#Outfit-Medium-74" transform="translate(2389.599426 0)"/>
     <use xlink:href="#Outfit-Medium-20" transform="translate(2427.399414 0)"/>
     <use xlink:href="#Outfit-Medium-31" transform="translate(2447.399399 0)"/>
     <use xlink:href="#Outfit-Medium-30" transform="translate(2482.899384 0)"/>
     <use xlink:href="#Outfit-Medium-20" transform="translate(2548.399368 0)"/>
     <use xlink:href="#Outfit-Medium-59" transform="translate(2568.399353 0)"/>
     <use xlink:href="#Outfit-Medium-65" transform="translate(2635.59935 0)"/>
     <use xlink:href="#Outfit-Medium-61" transform="translate(2688.999344 0)"/>
     <use xlink:href="#Outfit-Medium-72" transform="translate(2746.999329 0)"/>
     <use xlink:href="#Outfit-Medium-73" transform="translate(2789.499313 0)"/>
    </g>
   </g>
  </g>
 </g>
 <defs>
  <clipPath id="pd840e34a2e">
   <rect x="152.064375" y="41.6" width="981.35" height="465.98"/>
  </clipPath>
 </defs>
</svg>
