<?xml version="1.0" encoding="utf-8" standalone="no"?>
<!DOCTYPE svg PUBLIC "-//W3C//DTD SVG 1.1//EN"
  "http://www.w3.org/Graphics/SVG/1.1/DTD/svg11.dtd">
<svg xmlns:xlink="http://www.w3.org/1999/xlink" width="1138.579355pt" height="546.849105pt" viewBox="0 0 1138.579355 546.849105" xmlns="http://www.w3.org/2000/svg" version="1.1">
 <metadata>
  <rdf:RDF xmlns:dc="http://purl.org/dc/elements/1.1/" xmlns:cc="http://creativecommons.org/ns#" xmlns:rdf="http://www.w3.org/1999/02/22-rdf-syntax-ns#">
   <cc:Work>
    <dc:type rdf:resource="http://purl.org/dc/dcmitype/StillImage"/>
    <dc:date>2025-09-29T20:41:22.392187</dc:date>
    <dc:format>image/svg+xml</dc:format>
    <dc:creator>
     <cc:Agent>
      <dc:title>Matplotlib v3.10.0, https://matplotlib.org/</dc:title>
     </cc:Agent>
    </dc:creator>
   </cc:Work>
  </rdf:RDF>
 </metadata>
 <defs>
  <style type="text/css">*{stroke-linejoin: round; stroke-linecap: butt}</style>
 </defs>
 <g id="figure_1">
  <g id="patch_1">
   <path d="M 0 546.849105 
L 1138.579355 546.849105 
L 1138.579355 0 
L 0 0 
z
" style="fill: #ffffff"/>
  </g>
  <g id="axes_1">
   <g id="patch_2">
    <path d="M 56.979375 426.74225 
L 1129.346198 426.74225 
L 1129.346198 42.1 
L 56.979375 42.1 
z
" style="fill: #f8f9fa"/>
   </g>
   <g id="matplotlib.axis_1">
    <g id="xtick_1">
     <g id="line2d_1">
      <path d="M 214.043203 426.74225 
L 214.043203 42.1 
" clip-path="url(#pfcd5e60d8a)" style="fill: none; stroke: #d0d0d0; stroke-opacity: 0.3; stroke-width: 0.8; stroke-linecap: round"/>
     </g>
     <g id="text_1">
      <!-- 2000 -->
      <g style="fill: #262626" transform="translate(204.879541 465.867593) rotate(-45) scale(0.13 -0.13)">
       <defs>
        <path id="Outfit-Regular-32" d="M 211 365 
L 1850 2093 
Q 2099 2349 2240 2537 
Q 2381 2726 2441 2886 
Q 2502 3046 2502 3219 
Q 2502 3558 2284 3750 
Q 2067 3942 1722 3942 
Q 1382 3942 1126 3779 
Q 870 3616 672 3277 
L 250 3629 
Q 512 4064 883 4285 
Q 1254 4506 1741 4506 
Q 2150 4506 2454 4346 
Q 2758 4186 2924 3898 
Q 3091 3610 3091 3226 
Q 3091 2950 3024 2732 
Q 2957 2515 2787 2288 
Q 2618 2061 2317 1747 
L 992 384 
L 211 365 
z
M 211 0 
L 211 365 
L 723 538 
L 3194 538 
L 3194 0 
L 211 0 
z
" transform="scale(0.015625)"/>
        <path id="Outfit-Regular-30" d="M 2112 -64 
Q 1613 -64 1200 217 
Q 787 499 544 1014 
Q 301 1530 301 2227 
Q 301 2925 541 3437 
Q 781 3949 1190 4227 
Q 1600 4506 2093 4506 
Q 2598 4506 3008 4227 
Q 3418 3949 3658 3437 
Q 3898 2925 3898 2221 
Q 3898 1523 3658 1008 
Q 3418 493 3011 214 
Q 2605 -64 2112 -64 
z
M 2099 506 
Q 2451 506 2716 701 
Q 2982 896 3136 1280 
Q 3290 1664 3290 2227 
Q 3290 2790 3136 3171 
Q 2982 3552 2713 3747 
Q 2445 3942 2093 3942 
Q 1747 3942 1478 3747 
Q 1210 3552 1059 3171 
Q 909 2790 909 2227 
Q 909 1664 1059 1280 
Q 1210 896 1478 701 
Q 1747 506 2099 506 
z
" transform="scale(0.015625)"/>
       </defs>
       <use xlink:href="#Outfit-Regular-32"/>
       <use xlink:href="#Outfit-Regular-30" transform="translate(54.099991 0)"/>
       <use xlink:href="#Outfit-Regular-30" transform="translate(119.699982 0)"/>
       <use xlink:href="#Outfit-Regular-30" transform="translate(185.299973 0)"/>
      </g>
     </g>
    </g>
    <g id="xtick_2">
     <g id="line2d_2">
      <path d="M 394.576338 426.74225 
L 394.576338 42.1 
" clip-path="url(#pfcd5e60d8a)" style="fill: none; stroke: #d0d0d0; stroke-opacity: 0.3; stroke-width: 0.8; stroke-linecap: round"/>
     </g>
     <g id="text_2">
      <!-- 2005 -->
      <g style="fill: #262626" transform="translate(385.941238 464.810469) rotate(-45) scale(0.13 -0.13)">
       <defs>
        <path id="Outfit-Regular-35" d="M 1587 -64 
Q 1133 -64 777 99 
Q 422 262 179 576 
L 589 986 
Q 736 762 995 630 
Q 1254 499 1574 499 
Q 1875 499 2102 614 
Q 2330 730 2461 938 
Q 2592 1146 2592 1434 
Q 2592 1728 2464 1933 
Q 2336 2138 2121 2243 
Q 1907 2349 1651 2349 
Q 1389 2349 1174 2285 
Q 960 2221 768 2067 
L 774 2451 
Q 883 2586 1024 2669 
Q 1165 2752 1344 2797 
Q 1523 2842 1760 2842 
Q 2221 2842 2541 2650 
Q 2861 2458 3030 2131 
Q 3200 1805 3200 1402 
Q 3200 979 2992 646 
Q 2784 314 2419 125 
Q 2054 -64 1587 -64 
z
M 768 2067 
L 442 2394 
L 640 4442 
L 1190 4442 
L 966 2336 
L 768 2067 
z
M 762 3904 
L 640 4442 
L 2976 4442 
L 2976 3904 
L 762 3904 
z
" transform="scale(0.015625)"/>
       </defs>
       <use xlink:href="#Outfit-Regular-32"/>
       <use xlink:href="#Outfit-Regular-30" transform="translate(54.099991 0)"/>
       <use xlink:href="#Outfit-Regular-30" transform="translate(119.699982 0)"/>
       <use xlink:href="#Outfit-Regular-35" transform="translate(185.299973 0)"/>
      </g>
     </g>
    </g>
    <g id="xtick_3">
     <g id="line2d_3">
      <path d="M 575.109473 426.74225 
L 575.109473 42.1 
" clip-path="url(#pfcd5e60d8a)" style="fill: none; stroke: #d0d0d0; stroke-opacity: 0.3; stroke-width: 0.8; stroke-linecap: round"/>
     </g>
     <g id="text_3">
      <!-- 2010 -->
      <g style="fill: #262626" transform="translate(567.365604 463.028007) rotate(-45) scale(0.13 -0.13)">
       <defs>
        <path id="Outfit-Regular-31" d="M 1107 0 
L 1107 4442 
L 1702 4442 
L 1702 0 
L 1107 0 
z
M 198 3904 
L 198 4442 
L 1638 4442 
L 1638 3904 
L 198 3904 
z
" transform="scale(0.015625)"/>
       </defs>
       <use xlink:href="#Outfit-Regular-32"/>
       <use xlink:href="#Outfit-Regular-30" transform="translate(54.099991 0)"/>
       <use xlink:href="#Outfit-Regular-31" transform="translate(119.699982 0)"/>
       <use xlink:href="#Outfit-Regular-30" transform="translate(154.399979 0)"/>
      </g>
     </g>
    </g>
    <g id="xtick_4">
     <g id="line2d_4">
      <path d="M 755.642608 426.74225 
L 755.642608 42.1 
" clip-path="url(#pfcd5e60d8a)" style="fill: none; stroke: #d0d0d0; stroke-opacity: 0.3; stroke-width: 0.8; stroke-linecap: round"/>
     </g>
     <g id="text_4">
      <!-- 2015 -->
      <g style="fill: #262626" transform="translate(748.427301 461.970883) rotate(-45) scale(0.13 -0.13)">
       <use xlink:href="#Outfit-Regular-32"/>
       <use xlink:href="#Outfit-Regular-30" transform="translate(54.099991 0)"/>
       <use xlink:href="#Outfit-Regular-31" transform="translate(119.699982 0)"/>
       <use xlink:href="#Outfit-Regular-35" transform="translate(154.399979 0)"/>
      </g>
     </g>
    </g>
    <g id="xtick_5">
     <g id="line2d_5">
      <path d="M 936.175743 426.74225 
L 936.175743 42.1 
" clip-path="url(#pfcd5e60d8a)" style="fill: none; stroke: #d0d0d0; stroke-opacity: 0.3; stroke-width: 0.8; stroke-linecap: round"/>
     </g>
     <g id="text_5">
      <!-- 2020 -->
      <g style="fill: #262626" transform="translate(927.540643 464.810469) rotate(-45) scale(0.13 -0.13)">
       <use xlink:href="#Outfit-Regular-32"/>
       <use xlink:href="#Outfit-Regular-30" transform="translate(54.099991 0)"/>
       <use xlink:href="#Outfit-Regular-32" transform="translate(119.699982 0)"/>
       <use xlink:href="#Outfit-Regular-30" transform="translate(173.799973 0)"/>
      </g>
     </g>
    </g>
    <g id="xtick_6">
     <g id="line2d_6">
      <path d="M 1116.708878 426.74225 
L 1116.708878 42.1 
" clip-path="url(#pfcd5e60d8a)" style="fill: none; stroke: #d0d0d0; stroke-opacity: 0.3; stroke-width: 0.8; stroke-linecap: round"/>
     </g>
     <g id="text_6">
      <!-- 2025 -->
      <g style="fill: #262626" transform="translate(1108.602341 463.753344) rotate(-45) scale(0.13 -0.13)">
       <use xlink:href="#Outfit-Regular-32"/>
       <use xlink:href="#Outfit-Regular-30" transform="translate(54.099991 0)"/>
       <use xlink:href="#Outfit-Regular-32" transform="translate(119.699982 0)"/>
       <use xlink:href="#Outfit-Regular-35" transform="translate(173.799973 0)"/>
      </g>
     </g>
    </g>
    <g id="xtick_7">
     <g id="line2d_7">
      <path d="M 69.616694 426.74225 
L 69.616694 42.1 
" clip-path="url(#pfcd5e60d8a)" style="fill: none; stroke-dasharray: 0.5,0.825; stroke-dashoffset: 0; stroke: #ffffff; stroke-opacity: 0.15; stroke-width: 0.5"/>
     </g>
    </g>
    <g id="xtick_8">
     <g id="line2d_8">
      <path d="M 105.723321 426.74225 
L 105.723321 42.1 
" clip-path="url(#pfcd5e60d8a)" style="fill: none; stroke-dasharray: 0.5,0.825; stroke-dashoffset: 0; stroke: #ffffff; stroke-opacity: 0.15; stroke-width: 0.5"/>
     </g>
    </g>
    <g id="xtick_9">
     <g id="line2d_9">
      <path d="M 141.829948 426.74225 
L 141.829948 42.1 
" clip-path="url(#pfcd5e60d8a)" style="fill: none; stroke-dasharray: 0.5,0.825; stroke-dashoffset: 0; stroke: #ffffff; stroke-opacity: 0.15; stroke-width: 0.5"/>
     </g>
    </g>
    <g id="xtick_10">
     <g id="line2d_10">
      <path d="M 177.936576 426.74225 
L 177.936576 42.1 
" clip-path="url(#pfcd5e60d8a)" style="fill: none; stroke-dasharray: 0.5,0.825; stroke-dashoffset: 0; stroke: #ffffff; stroke-opacity: 0.15; stroke-width: 0.5"/>
     </g>
    </g>
    <g id="xtick_11">
     <g id="line2d_11">
      <path d="M 250.14983 426.74225 
L 250.14983 42.1 
" clip-path="url(#pfcd5e60d8a)" style="fill: none; stroke-dasharray: 0.5,0.825; stroke-dashoffset: 0; stroke: #ffffff; stroke-opacity: 0.15; stroke-width: 0.5"/>
     </g>
    </g>
    <g id="xtick_12">
     <g id="line2d_12">
      <path d="M 286.256457 426.74225 
L 286.256457 42.1 
" clip-path="url(#pfcd5e60d8a)" style="fill: none; stroke-dasharray: 0.5,0.825; stroke-dashoffset: 0; stroke: #ffffff; stroke-opacity: 0.15; stroke-width: 0.5"/>
     </g>
    </g>
    <g id="xtick_13">
     <g id="line2d_13">
      <path d="M 322.363084 426.74225 
L 322.363084 42.1 
" clip-path="url(#pfcd5e60d8a)" style="fill: none; stroke-dasharray: 0.5,0.825; stroke-dashoffset: 0; stroke: #ffffff; stroke-opacity: 0.15; stroke-width: 0.5"/>
     </g>
    </g>
    <g id="xtick_14">
     <g id="line2d_14">
      <path d="M 358.469711 426.74225 
L 358.469711 42.1 
" clip-path="url(#pfcd5e60d8a)" style="fill: none; stroke-dasharray: 0.5,0.825; stroke-dashoffset: 0; stroke: #ffffff; stroke-opacity: 0.15; stroke-width: 0.5"/>
     </g>
    </g>
    <g id="xtick_15">
     <g id="line2d_15">
      <path d="M 430.682965 426.74225 
L 430.682965 42.1 
" clip-path="url(#pfcd5e60d8a)" style="fill: none; stroke-dasharray: 0.5,0.825; stroke-dashoffset: 0; stroke: #ffffff; stroke-opacity: 0.15; stroke-width: 0.5"/>
     </g>
    </g>
    <g id="xtick_16">
     <g id="line2d_16">
      <path d="M 466.789592 426.74225 
L 466.789592 42.1 
" clip-path="url(#pfcd5e60d8a)" style="fill: none; stroke-dasharray: 0.5,0.825; stroke-dashoffset: 0; stroke: #ffffff; stroke-opacity: 0.15; stroke-width: 0.5"/>
     </g>
    </g>
    <g id="xtick_17">
     <g id="line2d_17">
      <path d="M 502.896219 426.74225 
L 502.896219 42.1 
" clip-path="url(#pfcd5e60d8a)" style="fill: none; stroke-dasharray: 0.5,0.825; stroke-dashoffset: 0; stroke: #ffffff; stroke-opacity: 0.15; stroke-width: 0.5"/>
     </g>
    </g>
    <g id="xtick_18">
     <g id="line2d_18">
      <path d="M 539.002846 426.74225 
L 539.002846 42.1 
" clip-path="url(#pfcd5e60d8a)" style="fill: none; stroke-dasharray: 0.5,0.825; stroke-dashoffset: 0; stroke: #ffffff; stroke-opacity: 0.15; stroke-width: 0.5"/>
     </g>
    </g>
    <g id="xtick_19">
     <g id="line2d_19">
      <path d="M 611.2161 426.74225 
L 611.2161 42.1 
" clip-path="url(#pfcd5e60d8a)" style="fill: none; stroke-dasharray: 0.5,0.825; stroke-dashoffset: 0; stroke: #ffffff; stroke-opacity: 0.15; stroke-width: 0.5"/>
     </g>
    </g>
    <g id="xtick_20">
     <g id="line2d_20">
      <path d="M 647.322727 426.74225 
L 647.322727 42.1 
" clip-path="url(#pfcd5e60d8a)" style="fill: none; stroke-dasharray: 0.5,0.825; stroke-dashoffset: 0; stroke: #ffffff; stroke-opacity: 0.15; stroke-width: 0.5"/>
     </g>
    </g>
    <g id="xtick_21">
     <g id="line2d_21">
      <path d="M 683.429354 426.74225 
L 683.429354 42.1 
" clip-path="url(#pfcd5e60d8a)" style="fill: none; stroke-dasharray: 0.5,0.825; stroke-dashoffset: 0; stroke: #ffffff; stroke-opacity: 0.15; stroke-width: 0.5"/>
     </g>
    </g>
    <g id="xtick_22">
     <g id="line2d_22">
      <path d="M 719.535981 426.74225 
L 719.535981 42.1 
" clip-path="url(#pfcd5e60d8a)" style="fill: none; stroke-dasharray: 0.5,0.825; stroke-dashoffset: 0; stroke: #ffffff; stroke-opacity: 0.15; stroke-width: 0.5"/>
     </g>
    </g>
    <g id="xtick_23">
     <g id="line2d_23">
      <path d="M 791.749235 426.74225 
L 791.749235 42.1 
" clip-path="url(#pfcd5e60d8a)" style="fill: none; stroke-dasharray: 0.5,0.825; stroke-dashoffset: 0; stroke: #ffffff; stroke-opacity: 0.15; stroke-width: 0.5"/>
     </g>
    </g>
    <g id="xtick_24">
     <g id="line2d_24">
      <path d="M 827.855862 426.74225 
L 827.855862 42.1 
" clip-path="url(#pfcd5e60d8a)" style="fill: none; stroke-dasharray: 0.5,0.825; stroke-dashoffset: 0; stroke: #ffffff; stroke-opacity: 0.15; stroke-width: 0.5"/>
     </g>
    </g>
    <g id="xtick_25">
     <g id="line2d_25">
      <path d="M 863.962489 426.74225 
L 863.962489 42.1 
" clip-path="url(#pfcd5e60d8a)" style="fill: none; stroke-dasharray: 0.5,0.825; stroke-dashoffset: 0; stroke: #ffffff; stroke-opacity: 0.15; stroke-width: 0.5"/>
     </g>
    </g>
    <g id="xtick_26">
     <g id="line2d_26">
      <path d="M 900.069116 426.74225 
L 900.069116 42.1 
" clip-path="url(#pfcd5e60d8a)" style="fill: none; stroke-dasharray: 0.5,0.825; stroke-dashoffset: 0; stroke: #ffffff; stroke-opacity: 0.15; stroke-width: 0.5"/>
     </g>
    </g>
    <g id="xtick_27">
     <g id="line2d_27">
      <path d="M 972.28237 426.74225 
L 972.28237 42.1 
" clip-path="url(#pfcd5e60d8a)" style="fill: none; stroke-dasharray: 0.5,0.825; stroke-dashoffset: 0; stroke: #ffffff; stroke-opacity: 0.15; stroke-width: 0.5"/>
     </g>
    </g>
    <g id="xtick_28">
     <g id="line2d_28">
      <path d="M 1008.388997 426.74225 
L 1008.388997 42.1 
" clip-path="url(#pfcd5e60d8a)" style="fill: none; stroke-dasharray: 0.5,0.825; stroke-dashoffset: 0; stroke: #ffffff; stroke-opacity: 0.15; stroke-width: 0.5"/>
     </g>
    </g>
    <g id="xtick_29">
     <g id="line2d_29">
      <path d="M 1044.495624 426.74225 
L 1044.495624 42.1 
" clip-path="url(#pfcd5e60d8a)" style="fill: none; stroke-dasharray: 0.5,0.825; stroke-dashoffset: 0; stroke: #ffffff; stroke-opacity: 0.15; stroke-width: 0.5"/>
     </g>
    </g>
    <g id="xtick_30">
     <g id="line2d_30">
      <path d="M 1080.602251 426.74225 
L 1080.602251 42.1 
" clip-path="url(#pfcd5e60d8a)" style="fill: none; stroke-dasharray: 0.5,0.825; stroke-dashoffset: 0; stroke: #ffffff; stroke-opacity: 0.15; stroke-width: 0.5"/>
     </g>
    </g>
    <g id="text_7">
     <!-- Year -->
     <g style="fill: #262626" transform="translate(575.474036 489.217453) scale(0.16 -0.16)">
      <defs>
       <path id="Outfit-Medium-59" d="M 1888 1792 
L 141 4480 
L 992 4480 
L 2355 2336 
L 1958 2336 
L 3322 4480 
L 4160 4480 
L 2400 1792 
L 1888 1792 
z
M 1786 0 
L 1786 2253 
L 2522 2253 
L 2522 0 
L 1786 0 
z
" transform="scale(0.015625)"/>
       <path id="Outfit-Medium-65" d="M 1818 -64 
Q 1357 -64 989 144 
Q 621 352 406 717 
Q 192 1082 192 1536 
Q 192 1990 403 2352 
Q 614 2714 976 2925 
Q 1338 3136 1779 3136 
Q 2208 3136 2537 2937 
Q 2867 2739 3056 2393 
Q 3245 2048 3245 1606 
Q 3245 1530 3235 1450 
Q 3226 1370 3206 1274 
L 685 1274 
L 685 1850 
L 2842 1850 
L 2579 1619 
Q 2566 1901 2470 2093 
Q 2374 2285 2198 2387 
Q 2022 2490 1766 2490 
Q 1498 2490 1299 2374 
Q 1101 2259 992 2051 
Q 883 1843 883 1555 
Q 883 1267 998 1049 
Q 1114 832 1325 713 
Q 1536 595 1811 595 
Q 2048 595 2249 678 
Q 2451 762 2592 922 
L 3040 467 
Q 2816 205 2496 70 
Q 2176 -64 1818 -64 
z
" transform="scale(0.015625)"/>
       <path id="Outfit-Medium-61" d="M 1677 -64 
Q 1261 -64 925 147 
Q 589 358 393 720 
Q 198 1082 198 1530 
Q 198 1984 393 2345 
Q 589 2707 925 2921 
Q 1261 3136 1677 3136 
Q 2029 3136 2301 2985 
Q 2573 2835 2733 2572 
Q 2893 2310 2893 1978 
L 2893 1094 
Q 2893 762 2736 499 
Q 2579 237 2304 86 
Q 2029 -64 1677 -64 
z
M 1792 602 
Q 2182 602 2422 864 
Q 2662 1126 2662 1536 
Q 2662 1811 2553 2022 
Q 2445 2234 2249 2352 
Q 2054 2470 1792 2470 
Q 1536 2470 1341 2352 
Q 1146 2234 1034 2022 
Q 922 1811 922 1536 
Q 922 1261 1034 1049 
Q 1146 838 1341 720 
Q 1536 602 1792 602 
z
M 2618 0 
L 2618 826 
L 2739 1574 
L 2618 2317 
L 2618 3072 
L 3322 3072 
L 3322 0 
L 2618 0 
z
" transform="scale(0.015625)"/>
       <path id="Outfit-Medium-72" d="M 390 0 
L 390 3072 
L 1094 3072 
L 1094 0 
L 390 0 
z
M 1094 1709 
L 851 1830 
Q 851 2413 1110 2774 
Q 1370 3136 1894 3136 
Q 2125 3136 2310 3053 
Q 2496 2970 2656 2784 
L 2195 2310 
Q 2112 2400 2009 2438 
Q 1907 2477 1773 2477 
Q 1478 2477 1286 2291 
Q 1094 2106 1094 1709 
z
" transform="scale(0.015625)"/>
      </defs>
      <use xlink:href="#Outfit-Medium-59"/>
      <use xlink:href="#Outfit-Medium-65" transform="translate(67.199997 0)"/>
      <use xlink:href="#Outfit-Medium-61" transform="translate(120.599991 0)"/>
      <use xlink:href="#Outfit-Medium-72" transform="translate(178.599976 0)"/>
     </g>
    </g>
   </g>
   <g id="matplotlib.axis_2">
    <g id="ytick_1">
     <g id="line2d_31">
      <path d="M 56.979375 426.74225 
L 1129.346198 426.74225 
" clip-path="url(#pfcd5e60d8a)" style="fill: none; stroke: #d0d0d0; stroke-opacity: 0.3; stroke-width: 0.8; stroke-linecap: round"/>
     </g>
     <g id="text_8">
      <!-- 0 -->
      <g style="fill: #262626" transform="translate(38.952188 431.383656) scale(0.13 -0.13)">
       <use xlink:href="#Outfit-Regular-30"/>
      </g>
     </g>
    </g>
    <g id="ytick_2">
     <g id="line2d_32">
      <path d="M 56.979375 371.793357 
L 1129.346198 371.793357 
" clip-path="url(#pfcd5e60d8a)" style="fill: none; stroke: #d0d0d0; stroke-opacity: 0.3; stroke-width: 0.8; stroke-linecap: round"/>
     </g>
     <g id="text_9">
      <!-- 5 -->
      <g style="fill: #262626" transform="translate(40.447188 376.434763) scale(0.13 -0.13)">
       <use xlink:href="#Outfit-Regular-35"/>
      </g>
     </g>
    </g>
    <g id="ytick_3">
     <g id="line2d_33">
      <path d="M 56.979375 316.844464 
L 1129.346198 316.844464 
" clip-path="url(#pfcd5e60d8a)" style="fill: none; stroke: #d0d0d0; stroke-opacity: 0.3; stroke-width: 0.8; stroke-linecap: round"/>
     </g>
     <g id="text_10">
      <!-- 10 -->
      <g style="fill: #262626" transform="translate(34.440781 321.485871) scale(0.13 -0.13)">
       <use xlink:href="#Outfit-Regular-31"/>
       <use xlink:href="#Outfit-Regular-30" transform="translate(34.699997 0)"/>
      </g>
     </g>
    </g>
    <g id="ytick_4">
     <g id="line2d_34">
      <path d="M 56.979375 261.895571 
L 1129.346198 261.895571 
" clip-path="url(#pfcd5e60d8a)" style="fill: none; stroke: #d0d0d0; stroke-opacity: 0.3; stroke-width: 0.8; stroke-linecap: round"/>
     </g>
     <g id="text_11">
      <!-- 15 -->
      <g style="fill: #262626" transform="translate(35.935781 266.536978) scale(0.13 -0.13)">
       <use xlink:href="#Outfit-Regular-31"/>
       <use xlink:href="#Outfit-Regular-35" transform="translate(34.699997 0)"/>
      </g>
     </g>
    </g>
    <g id="ytick_5">
     <g id="line2d_35">
      <path d="M 56.979375 206.946679 
L 1129.346198 206.946679 
" clip-path="url(#pfcd5e60d8a)" style="fill: none; stroke: #d0d0d0; stroke-opacity: 0.3; stroke-width: 0.8; stroke-linecap: round"/>
     </g>
     <g id="text_12">
      <!-- 20 -->
      <g style="fill: #262626" transform="translate(31.92 211.588085) scale(0.13 -0.13)">
       <use xlink:href="#Outfit-Regular-32"/>
       <use xlink:href="#Outfit-Regular-30" transform="translate(54.099991 0)"/>
      </g>
     </g>
    </g>
    <g id="ytick_6">
     <g id="line2d_36">
      <path d="M 56.979375 151.997786 
L 1129.346198 151.997786 
" clip-path="url(#pfcd5e60d8a)" style="fill: none; stroke: #d0d0d0; stroke-opacity: 0.3; stroke-width: 0.8; stroke-linecap: round"/>
     </g>
     <g id="text_13">
      <!-- 25 -->
      <g style="fill: #262626" transform="translate(33.415 156.639192) scale(0.13 -0.13)">
       <use xlink:href="#Outfit-Regular-32"/>
       <use xlink:href="#Outfit-Regular-35" transform="translate(54.099991 0)"/>
      </g>
     </g>
    </g>
    <g id="ytick_7">
     <g id="line2d_37">
      <path d="M 56.979375 97.048893 
L 1129.346198 97.048893 
" clip-path="url(#pfcd5e60d8a)" style="fill: none; stroke: #d0d0d0; stroke-opacity: 0.3; stroke-width: 0.8; stroke-linecap: round"/>
     </g>
     <g id="text_14">
      <!-- 30 -->
      <g style="fill: #262626" transform="translate(31.958594 101.690299) scale(0.13 -0.13)">
       <defs>
        <path id="Outfit-Regular-33" d="M 1581 -64 
Q 1146 -64 790 99 
Q 435 262 192 576 
L 602 986 
Q 749 762 1005 630 
Q 1261 499 1574 499 
Q 1869 499 2083 611 
Q 2298 723 2422 928 
Q 2547 1133 2547 1402 
Q 2547 1677 2422 1878 
Q 2298 2080 2074 2189 
Q 1850 2298 1542 2298 
Q 1427 2298 1312 2282 
Q 1197 2266 1088 2234 
L 1344 2579 
Q 1466 2637 1606 2669 
Q 1747 2701 1888 2701 
Q 2246 2701 2531 2534 
Q 2816 2368 2985 2067 
Q 3155 1766 3155 1370 
Q 3155 947 2953 624 
Q 2752 301 2400 118 
Q 2048 -64 1581 -64 
z
M 1088 2234 
L 1088 2598 
L 2387 4077 
L 3104 4083 
L 1766 2566 
L 1088 2234 
z
M 403 3904 
L 403 4442 
L 3104 4442 
L 3104 4083 
L 2579 3904 
L 403 3904 
z
" transform="scale(0.015625)"/>
       </defs>
       <use xlink:href="#Outfit-Regular-33"/>
       <use xlink:href="#Outfit-Regular-30" transform="translate(53.799988 0)"/>
      </g>
     </g>
    </g>
    <g id="ytick_8">
     <g id="line2d_38">
      <path d="M 56.979375 42.1 
L 1129.346198 42.1 
" clip-path="url(#pfcd5e60d8a)" style="fill: none; stroke: #d0d0d0; stroke-opacity: 0.3; stroke-width: 0.8; stroke-linecap: round"/>
     </g>
     <g id="text_15">
      <!-- 35 -->
      <g style="fill: #262626" transform="translate(33.453594 46.741406) scale(0.13 -0.13)">
       <use xlink:href="#Outfit-Regular-33"/>
       <use xlink:href="#Outfit-Regular-35" transform="translate(53.799988 0)"/>
      </g>
     </g>
    </g>
    <g id="ytick_9">
     <g id="line2d_39">
      <path d="M 56.979375 415.752471 
L 1129.346198 415.752471 
" clip-path="url(#pfcd5e60d8a)" style="fill: none; stroke-dasharray: 0.5,0.825; stroke-dashoffset: 0; stroke: #ffffff; stroke-opacity: 0.15; stroke-width: 0.5"/>
     </g>
    </g>
    <g id="ytick_10">
     <g id="line2d_40">
      <path d="M 56.979375 404.762693 
L 1129.346198 404.762693 
" clip-path="url(#pfcd5e60d8a)" style="fill: none; stroke-dasharray: 0.5,0.825; stroke-dashoffset: 0; stroke: #ffffff; stroke-opacity: 0.15; stroke-width: 0.5"/>
     </g>
    </g>
    <g id="ytick_11">
     <g id="line2d_41">
      <path d="M 56.979375 393.772914 
L 1129.346198 393.772914 
" clip-path="url(#pfcd5e60d8a)" style="fill: none; stroke-dasharray: 0.5,0.825; stroke-dashoffset: 0; stroke: #ffffff; stroke-opacity: 0.15; stroke-width: 0.5"/>
     </g>
    </g>
    <g id="ytick_12">
     <g id="line2d_42">
      <path d="M 56.979375 382.783136 
L 1129.346198 382.783136 
" clip-path="url(#pfcd5e60d8a)" style="fill: none; stroke-dasharray: 0.5,0.825; stroke-dashoffset: 0; stroke: #ffffff; stroke-opacity: 0.15; stroke-width: 0.5"/>
     </g>
    </g>
    <g id="ytick_13">
     <g id="line2d_43">
      <path d="M 56.979375 360.803579 
L 1129.346198 360.803579 
" clip-path="url(#pfcd5e60d8a)" style="fill: none; stroke-dasharray: 0.5,0.825; stroke-dashoffset: 0; stroke: #ffffff; stroke-opacity: 0.15; stroke-width: 0.5"/>
     </g>
    </g>
    <g id="ytick_14">
     <g id="line2d_44">
      <path d="M 56.979375 349.8138 
L 1129.346198 349.8138 
" clip-path="url(#pfcd5e60d8a)" style="fill: none; stroke-dasharray: 0.5,0.825; stroke-dashoffset: 0; stroke: #ffffff; stroke-opacity: 0.15; stroke-width: 0.5"/>
     </g>
    </g>
    <g id="ytick_15">
     <g id="line2d_45">
      <path d="M 56.979375 338.824021 
L 1129.346198 338.824021 
" clip-path="url(#pfcd5e60d8a)" style="fill: none; stroke-dasharray: 0.5,0.825; stroke-dashoffset: 0; stroke: #ffffff; stroke-opacity: 0.15; stroke-width: 0.5"/>
     </g>
    </g>
    <g id="ytick_16">
     <g id="line2d_46">
      <path d="M 56.979375 327.834243 
L 1129.346198 327.834243 
" clip-path="url(#pfcd5e60d8a)" style="fill: none; stroke-dasharray: 0.5,0.825; stroke-dashoffset: 0; stroke: #ffffff; stroke-opacity: 0.15; stroke-width: 0.5"/>
     </g>
    </g>
    <g id="ytick_17">
     <g id="line2d_47">
      <path d="M 56.979375 305.854686 
L 1129.346198 305.854686 
" clip-path="url(#pfcd5e60d8a)" style="fill: none; stroke-dasharray: 0.5,0.825; stroke-dashoffset: 0; stroke: #ffffff; stroke-opacity: 0.15; stroke-width: 0.5"/>
     </g>
    </g>
    <g id="ytick_18">
     <g id="line2d_48">
      <path d="M 56.979375 294.864907 
L 1129.346198 294.864907 
" clip-path="url(#pfcd5e60d8a)" style="fill: none; stroke-dasharray: 0.5,0.825; stroke-dashoffset: 0; stroke: #ffffff; stroke-opacity: 0.15; stroke-width: 0.5"/>
     </g>
    </g>
    <g id="ytick_19">
     <g id="line2d_49">
      <path d="M 56.979375 283.875129 
L 1129.346198 283.875129 
" clip-path="url(#pfcd5e60d8a)" style="fill: none; stroke-dasharray: 0.5,0.825; stroke-dashoffset: 0; stroke: #ffffff; stroke-opacity: 0.15; stroke-width: 0.5"/>
     </g>
    </g>
    <g id="ytick_20">
     <g id="line2d_50">
      <path d="M 56.979375 272.88535 
L 1129.346198 272.88535 
" clip-path="url(#pfcd5e60d8a)" style="fill: none; stroke-dasharray: 0.5,0.825; stroke-dashoffset: 0; stroke: #ffffff; stroke-opacity: 0.15; stroke-width: 0.5"/>
     </g>
    </g>
    <g id="ytick_21">
     <g id="line2d_51">
      <path d="M 56.979375 250.905793 
L 1129.346198 250.905793 
" clip-path="url(#pfcd5e60d8a)" style="fill: none; stroke-dasharray: 0.5,0.825; stroke-dashoffset: 0; stroke: #ffffff; stroke-opacity: 0.15; stroke-width: 0.5"/>
     </g>
    </g>
    <g id="ytick_22">
     <g id="line2d_52">
      <path d="M 56.979375 239.916014 
L 1129.346198 239.916014 
" clip-path="url(#pfcd5e60d8a)" style="fill: none; stroke-dasharray: 0.5,0.825; stroke-dashoffset: 0; stroke: #ffffff; stroke-opacity: 0.15; stroke-width: 0.5"/>
     </g>
    </g>
    <g id="ytick_23">
     <g id="line2d_53">
      <path d="M 56.979375 228.926236 
L 1129.346198 228.926236 
" clip-path="url(#pfcd5e60d8a)" style="fill: none; stroke-dasharray: 0.5,0.825; stroke-dashoffset: 0; stroke: #ffffff; stroke-opacity: 0.15; stroke-width: 0.5"/>
     </g>
    </g>
    <g id="ytick_24">
     <g id="line2d_54">
      <path d="M 56.979375 217.936457 
L 1129.346198 217.936457 
" clip-path="url(#pfcd5e60d8a)" style="fill: none; stroke-dasharray: 0.5,0.825; stroke-dashoffset: 0; stroke: #ffffff; stroke-opacity: 0.15; stroke-width: 0.5"/>
     </g>
    </g>
    <g id="ytick_25">
     <g id="line2d_55">
      <path d="M 56.979375 195.9569 
L 1129.346198 195.9569 
" clip-path="url(#pfcd5e60d8a)" style="fill: none; stroke-dasharray: 0.5,0.825; stroke-dashoffset: 0; stroke: #ffffff; stroke-opacity: 0.15; stroke-width: 0.5"/>
     </g>
    </g>
    <g id="ytick_26">
     <g id="line2d_56">
      <path d="M 56.979375 184.967121 
L 1129.346198 184.967121 
" clip-path="url(#pfcd5e60d8a)" style="fill: none; stroke-dasharray: 0.5,0.825; stroke-dashoffset: 0; stroke: #ffffff; stroke-opacity: 0.15; stroke-width: 0.5"/>
     </g>
    </g>
    <g id="ytick_27">
     <g id="line2d_57">
      <path d="M 56.979375 173.977343 
L 1129.346198 173.977343 
" clip-path="url(#pfcd5e60d8a)" style="fill: none; stroke-dasharray: 0.5,0.825; stroke-dashoffset: 0; stroke: #ffffff; stroke-opacity: 0.15; stroke-width: 0.5"/>
     </g>
    </g>
    <g id="ytick_28">
     <g id="line2d_58">
      <path d="M 56.979375 162.987564 
L 1129.346198 162.987564 
" clip-path="url(#pfcd5e60d8a)" style="fill: none; stroke-dasharray: 0.5,0.825; stroke-dashoffset: 0; stroke: #ffffff; stroke-opacity: 0.15; stroke-width: 0.5"/>
     </g>
    </g>
    <g id="ytick_29">
     <g id="line2d_59">
      <path d="M 56.979375 141.008007 
L 1129.346198 141.008007 
" clip-path="url(#pfcd5e60d8a)" style="fill: none; stroke-dasharray: 0.5,0.825; stroke-dashoffset: 0; stroke: #ffffff; stroke-opacity: 0.15; stroke-width: 0.5"/>
     </g>
    </g>
    <g id="ytick_30">
     <g id="line2d_60">
      <path d="M 56.979375 130.018229 
L 1129.346198 130.018229 
" clip-path="url(#pfcd5e60d8a)" style="fill: none; stroke-dasharray: 0.5,0.825; stroke-dashoffset: 0; stroke: #ffffff; stroke-opacity: 0.15; stroke-width: 0.5"/>
     </g>
    </g>
    <g id="ytick_31">
     <g id="line2d_61">
      <path d="M 56.979375 119.02845 
L 1129.346198 119.02845 
" clip-path="url(#pfcd5e60d8a)" style="fill: none; stroke-dasharray: 0.5,0.825; stroke-dashoffset: 0; stroke: #ffffff; stroke-opacity: 0.15; stroke-width: 0.5"/>
     </g>
    </g>
    <g id="ytick_32">
     <g id="line2d_62">
      <path d="M 56.979375 108.038671 
L 1129.346198 108.038671 
" clip-path="url(#pfcd5e60d8a)" style="fill: none; stroke-dasharray: 0.5,0.825; stroke-dashoffset: 0; stroke: #ffffff; stroke-opacity: 0.15; stroke-width: 0.5"/>
     </g>
    </g>
    <g id="ytick_33">
     <g id="line2d_63">
      <path d="M 56.979375 86.059114 
L 1129.346198 86.059114 
" clip-path="url(#pfcd5e60d8a)" style="fill: none; stroke-dasharray: 0.5,0.825; stroke-dashoffset: 0; stroke: #ffffff; stroke-opacity: 0.15; stroke-width: 0.5"/>
     </g>
    </g>
    <g id="ytick_34">
     <g id="line2d_64">
      <path d="M 56.979375 75.069336 
L 1129.346198 75.069336 
" clip-path="url(#pfcd5e60d8a)" style="fill: none; stroke-dasharray: 0.5,0.825; stroke-dashoffset: 0; stroke: #ffffff; stroke-opacity: 0.15; stroke-width: 0.5"/>
     </g>
    </g>
    <g id="ytick_35">
     <g id="line2d_65">
      <path d="M 56.979375 64.079557 
L 1129.346198 64.079557 
" clip-path="url(#pfcd5e60d8a)" style="fill: none; stroke-dasharray: 0.5,0.825; stroke-dashoffset: 0; stroke: #ffffff; stroke-opacity: 0.15; stroke-width: 0.5"/>
     </g>
    </g>
    <g id="ytick_36">
     <g id="line2d_66">
      <path d="M 56.979375 53.089779 
L 1129.346198 53.089779 
" clip-path="url(#pfcd5e60d8a)" style="fill: none; stroke-dasharray: 0.5,0.825; stroke-dashoffset: 0; stroke: #ffffff; stroke-opacity: 0.15; stroke-width: 0.5"/>
     </g>
    </g>
    <g id="text_16">
     <!-- Women in Parliament (%) -->
     <g style="fill: #262626" transform="translate(18.72 323.309875) rotate(-90) scale(0.16 -0.16)">
      <defs>
       <path id="Outfit-Medium-57" d="M 1638 0 
L 166 4480 
L 890 4480 
L 1997 1030 
L 1805 1030 
L 2886 4480 
L 3398 4480 
L 4480 1030 
L 4288 1030 
L 5395 4480 
L 6118 4480 
L 4646 0 
L 4134 0 
L 3046 3443 
L 3238 3443 
L 2150 0 
L 1638 0 
z
" transform="scale(0.015625)"/>
       <path id="Outfit-Medium-6f" d="M 1798 -64 
Q 1350 -64 985 150 
Q 621 365 406 729 
Q 192 1094 192 1542 
Q 192 1990 406 2348 
Q 621 2707 985 2921 
Q 1350 3136 1798 3136 
Q 2253 3136 2617 2925 
Q 2982 2714 3196 2352 
Q 3411 1990 3411 1542 
Q 3411 1094 3196 729 
Q 2982 365 2617 150 
Q 2253 -64 1798 -64 
z
M 1798 614 
Q 2061 614 2262 732 
Q 2464 851 2576 1062 
Q 2688 1274 2688 1542 
Q 2688 1811 2573 2016 
Q 2458 2221 2259 2339 
Q 2061 2458 1798 2458 
Q 1542 2458 1340 2339 
Q 1139 2221 1027 2016 
Q 915 1811 915 1542 
Q 915 1274 1027 1062 
Q 1139 851 1340 732 
Q 1542 614 1798 614 
z
" transform="scale(0.015625)"/>
       <path id="Outfit-Medium-6d" d="M 390 0 
L 390 3072 
L 1094 3072 
L 1094 0 
L 390 0 
z
M 2432 0 
L 2432 1830 
Q 2432 2138 2240 2307 
Q 2048 2477 1766 2477 
Q 1574 2477 1424 2400 
Q 1274 2323 1184 2179 
Q 1094 2035 1094 1830 
L 819 1984 
Q 819 2336 972 2592 
Q 1126 2848 1388 2992 
Q 1651 3136 1978 3136 
Q 2304 3136 2566 2995 
Q 2829 2854 2982 2598 
Q 3136 2342 3136 1984 
L 3136 0 
L 2432 0 
z
M 4474 0 
L 4474 1830 
Q 4474 2138 4282 2307 
Q 4090 2477 3808 2477 
Q 3622 2477 3468 2400 
Q 3315 2323 3225 2179 
Q 3136 2035 3136 1830 
L 2739 1984 
Q 2771 2336 2944 2592 
Q 3117 2848 3389 2992 
Q 3661 3136 3987 3136 
Q 4320 3136 4589 2995 
Q 4858 2854 5018 2598 
Q 5178 2342 5178 1984 
L 5178 0 
L 4474 0 
z
" transform="scale(0.015625)"/>
       <path id="Outfit-Medium-6e" d="M 2496 0 
L 2496 1773 
Q 2496 2080 2301 2278 
Q 2106 2477 1798 2477 
Q 1594 2477 1434 2387 
Q 1274 2298 1184 2138 
Q 1094 1978 1094 1773 
L 819 1926 
Q 819 2278 972 2550 
Q 1126 2822 1398 2979 
Q 1670 3136 2010 3136 
Q 2355 3136 2624 2960 
Q 2893 2784 3046 2505 
Q 3200 2227 3200 1926 
L 3200 0 
L 2496 0 
z
M 390 0 
L 390 3072 
L 1094 3072 
L 1094 0 
L 390 0 
z
" transform="scale(0.015625)"/>
       <path id="Outfit-Medium-20" transform="scale(0.015625)"/>
       <path id="Outfit-Medium-69" d="M 397 0 
L 397 3072 
L 1101 3072 
L 1101 0 
L 397 0 
z
M 749 3635 
Q 570 3635 451 3756 
Q 333 3878 333 4058 
Q 333 4237 451 4358 
Q 570 4480 749 4480 
Q 934 4480 1049 4358 
Q 1165 4237 1165 4058 
Q 1165 3878 1049 3756 
Q 934 3635 749 3635 
z
" transform="scale(0.015625)"/>
       <path id="Outfit-Medium-50" d="M 992 1690 
L 992 2330 
L 2112 2330 
Q 2342 2330 2518 2422 
Q 2694 2515 2796 2684 
Q 2899 2854 2899 3085 
Q 2899 3315 2796 3484 
Q 2694 3654 2518 3747 
Q 2342 3840 2112 3840 
L 992 3840 
L 992 4480 
L 2150 4480 
Q 2573 4480 2909 4307 
Q 3245 4134 3440 3820 
Q 3635 3507 3635 3085 
Q 3635 2662 3440 2348 
Q 3245 2035 2909 1862 
Q 2573 1690 2150 1690 
L 992 1690 
z
M 486 0 
L 486 4480 
L 1222 4480 
L 1222 0 
L 486 0 
z
" transform="scale(0.015625)"/>
       <path id="Outfit-Medium-6c" d="M 390 0 
L 390 4608 
L 1094 4608 
L 1094 0 
L 390 0 
z
" transform="scale(0.015625)"/>
       <path id="Outfit-Medium-74" d="M 858 0 
L 858 4352 
L 1562 4352 
L 1562 0 
L 858 0 
z
M 122 2432 
L 122 3072 
L 2298 3072 
L 2298 2432 
L 122 2432 
z
" transform="scale(0.015625)"/>
       <path id="Outfit-Medium-28" d="M 1357 -762 
Q 1018 -461 771 -25 
Q 525 410 390 928 
Q 256 1446 256 2003 
Q 256 2560 390 3078 
Q 525 3597 771 4032 
Q 1018 4467 1357 4768 
L 1760 4410 
Q 1338 4019 1104 3401 
Q 870 2784 870 2003 
Q 870 1229 1104 608 
Q 1338 -13 1760 -403 
L 1357 -762 
z
" transform="scale(0.015625)"/>
       <path id="Outfit-Medium-25" d="M 320 0 
L 3194 4480 
L 3891 4480 
L 1018 0 
L 320 0 
z
M 3040 -64 
Q 2790 -64 2582 57 
Q 2374 179 2252 384 
Q 2131 589 2131 845 
Q 2131 1101 2252 1302 
Q 2374 1504 2579 1625 
Q 2784 1747 3040 1747 
Q 3296 1747 3504 1625 
Q 3712 1504 3833 1302 
Q 3955 1101 3955 845 
Q 3955 589 3833 384 
Q 3712 179 3507 57 
Q 3302 -64 3040 -64 
z
M 3040 480 
Q 3200 480 3299 582 
Q 3398 685 3398 845 
Q 3398 998 3296 1100 
Q 3194 1203 3040 1203 
Q 2886 1203 2790 1100 
Q 2694 998 2694 845 
Q 2694 685 2790 582 
Q 2886 480 3040 480 
z
M 1165 2733 
Q 915 2733 707 2854 
Q 499 2976 377 3181 
Q 256 3386 256 3642 
Q 256 3898 377 4099 
Q 499 4301 704 4422 
Q 909 4544 1165 4544 
Q 1421 4544 1629 4422 
Q 1837 4301 1958 4099 
Q 2080 3898 2080 3642 
Q 2080 3386 1958 3181 
Q 1837 2976 1632 2854 
Q 1427 2733 1165 2733 
z
M 1165 3277 
Q 1325 3277 1421 3379 
Q 1517 3482 1517 3642 
Q 1517 3802 1417 3901 
Q 1318 4000 1165 4000 
Q 1011 4000 915 3901 
Q 819 3802 819 3642 
Q 819 3482 915 3379 
Q 1011 3277 1165 3277 
z
" transform="scale(0.015625)"/>
       <path id="Outfit-Medium-29" d="M 557 -762 
L 154 -403 
Q 576 -13 809 608 
Q 1043 1229 1043 2003 
Q 1043 2784 809 3401 
Q 576 4019 154 4410 
L 557 4768 
Q 896 4467 1142 4032 
Q 1389 3597 1523 3078 
Q 1658 2560 1658 2003 
Q 1658 1446 1523 928 
Q 1389 410 1142 -25 
Q 896 -461 557 -762 
z
" transform="scale(0.015625)"/>
      </defs>
      <use xlink:href="#Outfit-Medium-57"/>
      <use xlink:href="#Outfit-Medium-6f" transform="translate(98.199982 0)"/>
      <use xlink:href="#Outfit-Medium-6d" transform="translate(154.499969 0)"/>
      <use xlink:href="#Outfit-Medium-65" transform="translate(240.59996 0)"/>
      <use xlink:href="#Outfit-Medium-6e" transform="translate(293.999954 0)"/>
      <use xlink:href="#Outfit-Medium-20" transform="translate(349.099945 0)"/>
      <use xlink:href="#Outfit-Medium-69" transform="translate(369.09993 0)"/>
      <use xlink:href="#Outfit-Medium-6e" transform="translate(392.499924 0)"/>
      <use xlink:href="#Outfit-Medium-20" transform="translate(447.599915 0)"/>
      <use xlink:href="#Outfit-Medium-50" transform="translate(467.599899 0)"/>
      <use xlink:href="#Outfit-Medium-61" transform="translate(527.999893 0)"/>
      <use xlink:href="#Outfit-Medium-72" transform="translate(585.999878 0)"/>
      <use xlink:href="#Outfit-Medium-6c" transform="translate(628.499863 0)"/>
      <use xlink:href="#Outfit-Medium-69" transform="translate(651.69986 0)"/>
      <use xlink:href="#Outfit-Medium-61" transform="translate(675.099854 0)"/>
      <use xlink:href="#Outfit-Medium-6d" transform="translate(733.099838 0)"/>
      <use xlink:href="#Outfit-Medium-65" transform="translate(819.199829 0)"/>
      <use xlink:href="#Outfit-Medium-6e" transform="translate(872.599823 0)"/>
      <use xlink:href="#Outfit-Medium-74" transform="translate(927.699814 0)"/>
      <use xlink:href="#Outfit-Medium-20" transform="translate(965.499802 0)"/>
      <use xlink:href="#Outfit-Medium-28" transform="translate(985.499786 0)"/>
      <use xlink:href="#Outfit-Medium-25" transform="translate(1015.39978 0)"/>
      <use xlink:href="#Outfit-Medium-29" transform="translate(1081.199768 0)"/>
     </g>
    </g>
   </g>
   <g id="line2d_67">
    <path d="M 1080.602251 358.056134 
L 1044.495624 358.056134 
L 1008.388997 358.056134 
L 972.28237 375.222168 
L 936.175743 375.222168 
L 900.069116 375.222168 
L 863.962489 375.222168 
L 827.855862 392.399192 
L 791.749235 392.399192 
L 755.642608 392.399192 
L 719.535981 392.399192 
L 683.429354 392.399192 
L 647.322727 392.399192 
L 611.2161 392.399192 
L 575.109473 392.399192 
L 539.002846 392.399192 
L 502.896219 375.222168 
L 466.789592 375.222168 
L 430.682965 375.222168 
L 394.576338 375.222168 
L 358.469711 400.982209 
L 322.363084 400.982209 
L 286.256457 400.982209 
L 250.14983 400.982209 
L 214.043203 400.982209 
L 177.936576 400.982209 
L 141.829948 400.982209 
L 105.723321 400.982209 
" clip-path="url(#pfcd5e60d8a)" style="fill: none; stroke: #e00700; stroke-opacity: 0.9; stroke-width: 3; stroke-linecap: round"/>
    <defs>
     <path id="m23524c975f" d="M 0 2.5 
C 0.663008 2.5 1.29895 2.236584 1.767767 1.767767 
C 2.236584 1.29895 2.5 0.663008 2.5 0 
C 2.5 -0.663008 2.236584 -1.29895 1.767767 -1.767767 
C 1.29895 -2.236584 0.663008 -2.5 0 -2.5 
C -0.663008 -2.5 -1.29895 -2.236584 -1.767767 -1.767767 
C -2.236584 -1.29895 -2.5 -0.663008 -2.5 0 
C -2.5 0.663008 -2.236584 1.29895 -1.767767 1.767767 
C -1.29895 2.236584 -0.663008 2.5 0 2.5 
z
" style="stroke: #e00700; stroke-opacity: 0.9; stroke-width: 1.5"/>
    </defs>
    <g clip-path="url(#pfcd5e60d8a)">
     <use xlink:href="#m23524c975f" x="1080.602251" y="358.056134" style="fill: #e00700; fill-opacity: 0.9; stroke: #e00700; stroke-opacity: 0.9; stroke-width: 1.5"/>
     <use xlink:href="#m23524c975f" x="1044.495624" y="358.056134" style="fill: #e00700; fill-opacity: 0.9; stroke: #e00700; stroke-opacity: 0.9; stroke-width: 1.5"/>
     <use xlink:href="#m23524c975f" x="1008.388997" y="358.056134" style="fill: #e00700; fill-opacity: 0.9; stroke: #e00700; stroke-opacity: 0.9; stroke-width: 1.5"/>
     <use xlink:href="#m23524c975f" x="972.28237" y="375.222168" style="fill: #e00700; fill-opacity: 0.9; stroke: #e00700; stroke-opacity: 0.9; stroke-width: 1.5"/>
     <use xlink:href="#m23524c975f" x="936.175743" y="375.222168" style="fill: #e00700; fill-opacity: 0.9; stroke: #e00700; stroke-opacity: 0.9; stroke-width: 1.5"/>
     <use xlink:href="#m23524c975f" x="900.069116" y="375.222168" style="fill: #e00700; fill-opacity: 0.9; stroke: #e00700; stroke-opacity: 0.9; stroke-width: 1.5"/>
     <use xlink:href="#m23524c975f" x="863.962489" y="375.222168" style="fill: #e00700; fill-opacity: 0.9; stroke: #e00700; stroke-opacity: 0.9; stroke-width: 1.5"/>
     <use xlink:href="#m23524c975f" x="827.855862" y="392.399192" style="fill: #e00700; fill-opacity: 0.9; stroke: #e00700; stroke-opacity: 0.9; stroke-width: 1.5"/>
     <use xlink:href="#m23524c975f" x="791.749235" y="392.399192" style="fill: #e00700; fill-opacity: 0.9; stroke: #e00700; stroke-opacity: 0.9; stroke-width: 1.5"/>
     <use xlink:href="#m23524c975f" x="755.642608" y="392.399192" style="fill: #e00700; fill-opacity: 0.9; stroke: #e00700; stroke-opacity: 0.9; stroke-width: 1.5"/>
     <use xlink:href="#m23524c975f" x="719.535981" y="392.399192" style="fill: #e00700; fill-opacity: 0.9; stroke: #e00700; stroke-opacity: 0.9; stroke-width: 1.5"/>
     <use xlink:href="#m23524c975f" x="683.429354" y="392.399192" style="fill: #e00700; fill-opacity: 0.9; stroke: #e00700; stroke-opacity: 0.9; stroke-width: 1.5"/>
     <use xlink:href="#m23524c975f" x="647.322727" y="392.399192" style="fill: #e00700; fill-opacity: 0.9; stroke: #e00700; stroke-opacity: 0.9; stroke-width: 1.5"/>
     <use xlink:href="#m23524c975f" x="611.2161" y="392.399192" style="fill: #e00700; fill-opacity: 0.9; stroke: #e00700; stroke-opacity: 0.9; stroke-width: 1.5"/>
     <use xlink:href="#m23524c975f" x="575.109473" y="392.399192" style="fill: #e00700; fill-opacity: 0.9; stroke: #e00700; stroke-opacity: 0.9; stroke-width: 1.5"/>
     <use xlink:href="#m23524c975f" x="539.002846" y="392.399192" style="fill: #e00700; fill-opacity: 0.9; stroke: #e00700; stroke-opacity: 0.9; stroke-width: 1.5"/>
     <use xlink:href="#m23524c975f" x="502.896219" y="375.222168" style="fill: #e00700; fill-opacity: 0.9; stroke: #e00700; stroke-opacity: 0.9; stroke-width: 1.5"/>
     <use xlink:href="#m23524c975f" x="466.789592" y="375.222168" style="fill: #e00700; fill-opacity: 0.9; stroke: #e00700; stroke-opacity: 0.9; stroke-width: 1.5"/>
     <use xlink:href="#m23524c975f" x="430.682965" y="375.222168" style="fill: #e00700; fill-opacity: 0.9; stroke: #e00700; stroke-opacity: 0.9; stroke-width: 1.5"/>
     <use xlink:href="#m23524c975f" x="394.576338" y="375.222168" style="fill: #e00700; fill-opacity: 0.9; stroke: #e00700; stroke-opacity: 0.9; stroke-width: 1.5"/>
     <use xlink:href="#m23524c975f" x="358.469711" y="400.982209" style="fill: #e00700; fill-opacity: 0.9; stroke: #e00700; stroke-opacity: 0.9; stroke-width: 1.5"/>
     <use xlink:href="#m23524c975f" x="322.363084" y="400.982209" style="fill: #e00700; fill-opacity: 0.9; stroke: #e00700; stroke-opacity: 0.9; stroke-width: 1.5"/>
     <use xlink:href="#m23524c975f" x="286.256457" y="400.982209" style="fill: #e00700; fill-opacity: 0.9; stroke: #e00700; stroke-opacity: 0.9; stroke-width: 1.5"/>
     <use xlink:href="#m23524c975f" x="250.14983" y="400.982209" style="fill: #e00700; fill-opacity: 0.9; stroke: #e00700; stroke-opacity: 0.9; stroke-width: 1.5"/>
     <use xlink:href="#m23524c975f" x="214.043203" y="400.982209" style="fill: #e00700; fill-opacity: 0.9; stroke: #e00700; stroke-opacity: 0.9; stroke-width: 1.5"/>
     <use xlink:href="#m23524c975f" x="177.936576" y="400.982209" style="fill: #e00700; fill-opacity: 0.9; stroke: #e00700; stroke-opacity: 0.9; stroke-width: 1.5"/>
     <use xlink:href="#m23524c975f" x="141.829948" y="400.982209" style="fill: #e00700; fill-opacity: 0.9; stroke: #e00700; stroke-opacity: 0.9; stroke-width: 1.5"/>
     <use xlink:href="#m23524c975f" x="105.723321" y="400.982209" style="fill: #e00700; fill-opacity: 0.9; stroke: #e00700; stroke-opacity: 0.9; stroke-width: 1.5"/>
    </g>
   </g>
   <g id="line2d_68">
    <path d="M 1080.602251 122.292414 
L 1044.495624 124.149687 
L 1008.388997 123.644157 
L 972.28237 122.292414 
L 936.175743 125.50143 
L 900.069116 262.631887 
L 863.962489 262.631887 
L 827.855862 262.631887 
L 791.749235 262.631887 
L 647.322727 405.103376 
L 611.2161 405.103376 
L 575.109473 287.227011 
L 539.002846 407.37826 
L 502.896219 406.850751 
L 466.789592 406.850751 
L 430.682965 404.367061 
L 394.576338 404.960509 
L 358.469711 395.278514 
L 322.363084 400.114017 
L 286.256457 400.114017 
L 250.14983 400.114017 
L 214.043203 404.960509 
L 177.936576 404.960509 
L 141.829948 404.960509 
L 105.723321 404.960509 
" clip-path="url(#pfcd5e60d8a)" style="fill: none; stroke: #c200e0; stroke-opacity: 0.9; stroke-width: 3; stroke-linecap: round"/>
    <defs>
     <path id="m3be4973466" d="M 0 2.5 
C 0.663008 2.5 1.29895 2.236584 1.767767 1.767767 
C 2.236584 1.29895 2.5 0.663008 2.5 0 
C 2.5 -0.663008 2.236584 -1.29895 1.767767 -1.767767 
C 1.29895 -2.236584 0.663008 -2.5 0 -2.5 
C -0.663008 -2.5 -1.29895 -2.236584 -1.767767 -1.767767 
C -2.236584 -1.29895 -2.5 -0.663008 -2.5 0 
C -2.5 0.663008 -2.236584 1.29895 -1.767767 1.767767 
C -1.29895 2.236584 -0.663008 2.5 0 2.5 
z
" style="stroke: #c200e0; stroke-opacity: 0.9; stroke-width: 1.5"/>
    </defs>
    <g clip-path="url(#pfcd5e60d8a)">
     <use xlink:href="#m3be4973466" x="1080.602251" y="122.292414" style="fill: #c200e0; fill-opacity: 0.9; stroke: #c200e0; stroke-opacity: 0.9; stroke-width: 1.5"/>
     <use xlink:href="#m3be4973466" x="1044.495624" y="124.149687" style="fill: #c200e0; fill-opacity: 0.9; stroke: #c200e0; stroke-opacity: 0.9; stroke-width: 1.5"/>
     <use xlink:href="#m3be4973466" x="1008.388997" y="123.644157" style="fill: #c200e0; fill-opacity: 0.9; stroke: #c200e0; stroke-opacity: 0.9; stroke-width: 1.5"/>
     <use xlink:href="#m3be4973466" x="972.28237" y="122.292414" style="fill: #c200e0; fill-opacity: 0.9; stroke: #c200e0; stroke-opacity: 0.9; stroke-width: 1.5"/>
     <use xlink:href="#m3be4973466" x="936.175743" y="125.50143" style="fill: #c200e0; fill-opacity: 0.9; stroke: #c200e0; stroke-opacity: 0.9; stroke-width: 1.5"/>
     <use xlink:href="#m3be4973466" x="900.069116" y="262.631887" style="fill: #c200e0; fill-opacity: 0.9; stroke: #c200e0; stroke-opacity: 0.9; stroke-width: 1.5"/>
     <use xlink:href="#m3be4973466" x="863.962489" y="262.631887" style="fill: #c200e0; fill-opacity: 0.9; stroke: #c200e0; stroke-opacity: 0.9; stroke-width: 1.5"/>
     <use xlink:href="#m3be4973466" x="827.855862" y="262.631887" style="fill: #c200e0; fill-opacity: 0.9; stroke: #c200e0; stroke-opacity: 0.9; stroke-width: 1.5"/>
     <use xlink:href="#m3be4973466" x="791.749235" y="262.631887" style="fill: #c200e0; fill-opacity: 0.9; stroke: #c200e0; stroke-opacity: 0.9; stroke-width: 1.5"/>
     <use xlink:href="#m3be4973466" x="647.322727" y="405.103376" style="fill: #c200e0; fill-opacity: 0.9; stroke: #c200e0; stroke-opacity: 0.9; stroke-width: 1.5"/>
     <use xlink:href="#m3be4973466" x="611.2161" y="405.103376" style="fill: #c200e0; fill-opacity: 0.9; stroke: #c200e0; stroke-opacity: 0.9; stroke-width: 1.5"/>
     <use xlink:href="#m3be4973466" x="575.109473" y="287.227011" style="fill: #c200e0; fill-opacity: 0.9; stroke: #c200e0; stroke-opacity: 0.9; stroke-width: 1.5"/>
     <use xlink:href="#m3be4973466" x="539.002846" y="407.37826" style="fill: #c200e0; fill-opacity: 0.9; stroke: #c200e0; stroke-opacity: 0.9; stroke-width: 1.5"/>
     <use xlink:href="#m3be4973466" x="502.896219" y="406.850751" style="fill: #c200e0; fill-opacity: 0.9; stroke: #c200e0; stroke-opacity: 0.9; stroke-width: 1.5"/>
     <use xlink:href="#m3be4973466" x="466.789592" y="406.850751" style="fill: #c200e0; fill-opacity: 0.9; stroke: #c200e0; stroke-opacity: 0.9; stroke-width: 1.5"/>
     <use xlink:href="#m3be4973466" x="430.682965" y="404.367061" style="fill: #c200e0; fill-opacity: 0.9; stroke: #c200e0; stroke-opacity: 0.9; stroke-width: 1.5"/>
     <use xlink:href="#m3be4973466" x="394.576338" y="404.960509" style="fill: #c200e0; fill-opacity: 0.9; stroke: #c200e0; stroke-opacity: 0.9; stroke-width: 1.5"/>
     <use xlink:href="#m3be4973466" x="358.469711" y="395.278514" style="fill: #c200e0; fill-opacity: 0.9; stroke: #c200e0; stroke-opacity: 0.9; stroke-width: 1.5"/>
     <use xlink:href="#m3be4973466" x="322.363084" y="400.114017" style="fill: #c200e0; fill-opacity: 0.9; stroke: #c200e0; stroke-opacity: 0.9; stroke-width: 1.5"/>
     <use xlink:href="#m3be4973466" x="286.256457" y="400.114017" style="fill: #c200e0; fill-opacity: 0.9; stroke: #c200e0; stroke-opacity: 0.9; stroke-width: 1.5"/>
     <use xlink:href="#m3be4973466" x="250.14983" y="400.114017" style="fill: #c200e0; fill-opacity: 0.9; stroke: #c200e0; stroke-opacity: 0.9; stroke-width: 1.5"/>
     <use xlink:href="#m3be4973466" x="214.043203" y="404.960509" style="fill: #c200e0; fill-opacity: 0.9; stroke: #c200e0; stroke-opacity: 0.9; stroke-width: 1.5"/>
     <use xlink:href="#m3be4973466" x="177.936576" y="404.960509" style="fill: #c200e0; fill-opacity: 0.9; stroke: #c200e0; stroke-opacity: 0.9; stroke-width: 1.5"/>
     <use xlink:href="#m3be4973466" x="141.829948" y="404.960509" style="fill: #c200e0; fill-opacity: 0.9; stroke: #c200e0; stroke-opacity: 0.9; stroke-width: 1.5"/>
     <use xlink:href="#m3be4973466" x="105.723321" y="404.960509" style="fill: #c200e0; fill-opacity: 0.9; stroke: #c200e0; stroke-opacity: 0.9; stroke-width: 1.5"/>
    </g>
   </g>
   <g id="line2d_69">
    <path d="M 1080.602251 208.397329 
L 1044.495624 208.397329 
L 1008.388997 208.397329 
L 972.28237 208.397329 
L 936.175743 208.397329 
L 900.069116 208.397329 
L 863.962489 208.397329 
L 827.855862 208.397329 
L 791.749235 208.397329 
L 755.642608 208.397329 
L 719.535981 208.397329 
L 683.429354 208.397329 
L 647.322727 426.74225 
L 611.2161 426.74225 
L 575.109473 426.74225 
L 539.002846 426.74225 
L 502.896219 426.74225 
L 466.789592 426.74225 
L 430.682965 426.74225 
L 394.576338 426.74225 
L 358.469711 426.74225 
L 322.363084 426.74225 
" clip-path="url(#pfcd5e60d8a)" style="fill: none; stroke: #75e000; stroke-opacity: 0.9; stroke-width: 3; stroke-linecap: round"/>
    <defs>
     <path id="m887a8a2a90" d="M 0 2.5 
C 0.663008 2.5 1.29895 2.236584 1.767767 1.767767 
C 2.236584 1.29895 2.5 0.663008 2.5 0 
C 2.5 -0.663008 2.236584 -1.29895 1.767767 -1.767767 
C 1.29895 -2.236584 0.663008 -2.5 0 -2.5 
C -0.663008 -2.5 -1.29895 -2.236584 -1.767767 -1.767767 
C -2.236584 -1.29895 -2.5 -0.663008 -2.5 0 
C -2.5 0.663008 -2.236584 1.29895 -1.767767 1.767767 
C -1.29895 2.236584 -0.663008 2.5 0 2.5 
z
" style="stroke: #75e000; stroke-opacity: 0.9; stroke-width: 1.5"/>
    </defs>
    <g clip-path="url(#pfcd5e60d8a)">
     <use xlink:href="#m887a8a2a90" x="1080.602251" y="208.397329" style="fill: #75e000; fill-opacity: 0.9; stroke: #75e000; stroke-opacity: 0.9; stroke-width: 1.5"/>
     <use xlink:href="#m887a8a2a90" x="1044.495624" y="208.397329" style="fill: #75e000; fill-opacity: 0.9; stroke: #75e000; stroke-opacity: 0.9; stroke-width: 1.5"/>
     <use xlink:href="#m887a8a2a90" x="1008.388997" y="208.397329" style="fill: #75e000; fill-opacity: 0.9; stroke: #75e000; stroke-opacity: 0.9; stroke-width: 1.5"/>
     <use xlink:href="#m887a8a2a90" x="972.28237" y="208.397329" style="fill: #75e000; fill-opacity: 0.9; stroke: #75e000; stroke-opacity: 0.9; stroke-width: 1.5"/>
     <use xlink:href="#m887a8a2a90" x="936.175743" y="208.397329" style="fill: #75e000; fill-opacity: 0.9; stroke: #75e000; stroke-opacity: 0.9; stroke-width: 1.5"/>
     <use xlink:href="#m887a8a2a90" x="900.069116" y="208.397329" style="fill: #75e000; fill-opacity: 0.9; stroke: #75e000; stroke-opacity: 0.9; stroke-width: 1.5"/>
     <use xlink:href="#m887a8a2a90" x="863.962489" y="208.397329" style="fill: #75e000; fill-opacity: 0.9; stroke: #75e000; stroke-opacity: 0.9; stroke-width: 1.5"/>
     <use xlink:href="#m887a8a2a90" x="827.855862" y="208.397329" style="fill: #75e000; fill-opacity: 0.9; stroke: #75e000; stroke-opacity: 0.9; stroke-width: 1.5"/>
     <use xlink:href="#m887a8a2a90" x="791.749235" y="208.397329" style="fill: #75e000; fill-opacity: 0.9; stroke: #75e000; stroke-opacity: 0.9; stroke-width: 1.5"/>
     <use xlink:href="#m887a8a2a90" x="755.642608" y="208.397329" style="fill: #75e000; fill-opacity: 0.9; stroke: #75e000; stroke-opacity: 0.9; stroke-width: 1.5"/>
     <use xlink:href="#m887a8a2a90" x="719.535981" y="208.397329" style="fill: #75e000; fill-opacity: 0.9; stroke: #75e000; stroke-opacity: 0.9; stroke-width: 1.5"/>
     <use xlink:href="#m887a8a2a90" x="683.429354" y="208.397329" style="fill: #75e000; fill-opacity: 0.9; stroke: #75e000; stroke-opacity: 0.9; stroke-width: 1.5"/>
     <use xlink:href="#m887a8a2a90" x="647.322727" y="426.74225" style="fill: #75e000; fill-opacity: 0.9; stroke: #75e000; stroke-opacity: 0.9; stroke-width: 1.5"/>
     <use xlink:href="#m887a8a2a90" x="611.2161" y="426.74225" style="fill: #75e000; fill-opacity: 0.9; stroke: #75e000; stroke-opacity: 0.9; stroke-width: 1.5"/>
     <use xlink:href="#m887a8a2a90" x="575.109473" y="426.74225" style="fill: #75e000; fill-opacity: 0.9; stroke: #75e000; stroke-opacity: 0.9; stroke-width: 1.5"/>
     <use xlink:href="#m887a8a2a90" x="539.002846" y="426.74225" style="fill: #75e000; fill-opacity: 0.9; stroke: #75e000; stroke-opacity: 0.9; stroke-width: 1.5"/>
     <use xlink:href="#m887a8a2a90" x="502.896219" y="426.74225" style="fill: #75e000; fill-opacity: 0.9; stroke: #75e000; stroke-opacity: 0.9; stroke-width: 1.5"/>
     <use xlink:href="#m887a8a2a90" x="466.789592" y="426.74225" style="fill: #75e000; fill-opacity: 0.9; stroke: #75e000; stroke-opacity: 0.9; stroke-width: 1.5"/>
     <use xlink:href="#m887a8a2a90" x="430.682965" y="426.74225" style="fill: #75e000; fill-opacity: 0.9; stroke: #75e000; stroke-opacity: 0.9; stroke-width: 1.5"/>
     <use xlink:href="#m887a8a2a90" x="394.576338" y="426.74225" style="fill: #75e000; fill-opacity: 0.9; stroke: #75e000; stroke-opacity: 0.9; stroke-width: 1.5"/>
     <use xlink:href="#m887a8a2a90" x="358.469711" y="426.74225" style="fill: #75e000; fill-opacity: 0.9; stroke: #75e000; stroke-opacity: 0.9; stroke-width: 1.5"/>
     <use xlink:href="#m887a8a2a90" x="322.363084" y="426.74225" style="fill: #75e000; fill-opacity: 0.9; stroke: #75e000; stroke-opacity: 0.9; stroke-width: 1.5"/>
    </g>
   </g>
   <g id="line2d_70">
    <path d="M 1080.602251 159.646672 
L 1044.495624 159.646672 
L 1008.388997 162.427086 
L 972.28237 176.340145 
L 936.175743 201.385851 
L 900.069116 201.385851 
L 863.962489 201.385851 
L 827.855862 201.385851 
L 791.749235 201.385851 
L 755.642608 240.333626 
L 719.535981 240.333626 
L 683.429354 240.333626 
L 647.322727 240.333626 
L 611.2161 240.333626 
L 575.109473 311.767187 
L 539.002846 311.767187 
L 502.896219 311.767187 
L 466.789592 311.767187 
L 430.682965 308.393325 
L 394.576338 308.393325 
L 358.469711 308.393325 
L 322.363084 308.393325 
L 286.256457 308.393325 
L 250.14983 419.983536 
L 214.043203 419.983536 
L 177.936576 419.983536 
L 141.829948 419.983536 
L 105.723321 419.983536 
" clip-path="url(#pfcd5e60d8a)" style="fill: none; stroke: #e07a00; stroke-opacity: 0.9; stroke-width: 3; stroke-linecap: round"/>
    <defs>
     <path id="m4c430f3446" d="M 0 2.5 
C 0.663008 2.5 1.29895 2.236584 1.767767 1.767767 
C 2.236584 1.29895 2.5 0.663008 2.5 0 
C 2.5 -0.663008 2.236584 -1.29895 1.767767 -1.767767 
C 1.29895 -2.236584 0.663008 -2.5 0 -2.5 
C -0.663008 -2.5 -1.29895 -2.236584 -1.767767 -1.767767 
C -2.236584 -1.29895 -2.5 -0.663008 -2.5 0 
C -2.5 0.663008 -2.236584 1.29895 -1.767767 1.767767 
C -1.29895 2.236584 -0.663008 2.5 0 2.5 
z
" style="stroke: #e07a00; stroke-opacity: 0.9; stroke-width: 1.5"/>
    </defs>
    <g clip-path="url(#pfcd5e60d8a)">
     <use xlink:href="#m4c430f3446" x="1080.602251" y="159.646672" style="fill: #e07a00; fill-opacity: 0.9; stroke: #e07a00; stroke-opacity: 0.9; stroke-width: 1.5"/>
     <use xlink:href="#m4c430f3446" x="1044.495624" y="159.646672" style="fill: #e07a00; fill-opacity: 0.9; stroke: #e07a00; stroke-opacity: 0.9; stroke-width: 1.5"/>
     <use xlink:href="#m4c430f3446" x="1008.388997" y="162.427086" style="fill: #e07a00; fill-opacity: 0.9; stroke: #e07a00; stroke-opacity: 0.9; stroke-width: 1.5"/>
     <use xlink:href="#m4c430f3446" x="972.28237" y="176.340145" style="fill: #e07a00; fill-opacity: 0.9; stroke: #e07a00; stroke-opacity: 0.9; stroke-width: 1.5"/>
     <use xlink:href="#m4c430f3446" x="936.175743" y="201.385851" style="fill: #e07a00; fill-opacity: 0.9; stroke: #e07a00; stroke-opacity: 0.9; stroke-width: 1.5"/>
     <use xlink:href="#m4c430f3446" x="900.069116" y="201.385851" style="fill: #e07a00; fill-opacity: 0.9; stroke: #e07a00; stroke-opacity: 0.9; stroke-width: 1.5"/>
     <use xlink:href="#m4c430f3446" x="863.962489" y="201.385851" style="fill: #e07a00; fill-opacity: 0.9; stroke: #e07a00; stroke-opacity: 0.9; stroke-width: 1.5"/>
     <use xlink:href="#m4c430f3446" x="827.855862" y="201.385851" style="fill: #e07a00; fill-opacity: 0.9; stroke: #e07a00; stroke-opacity: 0.9; stroke-width: 1.5"/>
     <use xlink:href="#m4c430f3446" x="791.749235" y="201.385851" style="fill: #e07a00; fill-opacity: 0.9; stroke: #e07a00; stroke-opacity: 0.9; stroke-width: 1.5"/>
     <use xlink:href="#m4c430f3446" x="755.642608" y="240.333626" style="fill: #e07a00; fill-opacity: 0.9; stroke: #e07a00; stroke-opacity: 0.9; stroke-width: 1.5"/>
     <use xlink:href="#m4c430f3446" x="719.535981" y="240.333626" style="fill: #e07a00; fill-opacity: 0.9; stroke: #e07a00; stroke-opacity: 0.9; stroke-width: 1.5"/>
     <use xlink:href="#m4c430f3446" x="683.429354" y="240.333626" style="fill: #e07a00; fill-opacity: 0.9; stroke: #e07a00; stroke-opacity: 0.9; stroke-width: 1.5"/>
     <use xlink:href="#m4c430f3446" x="647.322727" y="240.333626" style="fill: #e07a00; fill-opacity: 0.9; stroke: #e07a00; stroke-opacity: 0.9; stroke-width: 1.5"/>
     <use xlink:href="#m4c430f3446" x="611.2161" y="240.333626" style="fill: #e07a00; fill-opacity: 0.9; stroke: #e07a00; stroke-opacity: 0.9; stroke-width: 1.5"/>
     <use xlink:href="#m4c430f3446" x="575.109473" y="311.767187" style="fill: #e07a00; fill-opacity: 0.9; stroke: #e07a00; stroke-opacity: 0.9; stroke-width: 1.5"/>
     <use xlink:href="#m4c430f3446" x="539.002846" y="311.767187" style="fill: #e07a00; fill-opacity: 0.9; stroke: #e07a00; stroke-opacity: 0.9; stroke-width: 1.5"/>
     <use xlink:href="#m4c430f3446" x="502.896219" y="311.767187" style="fill: #e07a00; fill-opacity: 0.9; stroke: #e07a00; stroke-opacity: 0.9; stroke-width: 1.5"/>
     <use xlink:href="#m4c430f3446" x="466.789592" y="311.767187" style="fill: #e07a00; fill-opacity: 0.9; stroke: #e07a00; stroke-opacity: 0.9; stroke-width: 1.5"/>
     <use xlink:href="#m4c430f3446" x="430.682965" y="308.393325" style="fill: #e07a00; fill-opacity: 0.9; stroke: #e07a00; stroke-opacity: 0.9; stroke-width: 1.5"/>
     <use xlink:href="#m4c430f3446" x="394.576338" y="308.393325" style="fill: #e07a00; fill-opacity: 0.9; stroke: #e07a00; stroke-opacity: 0.9; stroke-width: 1.5"/>
     <use xlink:href="#m4c430f3446" x="358.469711" y="308.393325" style="fill: #e07a00; fill-opacity: 0.9; stroke: #e07a00; stroke-opacity: 0.9; stroke-width: 1.5"/>
     <use xlink:href="#m4c430f3446" x="322.363084" y="308.393325" style="fill: #e07a00; fill-opacity: 0.9; stroke: #e07a00; stroke-opacity: 0.9; stroke-width: 1.5"/>
     <use xlink:href="#m4c430f3446" x="286.256457" y="308.393325" style="fill: #e07a00; fill-opacity: 0.9; stroke: #e07a00; stroke-opacity: 0.9; stroke-width: 1.5"/>
     <use xlink:href="#m4c430f3446" x="250.14983" y="419.983536" style="fill: #e07a00; fill-opacity: 0.9; stroke: #e07a00; stroke-opacity: 0.9; stroke-width: 1.5"/>
     <use xlink:href="#m4c430f3446" x="214.043203" y="419.983536" style="fill: #e07a00; fill-opacity: 0.9; stroke: #e07a00; stroke-opacity: 0.9; stroke-width: 1.5"/>
     <use xlink:href="#m4c430f3446" x="177.936576" y="419.983536" style="fill: #e07a00; fill-opacity: 0.9; stroke: #e07a00; stroke-opacity: 0.9; stroke-width: 1.5"/>
     <use xlink:href="#m4c430f3446" x="141.829948" y="419.983536" style="fill: #e07a00; fill-opacity: 0.9; stroke: #e07a00; stroke-opacity: 0.9; stroke-width: 1.5"/>
     <use xlink:href="#m4c430f3446" x="105.723321" y="419.983536" style="fill: #e07a00; fill-opacity: 0.9; stroke: #e07a00; stroke-opacity: 0.9; stroke-width: 1.5"/>
    </g>
   </g>
   <g id="line2d_71">
    <path d="M 105.723321 395.156781 
L 141.829948 396.577506 
L 177.936576 392.168407 
L 214.043203 390.931634 
L 250.14983 384.489087 
L 286.256457 373.58131 
L 322.363084 371.627778 
L 358.469711 367.061934 
L 394.576338 360.011093 
L 430.682965 339.831418 
L 466.789592 326.763001 
L 502.896219 325.748278 
L 539.002846 323.49014 
L 575.109473 310.531621 
L 611.2161 310.104983 
L 647.322727 291.986108 
L 683.429354 280.112575 
L 719.535981 275.493224 
L 755.642608 268.62736 
L 791.749235 263.513816 
L 827.855862 256.00191 
L 863.962489 245.817002 
L 900.069116 241.579317 
L 936.175743 229.220762 
L 972.28237 241.156211 
L 1008.388997 236.186083 
L 1044.495624 243.197562 
L 1080.602251 232.176897 
" clip-path="url(#pfcd5e60d8a)" style="fill: none; stroke-dasharray: 12.95,5.6; stroke-dashoffset: 0; stroke: #4800e0; stroke-opacity: 0.9; stroke-width: 3.5"/>
    <defs>
     <path id="m9937f09c10" d="M -2 2 
L 2 2 
L 2 -2 
L -2 -2 
z
" style="stroke: #4800e0; stroke-opacity: 0.9; stroke-width: 1.5; stroke-linejoin: miter"/>
    </defs>
    <g clip-path="url(#pfcd5e60d8a)">
     <use xlink:href="#m9937f09c10" x="105.723321" y="395.156781" style="fill: #4800e0; fill-opacity: 0.9; stroke: #4800e0; stroke-opacity: 0.9; stroke-width: 1.5; stroke-linejoin: miter"/>
     <use xlink:href="#m9937f09c10" x="141.829948" y="396.577506" style="fill: #4800e0; fill-opacity: 0.9; stroke: #4800e0; stroke-opacity: 0.9; stroke-width: 1.5; stroke-linejoin: miter"/>
     <use xlink:href="#m9937f09c10" x="177.936576" y="392.168407" style="fill: #4800e0; fill-opacity: 0.9; stroke: #4800e0; stroke-opacity: 0.9; stroke-width: 1.5; stroke-linejoin: miter"/>
     <use xlink:href="#m9937f09c10" x="214.043203" y="390.931634" style="fill: #4800e0; fill-opacity: 0.9; stroke: #4800e0; stroke-opacity: 0.9; stroke-width: 1.5; stroke-linejoin: miter"/>
     <use xlink:href="#m9937f09c10" x="250.14983" y="384.489087" style="fill: #4800e0; fill-opacity: 0.9; stroke: #4800e0; stroke-opacity: 0.9; stroke-width: 1.5; stroke-linejoin: miter"/>
     <use xlink:href="#m9937f09c10" x="286.256457" y="373.58131" style="fill: #4800e0; fill-opacity: 0.9; stroke: #4800e0; stroke-opacity: 0.9; stroke-width: 1.5; stroke-linejoin: miter"/>
     <use xlink:href="#m9937f09c10" x="322.363084" y="371.627778" style="fill: #4800e0; fill-opacity: 0.9; stroke: #4800e0; stroke-opacity: 0.9; stroke-width: 1.5; stroke-linejoin: miter"/>
     <use xlink:href="#m9937f09c10" x="358.469711" y="367.061934" style="fill: #4800e0; fill-opacity: 0.9; stroke: #4800e0; stroke-opacity: 0.9; stroke-width: 1.5; stroke-linejoin: miter"/>
     <use xlink:href="#m9937f09c10" x="394.576338" y="360.011093" style="fill: #4800e0; fill-opacity: 0.9; stroke: #4800e0; stroke-opacity: 0.9; stroke-width: 1.5; stroke-linejoin: miter"/>
     <use xlink:href="#m9937f09c10" x="430.682965" y="339.831418" style="fill: #4800e0; fill-opacity: 0.9; stroke: #4800e0; stroke-opacity: 0.9; stroke-width: 1.5; stroke-linejoin: miter"/>
     <use xlink:href="#m9937f09c10" x="466.789592" y="326.763001" style="fill: #4800e0; fill-opacity: 0.9; stroke: #4800e0; stroke-opacity: 0.9; stroke-width: 1.5; stroke-linejoin: miter"/>
     <use xlink:href="#m9937f09c10" x="502.896219" y="325.748278" style="fill: #4800e0; fill-opacity: 0.9; stroke: #4800e0; stroke-opacity: 0.9; stroke-width: 1.5; stroke-linejoin: miter"/>
     <use xlink:href="#m9937f09c10" x="539.002846" y="323.49014" style="fill: #4800e0; fill-opacity: 0.9; stroke: #4800e0; stroke-opacity: 0.9; stroke-width: 1.5; stroke-linejoin: miter"/>
     <use xlink:href="#m9937f09c10" x="575.109473" y="310.531621" style="fill: #4800e0; fill-opacity: 0.9; stroke: #4800e0; stroke-opacity: 0.9; stroke-width: 1.5; stroke-linejoin: miter"/>
     <use xlink:href="#m9937f09c10" x="611.2161" y="310.104983" style="fill: #4800e0; fill-opacity: 0.9; stroke: #4800e0; stroke-opacity: 0.9; stroke-width: 1.5; stroke-linejoin: miter"/>
     <use xlink:href="#m9937f09c10" x="647.322727" y="291.986108" style="fill: #4800e0; fill-opacity: 0.9; stroke: #4800e0; stroke-opacity: 0.9; stroke-width: 1.5; stroke-linejoin: miter"/>
     <use xlink:href="#m9937f09c10" x="683.429354" y="280.112575" style="fill: #4800e0; fill-opacity: 0.9; stroke: #4800e0; stroke-opacity: 0.9; stroke-width: 1.5; stroke-linejoin: miter"/>
     <use xlink:href="#m9937f09c10" x="719.535981" y="275.493224" style="fill: #4800e0; fill-opacity: 0.9; stroke: #4800e0; stroke-opacity: 0.9; stroke-width: 1.5; stroke-linejoin: miter"/>
     <use xlink:href="#m9937f09c10" x="755.642608" y="268.62736" style="fill: #4800e0; fill-opacity: 0.9; stroke: #4800e0; stroke-opacity: 0.9; stroke-width: 1.5; stroke-linejoin: miter"/>
     <use xlink:href="#m9937f09c10" x="791.749235" y="263.513816" style="fill: #4800e0; fill-opacity: 0.9; stroke: #4800e0; stroke-opacity: 0.9; stroke-width: 1.5; stroke-linejoin: miter"/>
     <use xlink:href="#m9937f09c10" x="827.855862" y="256.00191" style="fill: #4800e0; fill-opacity: 0.9; stroke: #4800e0; stroke-opacity: 0.9; stroke-width: 1.5; stroke-linejoin: miter"/>
     <use xlink:href="#m9937f09c10" x="863.962489" y="245.817002" style="fill: #4800e0; fill-opacity: 0.9; stroke: #4800e0; stroke-opacity: 0.9; stroke-width: 1.5; stroke-linejoin: miter"/>
     <use xlink:href="#m9937f09c10" x="900.069116" y="241.579317" style="fill: #4800e0; fill-opacity: 0.9; stroke: #4800e0; stroke-opacity: 0.9; stroke-width: 1.5; stroke-linejoin: miter"/>
     <use xlink:href="#m9937f09c10" x="936.175743" y="229.220762" style="fill: #4800e0; fill-opacity: 0.9; stroke: #4800e0; stroke-opacity: 0.9; stroke-width: 1.5; stroke-linejoin: miter"/>
     <use xlink:href="#m9937f09c10" x="972.28237" y="241.156211" style="fill: #4800e0; fill-opacity: 0.9; stroke: #4800e0; stroke-opacity: 0.9; stroke-width: 1.5; stroke-linejoin: miter"/>
     <use xlink:href="#m9937f09c10" x="1008.388997" y="236.186083" style="fill: #4800e0; fill-opacity: 0.9; stroke: #4800e0; stroke-opacity: 0.9; stroke-width: 1.5; stroke-linejoin: miter"/>
     <use xlink:href="#m9937f09c10" x="1044.495624" y="243.197562" style="fill: #4800e0; fill-opacity: 0.9; stroke: #4800e0; stroke-opacity: 0.9; stroke-width: 1.5; stroke-linejoin: miter"/>
     <use xlink:href="#m9937f09c10" x="1080.602251" y="232.176897" style="fill: #4800e0; fill-opacity: 0.9; stroke: #4800e0; stroke-opacity: 0.9; stroke-width: 1.5; stroke-linejoin: miter"/>
    </g>
   </g>
   <g id="patch_3">
    <path d="M 56.979375 426.74225 
L 56.979375 42.1 
" style="fill: none; stroke: #b0b0b0; stroke-width: 1.25; stroke-linejoin: miter; stroke-linecap: square"/>
   </g>
   <g id="patch_4">
    <path d="M 56.979375 426.74225 
L 1129.346198 426.74225 
" style="fill: none; stroke: #b0b0b0; stroke-width: 1.25; stroke-linejoin: miter; stroke-linecap: square"/>
   </g>
   <g id="text_17">
    <!-- Women in Parliament (%)  Key Arab Countries vs Arab Average -->
    <g style="fill: #262626" transform="translate(308.389349 22.1) scale(0.2 -0.2)">
     <defs>
      <path id="Outfit-Medium-2013" d="M 390 1331 
L 390 1933 
L 3149 1933 
L 3149 1331 
L 390 1331 
z
" transform="scale(0.015625)"/>
      <path id="Outfit-Medium-4b" d="M 3194 0 
L 1120 2336 
L 3149 4480 
L 4090 4480 
L 1850 2150 
L 1850 2554 
L 4154 0 
L 3194 0 
z
M 486 0 
L 486 4480 
L 1222 4480 
L 1222 0 
L 486 0 
z
" transform="scale(0.015625)"/>
      <path id="Outfit-Medium-79" d="M 1382 -32 
L 70 3072 
L 845 3072 
L 1741 794 
L 1517 794 
L 2464 3072 
L 3245 3072 
L 1818 -32 
L 1382 -32 
z
M 467 -1280 
L 1421 685 
L 1818 -32 
L 1248 -1280 
L 467 -1280 
z
" transform="scale(0.015625)"/>
      <path id="Outfit-Medium-41" d="M 154 0 
L 1997 4480 
L 2509 4480 
L 4339 0 
L 3546 0 
L 2112 3629 
L 2381 3629 
L 934 0 
L 154 0 
z
M 1062 864 
L 1062 1504 
L 3437 1504 
L 3437 864 
L 1062 864 
z
" transform="scale(0.015625)"/>
      <path id="Outfit-Medium-62" d="M 2035 -64 
Q 1683 -64 1408 86 
Q 1133 237 976 499 
Q 819 762 819 1094 
L 819 1978 
Q 819 2310 979 2572 
Q 1139 2835 1414 2985 
Q 1690 3136 2035 3136 
Q 2451 3136 2787 2921 
Q 3123 2707 3318 2345 
Q 3514 1984 3514 1530 
Q 3514 1082 3318 720 
Q 3123 358 2787 147 
Q 2451 -64 2035 -64 
z
M 390 0 
L 390 4608 
L 1094 4608 
L 1094 2317 
L 973 1574 
L 1094 826 
L 1094 0 
L 390 0 
z
M 1920 602 
Q 2176 602 2371 720 
Q 2566 838 2678 1049 
Q 2790 1261 2790 1536 
Q 2790 1811 2678 2022 
Q 2566 2234 2371 2352 
Q 2176 2470 1920 2470 
Q 1664 2470 1465 2352 
Q 1267 2234 1158 2022 
Q 1050 1811 1050 1536 
Q 1050 1261 1158 1049 
Q 1267 838 1465 720 
Q 1664 602 1920 602 
z
" transform="scale(0.015625)"/>
      <path id="Outfit-Medium-43" d="M 2522 -64 
Q 2035 -64 1622 112 
Q 1210 288 902 605 
Q 595 922 428 1341 
Q 262 1760 262 2240 
Q 262 2720 428 3139 
Q 595 3558 902 3872 
Q 1210 4186 1622 4365 
Q 2035 4544 2522 4544 
Q 3066 4544 3462 4365 
Q 3859 4186 4166 3878 
L 3667 3379 
Q 3469 3597 3184 3718 
Q 2899 3840 2522 3840 
Q 2189 3840 1913 3725 
Q 1638 3610 1436 3395 
Q 1235 3181 1126 2886 
Q 1018 2592 1018 2240 
Q 1018 1888 1126 1593 
Q 1235 1299 1436 1084 
Q 1638 870 1913 755 
Q 2189 640 2522 640 
Q 2931 640 3216 765 
Q 3501 890 3699 1107 
L 4198 608 
Q 3891 294 3475 115 
Q 3059 -64 2522 -64 
z
" transform="scale(0.015625)"/>
      <path id="Outfit-Medium-75" d="M 1651 -64 
Q 1261 -64 957 109 
Q 653 282 483 586 
Q 314 890 314 1286 
L 314 3072 
L 1018 3072 
L 1018 1318 
Q 1018 1094 1091 937 
Q 1165 781 1309 697 
Q 1453 614 1651 614 
Q 1958 614 2121 796 
Q 2285 979 2285 1318 
L 2285 3072 
L 2989 3072 
L 2989 1286 
Q 2989 883 2819 579 
Q 2650 275 2349 105 
Q 2048 -64 1651 -64 
z
" transform="scale(0.015625)"/>
      <path id="Outfit-Medium-73" d="M 1395 -64 
Q 1139 -64 902 3 
Q 666 70 467 195 
Q 269 320 122 499 
L 570 947 
Q 730 762 938 669 
Q 1146 576 1408 576 
Q 1645 576 1766 646 
Q 1888 717 1888 851 
Q 1888 992 1773 1069 
Q 1658 1146 1475 1200 
Q 1293 1254 1091 1312 
Q 890 1370 707 1469 
Q 525 1568 409 1741 
Q 294 1914 294 2189 
Q 294 2483 432 2694 
Q 570 2906 822 3021 
Q 1075 3136 1427 3136 
Q 1798 3136 2083 3005 
Q 2368 2874 2560 2611 
L 2112 2163 
Q 1978 2330 1805 2413 
Q 1632 2496 1408 2496 
Q 1197 2496 1081 2432 
Q 966 2368 966 2246 
Q 966 2118 1081 2048 
Q 1197 1978 1379 1926 
Q 1562 1875 1763 1814 
Q 1965 1754 2147 1648 
Q 2330 1542 2445 1366 
Q 2560 1190 2560 909 
Q 2560 461 2246 198 
Q 1933 -64 1395 -64 
z
" transform="scale(0.015625)"/>
      <path id="Outfit-Medium-76" d="M 1427 0 
L 26 3072 
L 806 3072 
L 1875 570 
L 1414 570 
L 2490 3072 
L 3238 3072 
L 1837 0 
L 1427 0 
z
" transform="scale(0.015625)"/>
      <path id="Outfit-Medium-67" d="M 1670 -1344 
Q 1184 -1344 819 -1168 
Q 454 -992 230 -672 
L 691 -211 
Q 877 -442 1113 -557 
Q 1350 -672 1683 -672 
Q 2099 -672 2342 -457 
Q 2586 -243 2586 128 
L 2586 883 
L 2707 1562 
L 2586 2246 
L 2586 3072 
L 3290 3072 
L 3290 128 
Q 3290 -314 3085 -643 
Q 2880 -973 2515 -1158 
Q 2150 -1344 1670 -1344 
z
M 1638 64 
Q 1229 64 899 265 
Q 570 467 381 819 
Q 192 1171 192 1606 
Q 192 2042 381 2387 
Q 570 2733 899 2934 
Q 1229 3136 1638 3136 
Q 2003 3136 2278 2989 
Q 2554 2842 2707 2582 
Q 2861 2323 2861 1978 
L 2861 1222 
Q 2861 883 2704 620 
Q 2547 358 2272 211 
Q 1997 64 1638 64 
z
M 1779 730 
Q 2035 730 2227 838 
Q 2419 947 2524 1142 
Q 2630 1338 2630 1600 
Q 2630 1862 2524 2057 
Q 2419 2253 2227 2361 
Q 2035 2470 1779 2470 
Q 1523 2470 1328 2361 
Q 1133 2253 1024 2057 
Q 915 1862 915 1600 
Q 915 1344 1024 1145 
Q 1133 947 1328 838 
Q 1523 730 1779 730 
z
" transform="scale(0.015625)"/>
     </defs>
     <use xlink:href="#Outfit-Medium-57"/>
     <use xlink:href="#Outfit-Medium-6f" transform="translate(98.199982 0)"/>
     <use xlink:href="#Outfit-Medium-6d" transform="translate(154.499969 0)"/>
     <use xlink:href="#Outfit-Medium-65" transform="translate(240.59996 0)"/>
     <use xlink:href="#Outfit-Medium-6e" transform="translate(293.999954 0)"/>
     <use xlink:href="#Outfit-Medium-20" transform="translate(349.099945 0)"/>
     <use xlink:href="#Outfit-Medium-69" transform="translate(369.09993 0)"/>
     <use xlink:href="#Outfit-Medium-6e" transform="translate(392.499924 0)"/>
     <use xlink:href="#Outfit-Medium-20" transform="translate(447.599915 0)"/>
     <use xlink:href="#Outfit-Medium-50" transform="translate(467.599899 0)"/>
     <use xlink:href="#Outfit-Medium-61" transform="translate(527.999893 0)"/>
     <use xlink:href="#Outfit-Medium-72" transform="translate(585.999878 0)"/>
     <use xlink:href="#Outfit-Medium-6c" transform="translate(628.499863 0)"/>
     <use xlink:href="#Outfit-Medium-69" transform="translate(651.69986 0)"/>
     <use xlink:href="#Outfit-Medium-61" transform="translate(675.099854 0)"/>
     <use xlink:href="#Outfit-Medium-6d" transform="translate(733.099838 0)"/>
     <use xlink:href="#Outfit-Medium-65" transform="translate(819.199829 0)"/>
     <use xlink:href="#Outfit-Medium-6e" transform="translate(872.599823 0)"/>
     <use xlink:href="#Outfit-Medium-74" transform="translate(927.699814 0)"/>
     <use xlink:href="#Outfit-Medium-20" transform="translate(965.499802 0)"/>
     <use xlink:href="#Outfit-Medium-28" transform="translate(985.499786 0)"/>
     <use xlink:href="#Outfit-Medium-25" transform="translate(1015.39978 0)"/>
     <use xlink:href="#Outfit-Medium-29" transform="translate(1081.199768 0)"/>
     <use xlink:href="#Outfit-Medium-20" transform="translate(1111.099762 0)"/>
     <use xlink:href="#Outfit-Medium-2013" transform="translate(1131.099747 0)"/>
     <use xlink:href="#Outfit-Medium-20" transform="translate(1186.399734 0)"/>
     <use xlink:href="#Outfit-Medium-4b" transform="translate(1206.399719 0)"/>
     <use xlink:href="#Outfit-Medium-65" transform="translate(1273.599716 0)"/>
     <use xlink:href="#Outfit-Medium-79" transform="translate(1326.99971 0)"/>
     <use xlink:href="#Outfit-Medium-20" transform="translate(1378.799698 0)"/>
     <use xlink:href="#Outfit-Medium-41" transform="translate(1398.799683 0)"/>
     <use xlink:href="#Outfit-Medium-72" transform="translate(1468.999664 0)"/>
     <use xlink:href="#Outfit-Medium-61" transform="translate(1511.499649 0)"/>
     <use xlink:href="#Outfit-Medium-62" transform="translate(1569.499634 0)"/>
     <use xlink:href="#Outfit-Medium-20" transform="translate(1627.499619 0)"/>
     <use xlink:href="#Outfit-Medium-43" transform="translate(1647.499603 0)"/>
     <use xlink:href="#Outfit-Medium-6f" transform="translate(1715.799591 0)"/>
     <use xlink:href="#Outfit-Medium-75" transform="translate(1772.099579 0)"/>
     <use xlink:href="#Outfit-Medium-6e" transform="translate(1823.799576 0)"/>
     <use xlink:href="#Outfit-Medium-74" transform="translate(1878.899567 0)"/>
     <use xlink:href="#Outfit-Medium-72" transform="translate(1916.699554 0)"/>
     <use xlink:href="#Outfit-Medium-69" transform="translate(1959.199539 0)"/>
     <use xlink:href="#Outfit-Medium-65" transform="translate(1982.599533 0)"/>
     <use xlink:href="#Outfit-Medium-73" transform="translate(2035.999527 0)"/>
     <use xlink:href="#Outfit-Medium-20" transform="translate(2078.999512 0)"/>
     <use xlink:href="#Outfit-Medium-76" transform="translate(2098.999496 0)"/>
     <use xlink:href="#Outfit-Medium-73" transform="translate(2149.999481 0)"/>
     <use xlink:href="#Outfit-Medium-20" transform="translate(2192.999466 0)"/>
     <use xlink:href="#Outfit-Medium-41" transform="translate(2212.999451 0)"/>
     <use xlink:href="#Outfit-Medium-72" transform="translate(2283.199432 0)"/>
     <use xlink:href="#Outfit-Medium-61" transform="translate(2325.699417 0)"/>
     <use xlink:href="#Outfit-Medium-62" transform="translate(2383.699402 0)"/>
     <use xlink:href="#Outfit-Medium-20" transform="translate(2441.699387 0)"/>
     <use xlink:href="#Outfit-Medium-41" transform="translate(2461.699371 0)"/>
     <use xlink:href="#Outfit-Medium-76" transform="translate(2531.899353 0)"/>
     <use xlink:href="#Outfit-Medium-65" transform="translate(2582.899338 0)"/>
     <use xlink:href="#Outfit-Medium-72" transform="translate(2636.299332 0)"/>
     <use xlink:href="#Outfit-Medium-61" transform="translate(2678.799316 0)"/>
     <use xlink:href="#Outfit-Medium-67" transform="translate(2736.799301 0)"/>
     <use xlink:href="#Outfit-Medium-65" transform="translate(2794.299286 0)"/>
    </g>
   </g>
   <g id="legend_1">
    <g id="line2d_72">
     <path d="M 396.657864 511.310667 
L 407.657864 511.310667 
L 418.657864 511.310667 
" style="fill: none; stroke: #e00700; stroke-opacity: 0.9; stroke-width: 3; stroke-linecap: round"/>
     <g>
      <use xlink:href="#m23524c975f" x="407.657864" y="511.310667" style="fill: #e00700; fill-opacity: 0.9; stroke: #e00700; stroke-opacity: 0.9; stroke-width: 1.5"/>
     </g>
    </g>
    <g id="text_18">
     <!-- Lebanon -->
     <g style="fill: #262626" transform="translate(427.457864 515.160667) scale(0.13 -0.13)">
      <defs>
       <path id="Outfit-Regular-4c" d="M 525 0 
L 525 4442 
L 1126 4442 
L 1126 0 
L 525 0 
z
M 934 0 
L 934 550 
L 3315 550 
L 3315 0 
L 934 0 
z
" transform="scale(0.015625)"/>
       <path id="Outfit-Regular-65" d="M 1830 -64 
Q 1376 -64 1011 144 
Q 646 352 435 710 
Q 224 1069 224 1523 
Q 224 1971 432 2329 
Q 640 2688 995 2896 
Q 1350 3104 1792 3104 
Q 2214 3104 2537 2912 
Q 2861 2720 3043 2381 
Q 3226 2042 3226 1613 
Q 3226 1549 3219 1475 
Q 3213 1402 3194 1306 
L 627 1306 
L 627 1786 
L 2886 1786 
L 2675 1600 
Q 2675 1907 2566 2121 
Q 2458 2336 2259 2454 
Q 2061 2573 1779 2573 
Q 1485 2573 1261 2445 
Q 1037 2317 915 2086 
Q 794 1856 794 1542 
Q 794 1222 922 982 
Q 1050 742 1286 611 
Q 1523 480 1830 480 
Q 2086 480 2300 569 
Q 2515 659 2669 838 
L 3040 461 
Q 2822 205 2505 70 
Q 2189 -64 1830 -64 
z
" transform="scale(0.015625)"/>
       <path id="Outfit-Regular-62" d="M 2022 -64 
Q 1677 -64 1398 80 
Q 1120 224 953 480 
Q 787 736 768 1062 
L 768 1978 
Q 787 2310 956 2563 
Q 1126 2816 1404 2960 
Q 1683 3104 2022 3104 
Q 2438 3104 2774 2893 
Q 3110 2682 3302 2323 
Q 3494 1965 3494 1517 
Q 3494 1069 3302 710 
Q 3110 352 2774 144 
Q 2438 -64 2022 -64 
z
M 422 0 
L 422 4570 
L 998 4570 
L 998 2298 
L 890 1562 
L 998 819 
L 998 0 
L 422 0 
z
M 1926 480 
Q 2214 480 2432 614 
Q 2650 749 2778 982 
Q 2906 1216 2906 1523 
Q 2906 1824 2778 2061 
Q 2650 2298 2432 2429 
Q 2214 2560 1933 2560 
Q 1645 2560 1427 2429 
Q 1210 2298 1088 2061 
Q 966 1824 966 1517 
Q 966 1216 1084 982 
Q 1203 749 1424 614 
Q 1645 480 1926 480 
z
" transform="scale(0.015625)"/>
       <path id="Outfit-Regular-61" d="M 1715 -64 
Q 1299 -64 960 144 
Q 621 352 425 710 
Q 230 1069 230 1517 
Q 230 1965 425 2323 
Q 621 2682 957 2893 
Q 1293 3104 1715 3104 
Q 2061 3104 2333 2960 
Q 2605 2816 2771 2563 
Q 2938 2310 2957 1978 
L 2957 1062 
Q 2938 736 2774 480 
Q 2611 224 2339 80 
Q 2067 -64 1715 -64 
z
M 1811 480 
Q 2240 480 2502 771 
Q 2765 1062 2765 1517 
Q 2765 1830 2646 2064 
Q 2528 2298 2310 2429 
Q 2093 2560 1805 2560 
Q 1517 2560 1296 2425 
Q 1075 2291 950 2057 
Q 826 1824 826 1523 
Q 826 1216 950 982 
Q 1075 749 1299 614 
Q 1523 480 1811 480 
z
M 2726 0 
L 2726 819 
L 2835 1562 
L 2726 2298 
L 2726 3040 
L 3309 3040 
L 3309 0 
L 2726 0 
z
" transform="scale(0.015625)"/>
       <path id="Outfit-Regular-6e" d="M 2573 0 
L 2573 1773 
Q 2573 2118 2355 2342 
Q 2138 2566 1792 2566 
Q 1562 2566 1382 2464 
Q 1203 2362 1100 2182 
Q 998 2003 998 1773 
L 762 1907 
Q 762 2253 915 2521 
Q 1069 2790 1344 2947 
Q 1619 3104 1965 3104 
Q 2310 3104 2576 2931 
Q 2842 2758 2995 2480 
Q 3149 2202 3149 1888 
L 3149 0 
L 2573 0 
z
M 422 0 
L 422 3040 
L 998 3040 
L 998 0 
L 422 0 
z
" transform="scale(0.015625)"/>
       <path id="Outfit-Regular-6f" d="M 1811 -64 
Q 1363 -64 1004 147 
Q 646 358 435 720 
Q 224 1082 224 1530 
Q 224 1971 435 2326 
Q 646 2682 1004 2893 
Q 1363 3104 1811 3104 
Q 2253 3104 2614 2896 
Q 2976 2688 3187 2329 
Q 3398 1971 3398 1530 
Q 3398 1082 3187 720 
Q 2976 358 2614 147 
Q 2253 -64 1811 -64 
z
M 1811 493 
Q 2099 493 2323 627 
Q 2547 762 2675 995 
Q 2803 1229 2803 1530 
Q 2803 1824 2672 2054 
Q 2541 2285 2320 2416 
Q 2099 2547 1811 2547 
Q 1523 2547 1299 2416 
Q 1075 2285 947 2054 
Q 819 1824 819 1530 
Q 819 1229 947 995 
Q 1075 762 1299 627 
Q 1523 493 1811 493 
z
" transform="scale(0.015625)"/>
      </defs>
      <use xlink:href="#Outfit-Regular-4c"/>
      <use xlink:href="#Outfit-Regular-65" transform="translate(55.199997 0)"/>
      <use xlink:href="#Outfit-Regular-62" transform="translate(108.799988 0)"/>
      <use xlink:href="#Outfit-Regular-61" transform="translate(166.999985 0)"/>
      <use xlink:href="#Outfit-Regular-6e" transform="translate(225.199982 0)"/>
      <use xlink:href="#Outfit-Regular-6f" transform="translate(279.999969 0)"/>
      <use xlink:href="#Outfit-Regular-6e" transform="translate(336.59996 0)"/>
     </g>
    </g>
    <g id="line2d_73">
     <path d="M 396.657864 528.681292 
L 407.657864 528.681292 
L 418.657864 528.681292 
" style="fill: none; stroke: #c200e0; stroke-opacity: 0.9; stroke-width: 3; stroke-linecap: round"/>
     <g>
      <use xlink:href="#m3be4973466" x="407.657864" y="528.681292" style="fill: #c200e0; fill-opacity: 0.9; stroke: #c200e0; stroke-opacity: 0.9; stroke-width: 1.5"/>
     </g>
    </g>
    <g id="text_19">
     <!-- Egypt, Arab Rep. -->
     <g style="fill: #262626" transform="translate(427.457864 532.531292) scale(0.13 -0.13)">
      <defs>
       <path id="Outfit-Regular-45" d="M 525 0 
L 525 4442 
L 1126 4442 
L 1126 0 
L 525 0 
z
M 934 0 
L 934 550 
L 3482 550 
L 3482 0 
L 934 0 
z
M 934 2010 
L 934 2534 
L 3270 2534 
L 3270 2010 
L 934 2010 
z
M 934 3891 
L 934 4442 
L 3450 4442 
L 3450 3891 
L 934 3891 
z
" transform="scale(0.015625)"/>
       <path id="Outfit-Regular-67" d="M 1683 -1338 
Q 1216 -1338 854 -1165 
Q 493 -992 275 -678 
L 646 -301 
Q 832 -538 1088 -662 
Q 1344 -787 1696 -787 
Q 2163 -787 2435 -540 
Q 2707 -294 2707 122 
L 2707 877 
L 2810 1562 
L 2707 2240 
L 2707 3040 
L 3283 3040 
L 3283 122 
Q 3283 -314 3081 -640 
Q 2880 -966 2518 -1152 
Q 2157 -1338 1683 -1338 
z
M 1683 51 
Q 1267 51 937 249 
Q 608 448 416 797 
Q 224 1146 224 1581 
Q 224 2016 416 2358 
Q 608 2701 937 2902 
Q 1267 3104 1683 3104 
Q 2042 3104 2317 2963 
Q 2592 2822 2755 2569 
Q 2918 2317 2931 1978 
L 2931 1171 
Q 2912 838 2749 585 
Q 2586 333 2310 192 
Q 2035 51 1683 51 
z
M 1798 595 
Q 2080 595 2294 716 
Q 2509 838 2624 1059 
Q 2739 1280 2739 1574 
Q 2739 1869 2620 2089 
Q 2502 2310 2291 2435 
Q 2080 2560 1792 2560 
Q 1504 2560 1286 2435 
Q 1069 2310 944 2089 
Q 819 1869 819 1581 
Q 819 1293 944 1069 
Q 1069 845 1289 720 
Q 1510 595 1798 595 
z
" transform="scale(0.015625)"/>
       <path id="Outfit-Regular-79" d="M 1421 -26 
L 102 3040 
L 742 3040 
L 1722 640 
L 1517 640 
L 2547 3040 
L 3187 3040 
L 1766 -26 
L 1421 -26 
z
M 550 -1274 
L 1446 563 
L 1766 -26 
L 1190 -1274 
L 550 -1274 
z
" transform="scale(0.015625)"/>
       <path id="Outfit-Regular-70" d="M 2022 -64 
Q 1677 -64 1398 80 
Q 1120 224 953 480 
Q 787 736 768 1062 
L 768 1978 
Q 787 2310 956 2563 
Q 1126 2816 1404 2960 
Q 1683 3104 2022 3104 
Q 2438 3104 2774 2893 
Q 3110 2682 3302 2323 
Q 3494 1965 3494 1517 
Q 3494 1069 3302 710 
Q 3110 352 2774 144 
Q 2438 -64 2022 -64 
z
M 422 -1274 
L 422 3040 
L 998 3040 
L 998 2240 
L 890 1504 
L 998 762 
L 998 -1274 
L 422 -1274 
z
M 1926 480 
Q 2214 480 2432 614 
Q 2650 749 2778 982 
Q 2906 1216 2906 1523 
Q 2906 1824 2778 2061 
Q 2650 2298 2432 2429 
Q 2214 2560 1933 2560 
Q 1645 2560 1427 2429 
Q 1210 2298 1088 2061 
Q 966 1824 966 1517 
Q 966 1216 1084 982 
Q 1203 749 1424 614 
Q 1645 480 1926 480 
z
" transform="scale(0.015625)"/>
       <path id="Outfit-Regular-74" d="M 890 0 
L 890 4314 
L 1466 4314 
L 1466 0 
L 890 0 
z
M 141 2515 
L 141 3040 
L 2214 3040 
L 2214 2515 
L 141 2515 
z
" transform="scale(0.015625)"/>
       <path id="Outfit-Regular-2c" d="M 454 -704 
L 851 58 
L 1056 109 
Q 1024 38 976 -6 
Q 928 -51 858 -51 
Q 723 -51 611 61 
Q 499 173 499 339 
Q 499 525 620 649 
Q 742 774 928 774 
Q 1094 774 1222 649 
Q 1350 525 1350 339 
Q 1350 269 1321 169 
Q 1293 70 1210 -83 
L 787 -883 
L 454 -704 
z
" transform="scale(0.015625)"/>
       <path id="Outfit-Regular-20" transform="scale(0.015625)"/>
       <path id="Outfit-Regular-41" d="M 198 0 
L 2016 4442 
L 2451 4442 
L 4262 0 
L 3610 0 
L 2118 3757 
L 2342 3757 
L 838 0 
L 198 0 
z
M 1062 1005 
L 1062 1530 
L 3398 1530 
L 3398 1005 
L 1062 1005 
z
" transform="scale(0.015625)"/>
       <path id="Outfit-Regular-72" d="M 422 0 
L 422 3040 
L 998 3040 
L 998 0 
L 422 0 
z
M 998 1734 
L 781 1830 
Q 781 2413 1049 2758 
Q 1318 3104 1824 3104 
Q 2054 3104 2240 3024 
Q 2426 2944 2586 2758 
L 2208 2368 
Q 2112 2470 1997 2515 
Q 1882 2560 1728 2560 
Q 1408 2560 1203 2355 
Q 998 2150 998 1734 
z
" transform="scale(0.015625)"/>
       <path id="Outfit-Regular-52" d="M 928 1933 
L 928 2438 
L 2131 2438 
Q 2522 2438 2733 2636 
Q 2944 2835 2944 3174 
Q 2944 3494 2736 3705 
Q 2528 3917 2138 3917 
L 928 3917 
L 928 4442 
L 2157 4442 
Q 2579 4442 2892 4278 
Q 3206 4115 3376 3833 
Q 3546 3552 3546 3187 
Q 3546 2810 3376 2528 
Q 3206 2246 2892 2089 
Q 2579 1933 2157 1933 
L 928 1933 
z
M 525 0 
L 525 4442 
L 1126 4442 
L 1126 0 
L 525 0 
z
M 3085 0 
L 1472 1990 
L 2042 2189 
L 3846 0 
L 3085 0 
z
" transform="scale(0.015625)"/>
       <path id="Outfit-Regular-2e" d="M 928 -64 
Q 749 -64 630 61 
Q 512 186 512 358 
Q 512 538 630 656 
Q 749 774 928 774 
Q 1107 774 1225 656 
Q 1344 538 1344 358 
Q 1344 186 1225 61 
Q 1107 -64 928 -64 
z
" transform="scale(0.015625)"/>
      </defs>
      <use xlink:href="#Outfit-Regular-45"/>
      <use xlink:href="#Outfit-Regular-67" transform="translate(58.999985 0)"/>
      <use xlink:href="#Outfit-Regular-79" transform="translate(116.899979 0)"/>
      <use xlink:href="#Outfit-Regular-70" transform="translate(168.299973 0)"/>
      <use xlink:href="#Outfit-Regular-74" transform="translate(226.499969 0)"/>
      <use xlink:href="#Outfit-Regular-2c" transform="translate(263.299957 0)"/>
      <use xlink:href="#Outfit-Regular-20" transform="translate(290.799942 0)"/>
      <use xlink:href="#Outfit-Regular-41" transform="translate(311.59993 0)"/>
      <use xlink:href="#Outfit-Regular-72" transform="translate(381.199921 0)"/>
      <use xlink:href="#Outfit-Regular-61" transform="translate(423.099915 0)"/>
      <use xlink:href="#Outfit-Regular-62" transform="translate(481.299911 0)"/>
      <use xlink:href="#Outfit-Regular-20" transform="translate(539.499908 0)"/>
      <use xlink:href="#Outfit-Regular-52" transform="translate(560.299896 0)"/>
      <use xlink:href="#Outfit-Regular-65" transform="translate(623.299881 0)"/>
      <use xlink:href="#Outfit-Regular-70" transform="translate(676.899872 0)"/>
      <use xlink:href="#Outfit-Regular-2e" transform="translate(735.099869 0)"/>
     </g>
    </g>
    <g id="line2d_74">
     <path d="M 548.792083 511.310667 
L 559.792083 511.310667 
L 570.792083 511.310667 
" style="fill: none; stroke: #75e000; stroke-opacity: 0.9; stroke-width: 3; stroke-linecap: round"/>
     <g>
      <use xlink:href="#m887a8a2a90" x="559.792083" y="511.310667" style="fill: #75e000; fill-opacity: 0.9; stroke: #75e000; stroke-opacity: 0.9; stroke-width: 1.5"/>
     </g>
    </g>
    <g id="text_20">
     <!-- Saudi Arabia -->
     <g style="fill: #262626" transform="translate(579.592083 515.160667) scale(0.13 -0.13)">
      <defs>
       <path id="Outfit-Regular-53" d="M 1760 -64 
Q 1235 -64 864 128 
Q 493 320 205 685 
L 614 1094 
Q 826 800 1101 649 
Q 1376 499 1779 499 
Q 2176 499 2416 672 
Q 2656 845 2656 1146 
Q 2656 1395 2541 1548 
Q 2426 1702 2230 1801 
Q 2035 1901 1804 1981 
Q 1574 2061 1344 2153 
Q 1114 2246 922 2384 
Q 730 2522 611 2746 
Q 493 2970 493 3309 
Q 493 3686 675 3952 
Q 858 4218 1174 4362 
Q 1491 4506 1888 4506 
Q 2323 4506 2668 4336 
Q 3014 4166 3232 3891 
L 2822 3482 
Q 2624 3712 2397 3827 
Q 2170 3942 1875 3942 
Q 1517 3942 1305 3785 
Q 1094 3629 1094 3347 
Q 1094 3123 1212 2985 
Q 1331 2848 1523 2752 
Q 1715 2656 1948 2576 
Q 2182 2496 2412 2400 
Q 2643 2304 2835 2157 
Q 3027 2010 3145 1776 
Q 3264 1542 3264 1190 
Q 3264 602 2857 269 
Q 2451 -64 1760 -64 
z
" transform="scale(0.015625)"/>
       <path id="Outfit-Regular-75" d="M 1651 -64 
Q 1274 -64 976 105 
Q 678 275 512 576 
Q 346 877 346 1274 
L 346 3040 
L 922 3040 
L 922 1299 
Q 922 1050 1008 867 
Q 1094 685 1260 589 
Q 1427 493 1651 493 
Q 1990 493 2182 707 
Q 2374 922 2374 1299 
L 2374 3040 
L 2950 3040 
L 2950 1274 
Q 2950 877 2784 576 
Q 2618 275 2326 105 
Q 2035 -64 1651 -64 
z
" transform="scale(0.015625)"/>
       <path id="Outfit-Regular-64" d="M 1709 -64 
Q 1286 -64 953 144 
Q 621 352 425 710 
Q 230 1069 230 1517 
Q 230 1965 425 2323 
Q 621 2682 953 2893 
Q 1286 3104 1709 3104 
Q 2048 3104 2323 2960 
Q 2598 2816 2768 2563 
Q 2938 2310 2957 1978 
L 2957 1062 
Q 2938 736 2771 480 
Q 2605 224 2329 80 
Q 2054 -64 1709 -64 
z
M 1805 480 
Q 2093 480 2307 614 
Q 2522 749 2643 982 
Q 2765 1216 2765 1517 
Q 2765 1830 2640 2060 
Q 2515 2291 2300 2425 
Q 2086 2560 1798 2560 
Q 1510 2560 1292 2425 
Q 1075 2291 950 2057 
Q 826 1824 826 1523 
Q 826 1216 950 982 
Q 1075 749 1296 614 
Q 1517 480 1805 480 
z
M 3309 0 
L 2726 0 
L 2726 819 
L 2835 1562 
L 2726 2298 
L 2726 4570 
L 3309 4570 
L 3309 0 
z
" transform="scale(0.015625)"/>
       <path id="Outfit-Regular-69" d="M 429 0 
L 429 3040 
L 1005 3040 
L 1005 0 
L 429 0 
z
M 717 3648 
Q 557 3648 454 3753 
Q 352 3859 352 4019 
Q 352 4173 454 4278 
Q 557 4384 717 4384 
Q 877 4384 979 4278 
Q 1082 4173 1082 4019 
Q 1082 3859 979 3753 
Q 877 3648 717 3648 
z
" transform="scale(0.015625)"/>
      </defs>
      <use xlink:href="#Outfit-Regular-53"/>
      <use xlink:href="#Outfit-Regular-61" transform="translate(55.499985 0)"/>
      <use xlink:href="#Outfit-Regular-75" transform="translate(113.699982 0)"/>
      <use xlink:href="#Outfit-Regular-64" transform="translate(165.299973 0)"/>
      <use xlink:href="#Outfit-Regular-69" transform="translate(223.499969 0)"/>
      <use xlink:href="#Outfit-Regular-20" transform="translate(245.899963 0)"/>
      <use xlink:href="#Outfit-Regular-41" transform="translate(266.699951 0)"/>
      <use xlink:href="#Outfit-Regular-72" transform="translate(336.299942 0)"/>
      <use xlink:href="#Outfit-Regular-61" transform="translate(378.199936 0)"/>
      <use xlink:href="#Outfit-Regular-62" transform="translate(436.399933 0)"/>
      <use xlink:href="#Outfit-Regular-69" transform="translate(494.59993 0)"/>
      <use xlink:href="#Outfit-Regular-61" transform="translate(516.999924 0)"/>
     </g>
    </g>
    <g id="line2d_75">
     <path d="M 548.792083 528.681292 
L 559.792083 528.681292 
L 570.792083 528.681292 
" style="fill: none; stroke: #e07a00; stroke-opacity: 0.9; stroke-width: 3; stroke-linecap: round"/>
     <g>
      <use xlink:href="#m4c430f3446" x="559.792083" y="528.681292" style="fill: #e07a00; fill-opacity: 0.9; stroke: #e07a00; stroke-opacity: 0.9; stroke-width: 1.5"/>
     </g>
    </g>
    <g id="text_21">
     <!-- Morocco -->
     <g style="fill: #262626" transform="translate(579.592083 532.531292) scale(0.13 -0.13)">
      <defs>
       <path id="Outfit-Regular-4d" d="M 525 0 
L 525 4442 
L 947 4442 
L 2829 1350 
L 2541 1350 
L 4422 4442 
L 4845 4442 
L 4845 0 
L 4243 0 
L 4243 3386 
L 4384 3347 
L 2899 909 
L 2477 909 
L 992 3347 
L 1126 3386 
L 1126 0 
L 525 0 
z
" transform="scale(0.015625)"/>
       <path id="Outfit-Regular-63" d="M 1811 -64 
Q 1363 -64 1001 147 
Q 640 358 432 720 
Q 224 1082 224 1523 
Q 224 1971 432 2329 
Q 640 2688 1001 2896 
Q 1363 3104 1811 3104 
Q 2163 3104 2464 2973 
Q 2765 2842 2982 2592 
L 2598 2208 
Q 2458 2374 2256 2460 
Q 2054 2547 1811 2547 
Q 1523 2547 1299 2416 
Q 1075 2285 947 2054 
Q 819 1824 819 1523 
Q 819 1222 947 992 
Q 1075 762 1299 627 
Q 1523 493 1811 493 
Q 2054 493 2256 579 
Q 2458 666 2605 832 
L 2982 448 
Q 2771 205 2467 70 
Q 2163 -64 1811 -64 
z
" transform="scale(0.015625)"/>
      </defs>
      <use xlink:href="#Outfit-Regular-4d"/>
      <use xlink:href="#Outfit-Regular-6f" transform="translate(83.899994 0)"/>
      <use xlink:href="#Outfit-Regular-72" transform="translate(140.499985 0)"/>
      <use xlink:href="#Outfit-Regular-6f" transform="translate(182.399979 0)"/>
      <use xlink:href="#Outfit-Regular-63" transform="translate(238.999969 0)"/>
      <use xlink:href="#Outfit-Regular-63" transform="translate(287.899963 0)"/>
      <use xlink:href="#Outfit-Regular-6f" transform="translate(336.799957 0)"/>
     </g>
    </g>
    <g id="line2d_76">
     <path d="M 676.370521 511.310667 
L 687.370521 511.310667 
L 698.370521 511.310667 
" style="fill: none; stroke-dasharray: 12.95,5.6; stroke-dashoffset: 0; stroke: #4800e0; stroke-opacity: 0.9; stroke-width: 3.5"/>
     <g>
      <use xlink:href="#m9937f09c10" x="687.370521" y="511.310667" style="fill: #4800e0; fill-opacity: 0.9; stroke: #4800e0; stroke-opacity: 0.9; stroke-width: 1.5; stroke-linejoin: miter"/>
     </g>
    </g>
    <g id="text_22">
     <!-- Arab Average -->
     <g style="fill: #262626" transform="translate(707.170521 515.160667) scale(0.13 -0.13)">
      <defs>
       <path id="Outfit-Regular-76" d="M 1466 0 
L 70 3040 
L 710 3040 
L 1830 474 
L 1459 474 
L 2586 3040 
L 3200 3040 
L 1805 0 
L 1466 0 
z
" transform="scale(0.015625)"/>
      </defs>
      <use xlink:href="#Outfit-Regular-41"/>
      <use xlink:href="#Outfit-Regular-72" transform="translate(69.599991 0)"/>
      <use xlink:href="#Outfit-Regular-61" transform="translate(111.499985 0)"/>
      <use xlink:href="#Outfit-Regular-62" transform="translate(169.699982 0)"/>
      <use xlink:href="#Outfit-Regular-20" transform="translate(227.899979 0)"/>
      <use xlink:href="#Outfit-Regular-41" transform="translate(248.699966 0)"/>
      <use xlink:href="#Outfit-Regular-76" transform="translate(318.299957 0)"/>
      <use xlink:href="#Outfit-Regular-65" transform="translate(369.399948 0)"/>
      <use xlink:href="#Outfit-Regular-72" transform="translate(422.999939 0)"/>
      <use xlink:href="#Outfit-Regular-61" transform="translate(464.899933 0)"/>
      <use xlink:href="#Outfit-Regular-67" transform="translate(523.09993 0)"/>
      <use xlink:href="#Outfit-Regular-65" transform="translate(580.999924 0)"/>
     </g>
    </g>
   </g>
  </g>
 </g>
 <defs>
  <clipPath id="pfcd5e60d8a">
   <rect x="56.979375" y="42.1" width="1072.366823" height="384.64225"/>
  </clipPath>
 </defs>
</svg>
