<?xml version="1.0" encoding="utf-8" standalone="no"?>
<!DOCTYPE svg PUBLIC "-//W3C//DTD SVG 1.1//EN"
  "http://www.w3.org/Graphics/SVG/1.1/DTD/svg11.dtd">
<svg xmlns:xlink="http://www.w3.org/1999/xlink" width="996.658594pt" height="708.214375pt" viewBox="0 0 996.658594 708.214375" xmlns="http://www.w3.org/2000/svg" version="1.1">
 <metadata>
  <rdf:RDF xmlns:dc="http://purl.org/dc/elements/1.1/" xmlns:cc="http://creativecommons.org/ns#" xmlns:rdf="http://www.w3.org/1999/02/22-rdf-syntax-ns#">
   <cc:Work>
    <dc:type rdf:resource="http://purl.org/dc/dcmitype/StillImage"/>
    <dc:date>2025-09-29T20:41:23.553156</dc:date>
    <dc:format>image/svg+xml</dc:format>
    <dc:creator>
     <cc:Agent>
      <dc:title>Matplotlib v3.10.0, https://matplotlib.org/</dc:title>
     </cc:Agent>
    </dc:creator>
   </cc:Work>
  </rdf:RDF>
 </metadata>
 <defs>
  <style type="text/css">*{stroke-linejoin: round; stroke-linecap: butt}</style>
 </defs>
 <g id="figure_1">
  <g id="patch_1">
   <path d="M 0 708.214375 
L 996.658594 708.214375 
L 996.658594 0 
L 0 0 
z
" style="fill: #ffffff"/>
  </g>
  <g id="axes_1">
   <g id="patch_2">
    <path d="M 137.878594 666.29875 
L 989.458594 666.29875 
L 989.458594 41.71875 
L 137.878594 41.71875 
z
" style="fill: #f4f5f6"/>
   </g>
   <g id="matplotlib.axis_1">
    <g id="xtick_1">
     <g id="line2d_1">
      <path d="M 137.878594 666.29875 
L 137.878594 41.71875 
" clip-path="url(#p3726d72313)" style="fill: none; stroke: #ffffff; stroke-linecap: round"/>
     </g>
     <g id="text_1">
      <!-- 0 -->
      <g style="fill: #262626" transform="translate(134.270938 683.653437) scale(0.11 -0.11)">
       <defs>
        <path id="Outfit-Regular-30" d="M 2112 -64 
Q 1613 -64 1200 217 
Q 787 499 544 1014 
Q 301 1530 301 2227 
Q 301 2925 541 3437 
Q 781 3949 1190 4227 
Q 1600 4506 2093 4506 
Q 2598 4506 3008 4227 
Q 3418 3949 3658 3437 
Q 3898 2925 3898 2221 
Q 3898 1523 3658 1008 
Q 3418 493 3011 214 
Q 2605 -64 2112 -64 
z
M 2099 506 
Q 2451 506 2716 701 
Q 2982 896 3136 1280 
Q 3290 1664 3290 2227 
Q 3290 2790 3136 3171 
Q 2982 3552 2713 3747 
Q 2445 3942 2093 3942 
Q 1747 3942 1478 3747 
Q 1210 3552 1059 3171 
Q 909 2790 909 2227 
Q 909 1664 1059 1280 
Q 1210 896 1478 701 
Q 1747 506 2099 506 
z
" transform="scale(0.015625)"/>
       </defs>
       <use xlink:href="#Outfit-Regular-30"/>
      </g>
     </g>
    </g>
    <g id="xtick_2">
     <g id="line2d_2">
      <path d="M 300.084308 666.29875 
L 300.084308 41.71875 
" clip-path="url(#p3726d72313)" style="fill: none; stroke: #ffffff; stroke-linecap: round"/>
     </g>
     <g id="text_2">
      <!-- 10 -->
      <g style="fill: #262626" transform="translate(294.56798 683.653437) scale(0.11 -0.11)">
       <defs>
        <path id="Outfit-Regular-31" d="M 1107 0 
L 1107 4442 
L 1702 4442 
L 1702 0 
L 1107 0 
z
M 198 3904 
L 198 4442 
L 1638 4442 
L 1638 3904 
L 198 3904 
z
" transform="scale(0.015625)"/>
       </defs>
       <use xlink:href="#Outfit-Regular-31"/>
       <use xlink:href="#Outfit-Regular-30" transform="translate(34.699997 0)"/>
      </g>
     </g>
    </g>
    <g id="xtick_3">
     <g id="line2d_3">
      <path d="M 462.290022 666.29875 
L 462.290022 41.71875 
" clip-path="url(#p3726d72313)" style="fill: none; stroke: #ffffff; stroke-linecap: round"/>
     </g>
     <g id="text_3">
      <!-- 20 -->
      <g style="fill: #262626" transform="translate(455.70721 683.653437) scale(0.11 -0.11)">
       <defs>
        <path id="Outfit-Regular-32" d="M 211 365 
L 1850 2093 
Q 2099 2349 2240 2537 
Q 2381 2726 2441 2886 
Q 2502 3046 2502 3219 
Q 2502 3558 2284 3750 
Q 2067 3942 1722 3942 
Q 1382 3942 1126 3779 
Q 870 3616 672 3277 
L 250 3629 
Q 512 4064 883 4285 
Q 1254 4506 1741 4506 
Q 2150 4506 2454 4346 
Q 2758 4186 2924 3898 
Q 3091 3610 3091 3226 
Q 3091 2950 3024 2732 
Q 2957 2515 2787 2288 
Q 2618 2061 2317 1747 
L 992 384 
L 211 365 
z
M 211 0 
L 211 365 
L 723 538 
L 3194 538 
L 3194 0 
L 211 0 
z
" transform="scale(0.015625)"/>
       </defs>
       <use xlink:href="#Outfit-Regular-32"/>
       <use xlink:href="#Outfit-Regular-30" transform="translate(54.099991 0)"/>
      </g>
     </g>
    </g>
    <g id="xtick_4">
     <g id="line2d_4">
      <path d="M 624.495737 666.29875 
L 624.495737 41.71875 
" clip-path="url(#p3726d72313)" style="fill: none; stroke: #ffffff; stroke-linecap: round"/>
     </g>
     <g id="text_4">
      <!-- 30 -->
      <g style="fill: #262626" transform="translate(617.929252 683.653437) scale(0.11 -0.11)">
       <defs>
        <path id="Outfit-Regular-33" d="M 1581 -64 
Q 1146 -64 790 99 
Q 435 262 192 576 
L 602 986 
Q 749 762 1005 630 
Q 1261 499 1574 499 
Q 1869 499 2083 611 
Q 2298 723 2422 928 
Q 2547 1133 2547 1402 
Q 2547 1677 2422 1878 
Q 2298 2080 2074 2189 
Q 1850 2298 1542 2298 
Q 1427 2298 1312 2282 
Q 1197 2266 1088 2234 
L 1344 2579 
Q 1466 2637 1606 2669 
Q 1747 2701 1888 2701 
Q 2246 2701 2531 2534 
Q 2816 2368 2985 2067 
Q 3155 1766 3155 1370 
Q 3155 947 2953 624 
Q 2752 301 2400 118 
Q 2048 -64 1581 -64 
z
M 1088 2234 
L 1088 2598 
L 2387 4077 
L 3104 4083 
L 1766 2566 
L 1088 2234 
z
M 403 3904 
L 403 4442 
L 3104 4442 
L 3104 4083 
L 2579 3904 
L 403 3904 
z
" transform="scale(0.015625)"/>
       </defs>
       <use xlink:href="#Outfit-Regular-33"/>
       <use xlink:href="#Outfit-Regular-30" transform="translate(53.799988 0)"/>
      </g>
     </g>
    </g>
    <g id="xtick_5">
     <g id="line2d_5">
      <path d="M 786.701451 666.29875 
L 786.701451 41.71875 
" clip-path="url(#p3726d72313)" style="fill: none; stroke: #ffffff; stroke-linecap: round"/>
     </g>
     <g id="text_5">
      <!-- 40 -->
      <g style="fill: #262626" transform="translate(779.804967 683.653437) scale(0.11 -0.11)">
       <defs>
        <path id="Outfit-Regular-34" d="M 211 1530 
L 1830 4442 
L 2509 4442 
L 858 1530 
L 211 1530 
z
M 211 1158 
L 211 1530 
L 467 1696 
L 3616 1696 
L 3616 1158 
L 211 1158 
z
M 2381 0 
L 2381 2938 
L 2976 2938 
L 2976 0 
L 2381 0 
z
" transform="scale(0.015625)"/>
       </defs>
       <use xlink:href="#Outfit-Regular-34"/>
       <use xlink:href="#Outfit-Regular-30" transform="translate(59.799988 0)"/>
      </g>
     </g>
    </g>
    <g id="xtick_6">
     <g id="line2d_6">
      <path d="M 948.907165 666.29875 
L 948.907165 41.71875 
" clip-path="url(#p3726d72313)" style="fill: none; stroke: #ffffff; stroke-linecap: round"/>
     </g>
     <g id="text_6">
      <!-- 50 -->
      <g style="fill: #262626" transform="translate(942.324353 683.653437) scale(0.11 -0.11)">
       <defs>
        <path id="Outfit-Regular-35" d="M 1587 -64 
Q 1133 -64 777 99 
Q 422 262 179 576 
L 589 986 
Q 736 762 995 630 
Q 1254 499 1574 499 
Q 1875 499 2102 614 
Q 2330 730 2461 938 
Q 2592 1146 2592 1434 
Q 2592 1728 2464 1933 
Q 2336 2138 2121 2243 
Q 1907 2349 1651 2349 
Q 1389 2349 1174 2285 
Q 960 2221 768 2067 
L 774 2451 
Q 883 2586 1024 2669 
Q 1165 2752 1344 2797 
Q 1523 2842 1760 2842 
Q 2221 2842 2541 2650 
Q 2861 2458 3030 2131 
Q 3200 1805 3200 1402 
Q 3200 979 2992 646 
Q 2784 314 2419 125 
Q 2054 -64 1587 -64 
z
M 768 2067 
L 442 2394 
L 640 4442 
L 1190 4442 
L 966 2336 
L 768 2067 
z
M 762 3904 
L 640 4442 
L 2976 4442 
L 2976 3904 
L 762 3904 
z
" transform="scale(0.015625)"/>
       </defs>
       <use xlink:href="#Outfit-Regular-35"/>
       <use xlink:href="#Outfit-Regular-30" transform="translate(54.099991 0)"/>
      </g>
     </g>
    </g>
    <g id="text_7">
     <!-- Women in Parliament (%) -->
     <g style="fill: #262626" transform="translate(494.939531 698.554375) scale(0.12 -0.12)">
      <defs>
       <path id="Outfit-Bold-57" d="M 1562 0 
L 109 4518 
L 1107 4518 
L 2170 1043 
L 1779 1043 
L 2816 4518 
L 3603 4518 
L 4640 1043 
L 4256 1043 
L 5312 4518 
L 6304 4518 
L 4851 0 
L 4064 0 
L 3021 3475 
L 3392 3475 
L 2349 0 
L 1562 0 
z
" transform="scale(0.015625)"/>
       <path id="Outfit-Bold-6f" d="M 1843 -70 
Q 1363 -70 976 144 
Q 589 358 365 729 
Q 141 1101 141 1562 
Q 141 2022 365 2387 
Q 589 2752 973 2966 
Q 1357 3181 1843 3181 
Q 2330 3181 2714 2969 
Q 3098 2758 3322 2390 
Q 3546 2022 3546 1562 
Q 3546 1101 3322 729 
Q 3098 358 2714 144 
Q 2330 -70 1843 -70 
z
M 1843 819 
Q 2054 819 2214 912 
Q 2374 1005 2460 1174 
Q 2547 1344 2547 1562 
Q 2547 1779 2457 1942 
Q 2368 2106 2211 2198 
Q 2054 2291 1843 2291 
Q 1638 2291 1478 2198 
Q 1318 2106 1228 1939 
Q 1139 1773 1139 1555 
Q 1139 1344 1228 1174 
Q 1318 1005 1478 912 
Q 1638 819 1843 819 
z
" transform="scale(0.015625)"/>
       <path id="Outfit-Bold-6d" d="M 346 0 
L 346 3110 
L 1325 3110 
L 1325 0 
L 346 0 
z
M 2336 0 
L 2336 1818 
Q 2336 2054 2192 2185 
Q 2048 2317 1837 2317 
Q 1690 2317 1574 2256 
Q 1459 2195 1392 2086 
Q 1325 1978 1325 1818 
L 947 1984 
Q 947 2355 1107 2620 
Q 1267 2886 1542 3030 
Q 1818 3174 2163 3174 
Q 2490 3174 2749 3027 
Q 3008 2880 3161 2617 
Q 3315 2355 3315 1990 
L 3315 0 
L 2336 0 
z
M 4326 0 
L 4326 1818 
Q 4326 2054 4182 2185 
Q 4038 2317 3827 2317 
Q 3680 2317 3565 2256 
Q 3450 2195 3382 2086 
Q 3315 1978 3315 1818 
L 2752 1894 
Q 2765 2291 2941 2576 
Q 3117 2861 3408 3017 
Q 3699 3174 4064 3174 
Q 4422 3174 4700 3024 
Q 4979 2874 5142 2595 
Q 5306 2317 5306 1926 
L 5306 0 
L 4326 0 
z
" transform="scale(0.015625)"/>
       <path id="Outfit-Bold-65" d="M 1882 -70 
Q 1376 -70 982 138 
Q 589 346 365 717 
Q 141 1088 141 1555 
Q 141 2022 361 2390 
Q 582 2758 960 2969 
Q 1338 3181 1811 3181 
Q 2272 3181 2624 2982 
Q 2976 2784 3177 2432 
Q 3379 2080 3379 1626 
Q 3379 1542 3369 1449 
Q 3360 1357 3334 1235 
L 653 1229 
L 653 1901 
L 2918 1907 
L 2496 1626 
Q 2490 1894 2413 2070 
Q 2336 2246 2185 2339 
Q 2035 2432 1818 2432 
Q 1587 2432 1417 2326 
Q 1248 2221 1155 2029 
Q 1062 1837 1062 1562 
Q 1062 1286 1161 1091 
Q 1261 896 1443 790 
Q 1626 685 1875 685 
Q 2106 685 2291 765 
Q 2477 845 2618 1005 
L 3155 467 
Q 2925 198 2598 64 
Q 2272 -70 1882 -70 
z
" transform="scale(0.015625)"/>
       <path id="Outfit-Bold-6e" d="M 2400 0 
L 2400 1773 
Q 2400 2016 2249 2166 
Q 2099 2317 1869 2317 
Q 1709 2317 1587 2249 
Q 1466 2182 1395 2057 
Q 1325 1933 1325 1773 
L 947 1958 
Q 947 2323 1107 2598 
Q 1267 2874 1552 3024 
Q 1837 3174 2195 3174 
Q 2541 3174 2806 3011 
Q 3072 2848 3225 2579 
Q 3379 2310 3379 1990 
L 3379 0 
L 2400 0 
z
M 346 0 
L 346 3110 
L 1325 3110 
L 1325 0 
L 346 0 
z
" transform="scale(0.015625)"/>
       <path id="Outfit-Bold-20" transform="scale(0.015625)"/>
       <path id="Outfit-Bold-69" d="M 346 0 
L 346 3110 
L 1325 3110 
L 1325 0 
L 346 0 
z
M 838 3539 
Q 608 3539 457 3696 
Q 307 3853 307 4077 
Q 307 4307 457 4460 
Q 608 4614 838 4614 
Q 1069 4614 1216 4460 
Q 1363 4307 1363 4077 
Q 1363 3853 1216 3696 
Q 1069 3539 838 3539 
z
" transform="scale(0.015625)"/>
       <path id="Outfit-Bold-50" d="M 1203 1645 
L 1203 2426 
L 2176 2426 
Q 2362 2426 2515 2502 
Q 2669 2579 2758 2726 
Q 2848 2874 2848 3085 
Q 2848 3290 2758 3437 
Q 2669 3584 2515 3661 
Q 2362 3738 2176 3738 
L 1203 3738 
L 1203 4518 
L 2323 4518 
Q 2752 4518 3097 4345 
Q 3443 4173 3644 3849 
Q 3846 3526 3846 3085 
Q 3846 2643 3644 2320 
Q 3443 1997 3097 1821 
Q 2752 1645 2323 1645 
L 1203 1645 
z
M 435 0 
L 435 4518 
L 1440 4518 
L 1440 0 
L 435 0 
z
" transform="scale(0.015625)"/>
       <path id="Outfit-Bold-61" d="M 1645 -64 
Q 1216 -64 880 147 
Q 544 358 349 723 
Q 154 1088 154 1555 
Q 154 2022 349 2387 
Q 544 2752 880 2963 
Q 1216 3174 1645 3174 
Q 1958 3174 2211 3052 
Q 2464 2931 2624 2716 
Q 2784 2502 2803 2227 
L 2803 883 
Q 2784 608 2627 393 
Q 2470 179 2214 57 
Q 1958 -64 1645 -64 
z
M 1843 819 
Q 2157 819 2349 1027 
Q 2541 1235 2541 1555 
Q 2541 1773 2454 1939 
Q 2368 2106 2211 2198 
Q 2054 2291 1850 2291 
Q 1645 2291 1488 2198 
Q 1331 2106 1238 1939 
Q 1146 1773 1146 1555 
Q 1146 1344 1235 1177 
Q 1325 1011 1485 915 
Q 1645 819 1843 819 
z
M 2502 0 
L 2502 838 
L 2650 1594 
L 2502 2349 
L 2502 3110 
L 3462 3110 
L 3462 0 
L 2502 0 
z
" transform="scale(0.015625)"/>
       <path id="Outfit-Bold-72" d="M 346 0 
L 346 3110 
L 1325 3110 
L 1325 0 
L 346 0 
z
M 1325 1709 
L 915 2029 
Q 1037 2573 1325 2873 
Q 1613 3174 2125 3174 
Q 2349 3174 2518 3107 
Q 2688 3040 2816 2899 
L 2234 2163 
Q 2170 2234 2074 2272 
Q 1978 2310 1856 2310 
Q 1613 2310 1469 2160 
Q 1325 2010 1325 1709 
z
" transform="scale(0.015625)"/>
       <path id="Outfit-Bold-6c" d="M 346 0 
L 346 4646 
L 1325 4646 
L 1325 0 
L 346 0 
z
" transform="scale(0.015625)"/>
       <path id="Outfit-Bold-74" d="M 787 0 
L 787 4397 
L 1766 4397 
L 1766 0 
L 787 0 
z
M 83 2278 
L 83 3110 
L 2470 3110 
L 2470 2278 
L 83 2278 
z
" transform="scale(0.015625)"/>
       <path id="Outfit-Bold-28" d="M 1350 -813 
Q 986 -499 730 -57 
Q 474 384 339 909 
Q 205 1434 205 2010 
Q 205 2586 339 3110 
Q 474 3635 730 4076 
Q 986 4518 1350 4832 
L 1888 4314 
Q 1478 3917 1260 3334 
Q 1043 2752 1043 2010 
Q 1043 1274 1260 688 
Q 1478 102 1888 -301 
L 1350 -813 
z
" transform="scale(0.015625)"/>
       <path id="Outfit-Bold-25" d="M 390 0 
L 3098 4518 
L 3994 4518 
L 1286 0 
L 390 0 
z
M 3219 -64 
Q 2957 -64 2742 64 
Q 2528 192 2400 406 
Q 2272 621 2272 883 
Q 2272 1152 2400 1360 
Q 2528 1568 2739 1696 
Q 2950 1824 3213 1824 
Q 3488 1824 3702 1696 
Q 3917 1568 4045 1360 
Q 4173 1152 4173 883 
Q 4173 621 4045 403 
Q 3917 186 3702 61 
Q 3488 -64 3219 -64 
z
M 3219 602 
Q 3341 602 3417 678 
Q 3494 755 3494 883 
Q 3494 998 3417 1078 
Q 3341 1158 3219 1158 
Q 3104 1158 3027 1078 
Q 2950 998 2950 883 
Q 2950 755 3027 678 
Q 3104 602 3219 602 
z
M 1158 2701 
Q 896 2701 681 2825 
Q 467 2950 339 3164 
Q 211 3379 211 3648 
Q 211 3910 339 4121 
Q 467 4333 678 4457 
Q 890 4582 1152 4582 
Q 1427 4582 1641 4457 
Q 1856 4333 1984 4121 
Q 2112 3910 2112 3648 
Q 2112 3379 1984 3164 
Q 1856 2950 1641 2825 
Q 1427 2701 1158 2701 
z
M 1158 3366 
Q 1280 3366 1357 3443 
Q 1434 3520 1434 3642 
Q 1434 3763 1357 3840 
Q 1280 3917 1158 3917 
Q 1043 3917 966 3840 
Q 890 3763 890 3642 
Q 890 3520 966 3443 
Q 1043 3366 1158 3366 
z
" transform="scale(0.015625)"/>
       <path id="Outfit-Bold-29" d="M 634 -813 
L 96 -301 
Q 506 102 723 688 
Q 941 1274 941 2010 
Q 941 2752 723 3334 
Q 506 3917 96 4314 
L 634 4832 
Q 998 4518 1254 4076 
Q 1510 3635 1644 3110 
Q 1779 2586 1779 2010 
Q 1779 1434 1644 909 
Q 1510 384 1254 -57 
Q 998 -499 634 -813 
z
" transform="scale(0.015625)"/>
      </defs>
      <use xlink:href="#Outfit-Bold-57"/>
      <use xlink:href="#Outfit-Bold-6f" transform="translate(100.199982 0)"/>
      <use xlink:href="#Outfit-Bold-6d" transform="translate(157.799973 0)"/>
      <use xlink:href="#Outfit-Bold-65" transform="translate(245.09996 0)"/>
      <use xlink:href="#Outfit-Bold-6e" transform="translate(299.899948 0)"/>
      <use xlink:href="#Outfit-Bold-20" transform="translate(357.099945 0)"/>
      <use xlink:href="#Outfit-Bold-69" transform="translate(376.09993 0)"/>
      <use xlink:href="#Outfit-Bold-6e" transform="translate(402.199921 0)"/>
      <use xlink:href="#Outfit-Bold-20" transform="translate(459.399918 0)"/>
      <use xlink:href="#Outfit-Bold-50" transform="translate(478.399902 0)"/>
      <use xlink:href="#Outfit-Bold-61" transform="translate(541.19989 0)"/>
      <use xlink:href="#Outfit-Bold-72" transform="translate(600.699875 0)"/>
      <use xlink:href="#Outfit-Bold-6c" transform="translate(645.099869 0)"/>
      <use xlink:href="#Outfit-Bold-69" transform="translate(671.19986 0)"/>
      <use xlink:href="#Outfit-Bold-61" transform="translate(697.29985 0)"/>
      <use xlink:href="#Outfit-Bold-6d" transform="translate(756.799835 0)"/>
      <use xlink:href="#Outfit-Bold-65" transform="translate(844.099823 0)"/>
      <use xlink:href="#Outfit-Bold-6e" transform="translate(898.899811 0)"/>
      <use xlink:href="#Outfit-Bold-74" transform="translate(956.099808 0)"/>
      <use xlink:href="#Outfit-Bold-20" transform="translate(995.999802 0)"/>
      <use xlink:href="#Outfit-Bold-28" transform="translate(1014.999786 0)"/>
      <use xlink:href="#Outfit-Bold-25" transform="translate(1045.999771 0)"/>
      <use xlink:href="#Outfit-Bold-29" transform="translate(1114.499756 0)"/>
     </g>
    </g>
   </g>
   <g id="matplotlib.axis_2">
    <g id="ytick_1">
     <g id="text_8">
      <!-- Oman -->
      <g style="fill: #262626" transform="translate(97.808906 62.08241) scale(0.11 -0.11)">
       <defs>
        <path id="Outfit-Regular-4f" d="M 2547 -64 
Q 2074 -64 1664 112 
Q 1254 288 947 605 
Q 640 922 470 1338 
Q 301 1754 301 2227 
Q 301 2707 470 3120 
Q 640 3533 944 3846 
Q 1248 4160 1654 4333 
Q 2061 4506 2534 4506 
Q 3008 4506 3414 4333 
Q 3821 4160 4128 3846 
Q 4435 3533 4608 3117 
Q 4781 2701 4781 2221 
Q 4781 1747 4608 1331 
Q 4435 915 4131 601 
Q 3827 288 3420 112 
Q 3014 -64 2547 -64 
z
M 2534 512 
Q 3014 512 3376 733 
Q 3738 954 3949 1341 
Q 4160 1728 4160 2227 
Q 4160 2598 4038 2908 
Q 3917 3219 3699 3449 
Q 3482 3680 3187 3805 
Q 2893 3930 2534 3930 
Q 2061 3930 1699 3712 
Q 1338 3494 1130 3110 
Q 922 2726 922 2227 
Q 922 1856 1040 1539 
Q 1158 1222 1372 995 
Q 1587 768 1884 640 
Q 2182 512 2534 512 
z
" transform="scale(0.015625)"/>
        <path id="Outfit-Regular-6d" d="M 422 0 
L 422 3040 
L 998 3040 
L 998 0 
L 422 0 
z
M 2477 0 
L 2477 1837 
Q 2477 2176 2269 2371 
Q 2061 2566 1747 2566 
Q 1536 2566 1369 2476 
Q 1203 2387 1100 2227 
Q 998 2067 998 1843 
L 762 1958 
Q 762 2304 912 2560 
Q 1062 2816 1324 2960 
Q 1587 3104 1914 3104 
Q 2234 3104 2493 2963 
Q 2752 2822 2902 2566 
Q 3053 2310 3053 1958 
L 3053 0 
L 2477 0 
z
M 4531 0 
L 4531 1837 
Q 4531 2176 4323 2371 
Q 4115 2566 3808 2566 
Q 3597 2566 3427 2476 
Q 3258 2387 3155 2227 
Q 3053 2067 3053 1843 
L 2726 1958 
Q 2746 2310 2915 2563 
Q 3085 2816 3353 2960 
Q 3622 3104 3942 3104 
Q 4275 3104 4537 2963 
Q 4800 2822 4957 2566 
Q 5114 2310 5114 1952 
L 5114 0 
L 4531 0 
z
" transform="scale(0.015625)"/>
        <path id="Outfit-Regular-61" d="M 1715 -64 
Q 1299 -64 960 144 
Q 621 352 425 710 
Q 230 1069 230 1517 
Q 230 1965 425 2323 
Q 621 2682 957 2893 
Q 1293 3104 1715 3104 
Q 2061 3104 2333 2960 
Q 2605 2816 2771 2563 
Q 2938 2310 2957 1978 
L 2957 1062 
Q 2938 736 2774 480 
Q 2611 224 2339 80 
Q 2067 -64 1715 -64 
z
M 1811 480 
Q 2240 480 2502 771 
Q 2765 1062 2765 1517 
Q 2765 1830 2646 2064 
Q 2528 2298 2310 2429 
Q 2093 2560 1805 2560 
Q 1517 2560 1296 2425 
Q 1075 2291 950 2057 
Q 826 1824 826 1523 
Q 826 1216 950 982 
Q 1075 749 1299 614 
Q 1523 480 1811 480 
z
M 2726 0 
L 2726 819 
L 2835 1562 
L 2726 2298 
L 2726 3040 
L 3309 3040 
L 3309 0 
L 2726 0 
z
" transform="scale(0.015625)"/>
        <path id="Outfit-Regular-6e" d="M 2573 0 
L 2573 1773 
Q 2573 2118 2355 2342 
Q 2138 2566 1792 2566 
Q 1562 2566 1382 2464 
Q 1203 2362 1100 2182 
Q 998 2003 998 1773 
L 762 1907 
Q 762 2253 915 2521 
Q 1069 2790 1344 2947 
Q 1619 3104 1965 3104 
Q 2310 3104 2576 2931 
Q 2842 2758 2995 2480 
Q 3149 2202 3149 1888 
L 3149 0 
L 2573 0 
z
M 422 0 
L 422 3040 
L 998 3040 
L 998 0 
L 422 0 
z
" transform="scale(0.015625)"/>
       </defs>
       <use xlink:href="#Outfit-Regular-4f"/>
       <use xlink:href="#Outfit-Regular-6d" transform="translate(79.399994 0)"/>
       <use xlink:href="#Outfit-Regular-61" transform="translate(164.899979 0)"/>
       <use xlink:href="#Outfit-Regular-6e" transform="translate(223.099976 0)"/>
      </g>
     </g>
    </g>
    <g id="ytick_2">
     <g id="text_9">
      <!-- Yemen, Rep. -->
      <g style="fill: #262626" transform="translate(66.11 94.955041) scale(0.11 -0.11)">
       <defs>
        <path id="Outfit-Regular-59" d="M 1933 1805 
L 186 4442 
L 883 4442 
L 2291 2285 
L 1978 2285 
L 3392 4442 
L 4077 4442 
L 2317 1805 
L 1933 1805 
z
M 1830 0 
L 1830 2202 
L 2432 2202 
L 2432 0 
L 1830 0 
z
" transform="scale(0.015625)"/>
        <path id="Outfit-Regular-65" d="M 1830 -64 
Q 1376 -64 1011 144 
Q 646 352 435 710 
Q 224 1069 224 1523 
Q 224 1971 432 2329 
Q 640 2688 995 2896 
Q 1350 3104 1792 3104 
Q 2214 3104 2537 2912 
Q 2861 2720 3043 2381 
Q 3226 2042 3226 1613 
Q 3226 1549 3219 1475 
Q 3213 1402 3194 1306 
L 627 1306 
L 627 1786 
L 2886 1786 
L 2675 1600 
Q 2675 1907 2566 2121 
Q 2458 2336 2259 2454 
Q 2061 2573 1779 2573 
Q 1485 2573 1261 2445 
Q 1037 2317 915 2086 
Q 794 1856 794 1542 
Q 794 1222 922 982 
Q 1050 742 1286 611 
Q 1523 480 1830 480 
Q 2086 480 2300 569 
Q 2515 659 2669 838 
L 3040 461 
Q 2822 205 2505 70 
Q 2189 -64 1830 -64 
z
" transform="scale(0.015625)"/>
        <path id="Outfit-Regular-2c" d="M 454 -704 
L 851 58 
L 1056 109 
Q 1024 38 976 -6 
Q 928 -51 858 -51 
Q 723 -51 611 61 
Q 499 173 499 339 
Q 499 525 620 649 
Q 742 774 928 774 
Q 1094 774 1222 649 
Q 1350 525 1350 339 
Q 1350 269 1321 169 
Q 1293 70 1210 -83 
L 787 -883 
L 454 -704 
z
" transform="scale(0.015625)"/>
        <path id="Outfit-Regular-20" transform="scale(0.015625)"/>
        <path id="Outfit-Regular-52" d="M 928 1933 
L 928 2438 
L 2131 2438 
Q 2522 2438 2733 2636 
Q 2944 2835 2944 3174 
Q 2944 3494 2736 3705 
Q 2528 3917 2138 3917 
L 928 3917 
L 928 4442 
L 2157 4442 
Q 2579 4442 2892 4278 
Q 3206 4115 3376 3833 
Q 3546 3552 3546 3187 
Q 3546 2810 3376 2528 
Q 3206 2246 2892 2089 
Q 2579 1933 2157 1933 
L 928 1933 
z
M 525 0 
L 525 4442 
L 1126 4442 
L 1126 0 
L 525 0 
z
M 3085 0 
L 1472 1990 
L 2042 2189 
L 3846 0 
L 3085 0 
z
" transform="scale(0.015625)"/>
        <path id="Outfit-Regular-70" d="M 2022 -64 
Q 1677 -64 1398 80 
Q 1120 224 953 480 
Q 787 736 768 1062 
L 768 1978 
Q 787 2310 956 2563 
Q 1126 2816 1404 2960 
Q 1683 3104 2022 3104 
Q 2438 3104 2774 2893 
Q 3110 2682 3302 2323 
Q 3494 1965 3494 1517 
Q 3494 1069 3302 710 
Q 3110 352 2774 144 
Q 2438 -64 2022 -64 
z
M 422 -1274 
L 422 3040 
L 998 3040 
L 998 2240 
L 890 1504 
L 998 762 
L 998 -1274 
L 422 -1274 
z
M 1926 480 
Q 2214 480 2432 614 
Q 2650 749 2778 982 
Q 2906 1216 2906 1523 
Q 2906 1824 2778 2061 
Q 2650 2298 2432 2429 
Q 2214 2560 1933 2560 
Q 1645 2560 1427 2429 
Q 1210 2298 1088 2061 
Q 966 1824 966 1517 
Q 966 1216 1084 982 
Q 1203 749 1424 614 
Q 1645 480 1926 480 
z
" transform="scale(0.015625)"/>
        <path id="Outfit-Regular-2e" d="M 928 -64 
Q 749 -64 630 61 
Q 512 186 512 358 
Q 512 538 630 656 
Q 749 774 928 774 
Q 1107 774 1225 656 
Q 1344 538 1344 358 
Q 1344 186 1225 61 
Q 1107 -64 928 -64 
z
" transform="scale(0.015625)"/>
       </defs>
       <use xlink:href="#Outfit-Regular-59"/>
       <use xlink:href="#Outfit-Regular-65" transform="translate(66.499985 0)"/>
       <use xlink:href="#Outfit-Regular-6d" transform="translate(120.099976 0)"/>
       <use xlink:href="#Outfit-Regular-65" transform="translate(205.59996 0)"/>
       <use xlink:href="#Outfit-Regular-6e" transform="translate(259.199951 0)"/>
       <use xlink:href="#Outfit-Regular-2c" transform="translate(313.999939 0)"/>
       <use xlink:href="#Outfit-Regular-20" transform="translate(341.499924 0)"/>
       <use xlink:href="#Outfit-Regular-52" transform="translate(362.299911 0)"/>
       <use xlink:href="#Outfit-Regular-65" transform="translate(425.299896 0)"/>
       <use xlink:href="#Outfit-Regular-70" transform="translate(478.899887 0)"/>
       <use xlink:href="#Outfit-Regular-2e" transform="translate(537.099884 0)"/>
      </g>
     </g>
    </g>
    <g id="ytick_3">
     <g id="text_10">
      <!-- Qatar -->
      <g style="fill: #262626" transform="translate(97.929219 127.827673) scale(0.11 -0.11)">
       <defs>
        <path id="Outfit-Regular-51" d="M 2554 -64 
Q 2080 -64 1670 112 
Q 1261 288 953 605 
Q 646 922 473 1338 
Q 301 1754 301 2227 
Q 301 2707 473 3120 
Q 646 3533 950 3846 
Q 1254 4160 1660 4333 
Q 2067 4506 2541 4506 
Q 3014 4506 3420 4333 
Q 3827 4160 4134 3846 
Q 4442 3533 4611 3117 
Q 4781 2701 4781 2221 
Q 4781 1747 4611 1331 
Q 4442 915 4138 601 
Q 3834 288 3427 112 
Q 3021 -64 2554 -64 
z
M 4678 -314 
L 2598 1766 
L 2989 2157 
L 5062 77 
L 4678 -314 
z
M 2541 512 
Q 3014 512 3379 733 
Q 3744 954 3952 1341 
Q 4160 1728 4160 2227 
Q 4160 2598 4041 2908 
Q 3923 3219 3705 3449 
Q 3488 3680 3193 3805 
Q 2899 3930 2541 3930 
Q 2067 3930 1702 3712 
Q 1338 3494 1130 3110 
Q 922 2726 922 2227 
Q 922 1856 1043 1539 
Q 1165 1222 1379 995 
Q 1594 768 1891 640 
Q 2189 512 2541 512 
z
" transform="scale(0.015625)"/>
        <path id="Outfit-Regular-74" d="M 890 0 
L 890 4314 
L 1466 4314 
L 1466 0 
L 890 0 
z
M 141 2515 
L 141 3040 
L 2214 3040 
L 2214 2515 
L 141 2515 
z
" transform="scale(0.015625)"/>
        <path id="Outfit-Regular-72" d="M 422 0 
L 422 3040 
L 998 3040 
L 998 0 
L 422 0 
z
M 998 1734 
L 781 1830 
Q 781 2413 1049 2758 
Q 1318 3104 1824 3104 
Q 2054 3104 2240 3024 
Q 2426 2944 2586 2758 
L 2208 2368 
Q 2112 2470 1997 2515 
Q 1882 2560 1728 2560 
Q 1408 2560 1203 2355 
Q 998 2150 998 1734 
z
" transform="scale(0.015625)"/>
       </defs>
       <use xlink:href="#Outfit-Regular-51"/>
       <use xlink:href="#Outfit-Regular-61" transform="translate(81.699982 0)"/>
       <use xlink:href="#Outfit-Regular-74" transform="translate(139.899979 0)"/>
       <use xlink:href="#Outfit-Regular-61" transform="translate(176.699966 0)"/>
       <use xlink:href="#Outfit-Regular-72" transform="translate(234.899963 0)"/>
      </g>
     </g>
    </g>
    <g id="ytick_4">
     <g id="text_11">
      <!-- Lebanon -->
      <g style="fill: #262626" transform="translate(85.325625 160.700304) scale(0.11 -0.11)">
       <defs>
        <path id="Outfit-Regular-4c" d="M 525 0 
L 525 4442 
L 1126 4442 
L 1126 0 
L 525 0 
z
M 934 0 
L 934 550 
L 3315 550 
L 3315 0 
L 934 0 
z
" transform="scale(0.015625)"/>
        <path id="Outfit-Regular-62" d="M 2022 -64 
Q 1677 -64 1398 80 
Q 1120 224 953 480 
Q 787 736 768 1062 
L 768 1978 
Q 787 2310 956 2563 
Q 1126 2816 1404 2960 
Q 1683 3104 2022 3104 
Q 2438 3104 2774 2893 
Q 3110 2682 3302 2323 
Q 3494 1965 3494 1517 
Q 3494 1069 3302 710 
Q 3110 352 2774 144 
Q 2438 -64 2022 -64 
z
M 422 0 
L 422 4570 
L 998 4570 
L 998 2298 
L 890 1562 
L 998 819 
L 998 0 
L 422 0 
z
M 1926 480 
Q 2214 480 2432 614 
Q 2650 749 2778 982 
Q 2906 1216 2906 1523 
Q 2906 1824 2778 2061 
Q 2650 2298 2432 2429 
Q 2214 2560 1933 2560 
Q 1645 2560 1427 2429 
Q 1210 2298 1088 2061 
Q 966 1824 966 1517 
Q 966 1216 1084 982 
Q 1203 749 1424 614 
Q 1645 480 1926 480 
z
" transform="scale(0.015625)"/>
        <path id="Outfit-Regular-6f" d="M 1811 -64 
Q 1363 -64 1004 147 
Q 646 358 435 720 
Q 224 1082 224 1530 
Q 224 1971 435 2326 
Q 646 2682 1004 2893 
Q 1363 3104 1811 3104 
Q 2253 3104 2614 2896 
Q 2976 2688 3187 2329 
Q 3398 1971 3398 1530 
Q 3398 1082 3187 720 
Q 2976 358 2614 147 
Q 2253 -64 1811 -64 
z
M 1811 493 
Q 2099 493 2323 627 
Q 2547 762 2675 995 
Q 2803 1229 2803 1530 
Q 2803 1824 2672 2054 
Q 2541 2285 2320 2416 
Q 2099 2547 1811 2547 
Q 1523 2547 1299 2416 
Q 1075 2285 947 2054 
Q 819 1824 819 1530 
Q 819 1229 947 995 
Q 1075 762 1299 627 
Q 1523 493 1811 493 
z
" transform="scale(0.015625)"/>
       </defs>
       <use xlink:href="#Outfit-Regular-4c"/>
       <use xlink:href="#Outfit-Regular-65" transform="translate(55.199997 0)"/>
       <use xlink:href="#Outfit-Regular-62" transform="translate(108.799988 0)"/>
       <use xlink:href="#Outfit-Regular-61" transform="translate(166.999985 0)"/>
       <use xlink:href="#Outfit-Regular-6e" transform="translate(225.199982 0)"/>
       <use xlink:href="#Outfit-Regular-6f" transform="translate(279.999969 0)"/>
       <use xlink:href="#Outfit-Regular-6e" transform="translate(336.59996 0)"/>
      </g>
     </g>
    </g>
    <g id="ytick_5">
     <g id="text_12">
      <!-- Algeria -->
      <g style="fill: #262626" transform="translate(92.539219 193.572936) scale(0.11 -0.11)">
       <defs>
        <path id="Outfit-Regular-41" d="M 198 0 
L 2016 4442 
L 2451 4442 
L 4262 0 
L 3610 0 
L 2118 3757 
L 2342 3757 
L 838 0 
L 198 0 
z
M 1062 1005 
L 1062 1530 
L 3398 1530 
L 3398 1005 
L 1062 1005 
z
" transform="scale(0.015625)"/>
        <path id="Outfit-Regular-6c" d="M 422 0 
L 422 4570 
L 998 4570 
L 998 0 
L 422 0 
z
" transform="scale(0.015625)"/>
        <path id="Outfit-Regular-67" d="M 1683 -1338 
Q 1216 -1338 854 -1165 
Q 493 -992 275 -678 
L 646 -301 
Q 832 -538 1088 -662 
Q 1344 -787 1696 -787 
Q 2163 -787 2435 -540 
Q 2707 -294 2707 122 
L 2707 877 
L 2810 1562 
L 2707 2240 
L 2707 3040 
L 3283 3040 
L 3283 122 
Q 3283 -314 3081 -640 
Q 2880 -966 2518 -1152 
Q 2157 -1338 1683 -1338 
z
M 1683 51 
Q 1267 51 937 249 
Q 608 448 416 797 
Q 224 1146 224 1581 
Q 224 2016 416 2358 
Q 608 2701 937 2902 
Q 1267 3104 1683 3104 
Q 2042 3104 2317 2963 
Q 2592 2822 2755 2569 
Q 2918 2317 2931 1978 
L 2931 1171 
Q 2912 838 2749 585 
Q 2586 333 2310 192 
Q 2035 51 1683 51 
z
M 1798 595 
Q 2080 595 2294 716 
Q 2509 838 2624 1059 
Q 2739 1280 2739 1574 
Q 2739 1869 2620 2089 
Q 2502 2310 2291 2435 
Q 2080 2560 1792 2560 
Q 1504 2560 1286 2435 
Q 1069 2310 944 2089 
Q 819 1869 819 1581 
Q 819 1293 944 1069 
Q 1069 845 1289 720 
Q 1510 595 1798 595 
z
" transform="scale(0.015625)"/>
        <path id="Outfit-Regular-69" d="M 429 0 
L 429 3040 
L 1005 3040 
L 1005 0 
L 429 0 
z
M 717 3648 
Q 557 3648 454 3753 
Q 352 3859 352 4019 
Q 352 4173 454 4278 
Q 557 4384 717 4384 
Q 877 4384 979 4278 
Q 1082 4173 1082 4019 
Q 1082 3859 979 3753 
Q 877 3648 717 3648 
z
" transform="scale(0.015625)"/>
       </defs>
       <use xlink:href="#Outfit-Regular-41"/>
       <use xlink:href="#Outfit-Regular-6c" transform="translate(69.599991 0)"/>
       <use xlink:href="#Outfit-Regular-67" transform="translate(91.799988 0)"/>
       <use xlink:href="#Outfit-Regular-65" transform="translate(149.699982 0)"/>
       <use xlink:href="#Outfit-Regular-72" transform="translate(203.299973 0)"/>
       <use xlink:href="#Outfit-Regular-69" transform="translate(245.199966 0)"/>
       <use xlink:href="#Outfit-Regular-61" transform="translate(267.59996 0)"/>
      </g>
     </g>
    </g>
    <g id="ytick_6">
     <g id="text_13">
      <!-- Syrian Arab Republic -->
      <g style="fill: #262626" transform="translate(25.8775 226.445567) scale(0.11 -0.11)">
       <defs>
        <path id="Outfit-Regular-53" d="M 1760 -64 
Q 1235 -64 864 128 
Q 493 320 205 685 
L 614 1094 
Q 826 800 1101 649 
Q 1376 499 1779 499 
Q 2176 499 2416 672 
Q 2656 845 2656 1146 
Q 2656 1395 2541 1548 
Q 2426 1702 2230 1801 
Q 2035 1901 1804 1981 
Q 1574 2061 1344 2153 
Q 1114 2246 922 2384 
Q 730 2522 611 2746 
Q 493 2970 493 3309 
Q 493 3686 675 3952 
Q 858 4218 1174 4362 
Q 1491 4506 1888 4506 
Q 2323 4506 2668 4336 
Q 3014 4166 3232 3891 
L 2822 3482 
Q 2624 3712 2397 3827 
Q 2170 3942 1875 3942 
Q 1517 3942 1305 3785 
Q 1094 3629 1094 3347 
Q 1094 3123 1212 2985 
Q 1331 2848 1523 2752 
Q 1715 2656 1948 2576 
Q 2182 2496 2412 2400 
Q 2643 2304 2835 2157 
Q 3027 2010 3145 1776 
Q 3264 1542 3264 1190 
Q 3264 602 2857 269 
Q 2451 -64 1760 -64 
z
" transform="scale(0.015625)"/>
        <path id="Outfit-Regular-79" d="M 1421 -26 
L 102 3040 
L 742 3040 
L 1722 640 
L 1517 640 
L 2547 3040 
L 3187 3040 
L 1766 -26 
L 1421 -26 
z
M 550 -1274 
L 1446 563 
L 1766 -26 
L 1190 -1274 
L 550 -1274 
z
" transform="scale(0.015625)"/>
        <path id="Outfit-Regular-75" d="M 1651 -64 
Q 1274 -64 976 105 
Q 678 275 512 576 
Q 346 877 346 1274 
L 346 3040 
L 922 3040 
L 922 1299 
Q 922 1050 1008 867 
Q 1094 685 1260 589 
Q 1427 493 1651 493 
Q 1990 493 2182 707 
Q 2374 922 2374 1299 
L 2374 3040 
L 2950 3040 
L 2950 1274 
Q 2950 877 2784 576 
Q 2618 275 2326 105 
Q 2035 -64 1651 -64 
z
" transform="scale(0.015625)"/>
        <path id="Outfit-Regular-63" d="M 1811 -64 
Q 1363 -64 1001 147 
Q 640 358 432 720 
Q 224 1082 224 1523 
Q 224 1971 432 2329 
Q 640 2688 1001 2896 
Q 1363 3104 1811 3104 
Q 2163 3104 2464 2973 
Q 2765 2842 2982 2592 
L 2598 2208 
Q 2458 2374 2256 2460 
Q 2054 2547 1811 2547 
Q 1523 2547 1299 2416 
Q 1075 2285 947 2054 
Q 819 1824 819 1523 
Q 819 1222 947 992 
Q 1075 762 1299 627 
Q 1523 493 1811 493 
Q 2054 493 2256 579 
Q 2458 666 2605 832 
L 2982 448 
Q 2771 205 2467 70 
Q 2163 -64 1811 -64 
z
" transform="scale(0.015625)"/>
       </defs>
       <use xlink:href="#Outfit-Regular-53"/>
       <use xlink:href="#Outfit-Regular-79" transform="translate(55.499985 0)"/>
       <use xlink:href="#Outfit-Regular-72" transform="translate(106.899979 0)"/>
       <use xlink:href="#Outfit-Regular-69" transform="translate(148.799973 0)"/>
       <use xlink:href="#Outfit-Regular-61" transform="translate(171.199966 0)"/>
       <use xlink:href="#Outfit-Regular-6e" transform="translate(229.399963 0)"/>
       <use xlink:href="#Outfit-Regular-20" transform="translate(284.199951 0)"/>
       <use xlink:href="#Outfit-Regular-41" transform="translate(304.999939 0)"/>
       <use xlink:href="#Outfit-Regular-72" transform="translate(374.59993 0)"/>
       <use xlink:href="#Outfit-Regular-61" transform="translate(416.499924 0)"/>
       <use xlink:href="#Outfit-Regular-62" transform="translate(474.699921 0)"/>
       <use xlink:href="#Outfit-Regular-20" transform="translate(532.899918 0)"/>
       <use xlink:href="#Outfit-Regular-52" transform="translate(553.699905 0)"/>
       <use xlink:href="#Outfit-Regular-65" transform="translate(616.69989 0)"/>
       <use xlink:href="#Outfit-Regular-70" transform="translate(670.299881 0)"/>
       <use xlink:href="#Outfit-Regular-75" transform="translate(728.499878 0)"/>
       <use xlink:href="#Outfit-Regular-62" transform="translate(780.099869 0)"/>
       <use xlink:href="#Outfit-Regular-6c" transform="translate(838.299866 0)"/>
       <use xlink:href="#Outfit-Regular-69" transform="translate(860.499863 0)"/>
       <use xlink:href="#Outfit-Regular-63" transform="translate(882.899857 0)"/>
      </g>
     </g>
    </g>
    <g id="ytick_7">
     <g id="text_14">
      <!-- Tunisia -->
      <g style="fill: #262626" transform="translate(93.771563 259.318199) scale(0.11 -0.11)">
       <defs>
        <path id="Outfit-Regular-54" d="M 1702 0 
L 1702 4314 
L 2304 4314 
L 2304 0 
L 1702 0 
z
M 192 3891 
L 192 4442 
L 3808 4442 
L 3808 3891 
L 192 3891 
z
" transform="scale(0.015625)"/>
        <path id="Outfit-Regular-73" d="M 1389 -64 
Q 1133 -64 905 3 
Q 678 70 486 195 
Q 294 320 154 493 
L 525 864 
Q 691 659 908 560 
Q 1126 461 1395 461 
Q 1664 461 1811 553 
Q 1958 646 1958 813 
Q 1958 979 1840 1072 
Q 1722 1165 1536 1225 
Q 1350 1286 1142 1347 
Q 934 1408 748 1504 
Q 563 1600 444 1766 
Q 326 1933 326 2208 
Q 326 2483 460 2684 
Q 595 2886 835 2995 
Q 1075 3104 1414 3104 
Q 1773 3104 2051 2979 
Q 2330 2854 2509 2605 
L 2138 2234 
Q 2010 2400 1821 2489 
Q 1632 2579 1395 2579 
Q 1146 2579 1014 2492 
Q 883 2406 883 2253 
Q 883 2099 998 2016 
Q 1114 1933 1302 1875 
Q 1491 1818 1696 1757 
Q 1901 1696 2086 1593 
Q 2272 1491 2390 1318 
Q 2509 1146 2509 864 
Q 2509 435 2205 185 
Q 1901 -64 1389 -64 
z
" transform="scale(0.015625)"/>
       </defs>
       <use xlink:href="#Outfit-Regular-54"/>
       <use xlink:href="#Outfit-Regular-75" transform="translate(62.499985 0)"/>
       <use xlink:href="#Outfit-Regular-6e" transform="translate(114.099976 0)"/>
       <use xlink:href="#Outfit-Regular-69" transform="translate(168.899963 0)"/>
       <use xlink:href="#Outfit-Regular-73" transform="translate(191.299957 0)"/>
       <use xlink:href="#Outfit-Regular-69" transform="translate(233.999954 0)"/>
       <use xlink:href="#Outfit-Regular-61" transform="translate(256.399948 0)"/>
      </g>
     </g>
    </g>
    <g id="ytick_8">
     <g id="text_15">
      <!-- Libya -->
      <g style="fill: #262626" transform="translate(101.382188 292.190831) scale(0.11 -0.11)">
       <use xlink:href="#Outfit-Regular-4c"/>
       <use xlink:href="#Outfit-Regular-69" transform="translate(55.199997 0)"/>
       <use xlink:href="#Outfit-Regular-62" transform="translate(77.599991 0)"/>
       <use xlink:href="#Outfit-Regular-79" transform="translate(135.799988 0)"/>
       <use xlink:href="#Outfit-Regular-61" transform="translate(187.199982 0)"/>
      </g>
     </g>
    </g>
    <g id="ytick_9">
     <g id="text_16">
      <!-- Comoros -->
      <g style="fill: #262626" transform="translate(83.422969 325.063462) scale(0.11 -0.11)">
       <defs>
        <path id="Outfit-Regular-43" d="M 2541 -64 
Q 2061 -64 1651 112 
Q 1242 288 938 601 
Q 634 915 467 1331 
Q 301 1747 301 2221 
Q 301 2701 467 3117 
Q 634 3533 938 3843 
Q 1242 4154 1648 4330 
Q 2054 4506 2534 4506 
Q 3059 4506 3456 4326 
Q 3853 4147 4160 3840 
L 3744 3424 
Q 3533 3661 3229 3795 
Q 2925 3930 2534 3930 
Q 2182 3930 1888 3805 
Q 1594 3680 1376 3449 
Q 1158 3219 1040 2905 
Q 922 2592 922 2221 
Q 922 1850 1040 1536 
Q 1158 1222 1376 992 
Q 1594 762 1888 637 
Q 2182 512 2534 512 
Q 2950 512 3257 649 
Q 3565 787 3776 1024 
L 4192 614 
Q 3885 294 3472 115 
Q 3059 -64 2541 -64 
z
" transform="scale(0.015625)"/>
       </defs>
       <use xlink:href="#Outfit-Regular-43"/>
       <use xlink:href="#Outfit-Regular-6f" transform="translate(68.799988 0)"/>
       <use xlink:href="#Outfit-Regular-6d" transform="translate(125.399979 0)"/>
       <use xlink:href="#Outfit-Regular-6f" transform="translate(210.899963 0)"/>
       <use xlink:href="#Outfit-Regular-72" transform="translate(267.499954 0)"/>
       <use xlink:href="#Outfit-Regular-6f" transform="translate(309.399948 0)"/>
       <use xlink:href="#Outfit-Regular-73" transform="translate(365.999939 0)"/>
      </g>
     </g>
    </g>
    <g id="ytick_10">
     <g id="text_17">
      <!-- Jordan -->
      <g style="fill: #262626" transform="translate(93.26625 357.936094) scale(0.11 -0.11)">
       <defs>
        <path id="Outfit-Regular-4a" d="M 1344 -64 
Q 960 -64 669 86 
Q 378 237 192 493 
L 614 883 
Q 736 704 918 608 
Q 1101 512 1325 512 
Q 1549 512 1721 608 
Q 1894 704 1993 893 
Q 2093 1082 2093 1357 
L 2093 4442 
L 2694 4442 
L 2694 1389 
Q 2694 947 2518 620 
Q 2342 294 2038 115 
Q 1734 -64 1344 -64 
z
" transform="scale(0.015625)"/>
        <path id="Outfit-Regular-64" d="M 1709 -64 
Q 1286 -64 953 144 
Q 621 352 425 710 
Q 230 1069 230 1517 
Q 230 1965 425 2323 
Q 621 2682 953 2893 
Q 1286 3104 1709 3104 
Q 2048 3104 2323 2960 
Q 2598 2816 2768 2563 
Q 2938 2310 2957 1978 
L 2957 1062 
Q 2938 736 2771 480 
Q 2605 224 2329 80 
Q 2054 -64 1709 -64 
z
M 1805 480 
Q 2093 480 2307 614 
Q 2522 749 2643 982 
Q 2765 1216 2765 1517 
Q 2765 1830 2640 2060 
Q 2515 2291 2300 2425 
Q 2086 2560 1798 2560 
Q 1510 2560 1292 2425 
Q 1075 2291 950 2057 
Q 826 1824 826 1523 
Q 826 1216 950 982 
Q 1075 749 1296 614 
Q 1517 480 1805 480 
z
M 3309 0 
L 2726 0 
L 2726 819 
L 2835 1562 
L 2726 2298 
L 2726 4570 
L 3309 4570 
L 3309 0 
z
" transform="scale(0.015625)"/>
       </defs>
       <use xlink:href="#Outfit-Regular-4a"/>
       <use xlink:href="#Outfit-Regular-6f" transform="translate(49.499985 0)"/>
       <use xlink:href="#Outfit-Regular-72" transform="translate(106.099976 0)"/>
       <use xlink:href="#Outfit-Regular-64" transform="translate(147.999969 0)"/>
       <use xlink:href="#Outfit-Regular-61" transform="translate(206.199966 0)"/>
       <use xlink:href="#Outfit-Regular-6e" transform="translate(264.399963 0)"/>
      </g>
     </g>
    </g>
    <g id="ytick_11">
     <g id="text_18">
      <!-- Somalia -->
      <g style="fill: #262626" transform="translate(88.931563 390.808725) scale(0.11 -0.11)">
       <use xlink:href="#Outfit-Regular-53"/>
       <use xlink:href="#Outfit-Regular-6f" transform="translate(55.499985 0)"/>
       <use xlink:href="#Outfit-Regular-6d" transform="translate(112.099976 0)"/>
       <use xlink:href="#Outfit-Regular-61" transform="translate(197.59996 0)"/>
       <use xlink:href="#Outfit-Regular-6c" transform="translate(255.799957 0)"/>
       <use xlink:href="#Outfit-Regular-69" transform="translate(277.999954 0)"/>
       <use xlink:href="#Outfit-Regular-61" transform="translate(300.399948 0)"/>
      </g>
     </g>
    </g>
    <g id="ytick_12">
     <g id="text_19">
      <!-- Saudi Arabia -->
      <g style="fill: #262626" transform="translate(65.104531 423.681357) scale(0.11 -0.11)">
       <use xlink:href="#Outfit-Regular-53"/>
       <use xlink:href="#Outfit-Regular-61" transform="translate(55.499985 0)"/>
       <use xlink:href="#Outfit-Regular-75" transform="translate(113.699982 0)"/>
       <use xlink:href="#Outfit-Regular-64" transform="translate(165.299973 0)"/>
       <use xlink:href="#Outfit-Regular-69" transform="translate(223.499969 0)"/>
       <use xlink:href="#Outfit-Regular-20" transform="translate(245.899963 0)"/>
       <use xlink:href="#Outfit-Regular-41" transform="translate(266.699951 0)"/>
       <use xlink:href="#Outfit-Regular-72" transform="translate(336.299942 0)"/>
       <use xlink:href="#Outfit-Regular-61" transform="translate(378.199936 0)"/>
       <use xlink:href="#Outfit-Regular-62" transform="translate(436.399933 0)"/>
       <use xlink:href="#Outfit-Regular-69" transform="translate(494.59993 0)"/>
       <use xlink:href="#Outfit-Regular-61" transform="translate(516.999924 0)"/>
      </g>
     </g>
    </g>
    <g id="ytick_13">
     <g id="text_20">
      <!-- Bahrain -->
      <g style="fill: #262626" transform="translate(89.591563 456.553988) scale(0.11 -0.11)">
       <defs>
        <path id="Outfit-Regular-42" d="M 928 0 
L 928 525 
L 2272 525 
Q 2656 525 2873 752 
Q 3091 979 3091 1299 
Q 3091 1517 2995 1693 
Q 2899 1869 2716 1971 
Q 2534 2074 2291 2074 
L 928 2074 
L 928 2598 
L 2202 2598 
Q 2522 2598 2710 2768 
Q 2899 2938 2899 3258 
Q 2899 3578 2700 3747 
Q 2502 3917 2176 3917 
L 928 3917 
L 928 4442 
L 2189 4442 
Q 2624 4442 2915 4285 
Q 3206 4128 3356 3872 
Q 3507 3616 3507 3309 
Q 3507 2950 3312 2681 
Q 3117 2413 2739 2259 
L 2790 2451 
Q 3219 2298 3459 1987 
Q 3699 1677 3699 1254 
Q 3699 902 3526 620 
Q 3354 339 3030 169 
Q 2707 0 2240 0 
L 928 0 
z
M 525 0 
L 525 4442 
L 1126 4442 
L 1126 0 
L 525 0 
z
" transform="scale(0.015625)"/>
        <path id="Outfit-Regular-68" d="M 2573 0 
L 2573 1773 
Q 2573 2118 2355 2342 
Q 2138 2566 1792 2566 
Q 1562 2566 1382 2464 
Q 1203 2362 1100 2182 
Q 998 2003 998 1773 
L 762 1907 
Q 762 2253 915 2521 
Q 1069 2790 1344 2947 
Q 1619 3104 1965 3104 
Q 2310 3104 2576 2950 
Q 2842 2797 2995 2521 
Q 3149 2246 3149 1888 
L 3149 0 
L 2573 0 
z
M 422 0 
L 422 4570 
L 998 4570 
L 998 0 
L 422 0 
z
" transform="scale(0.015625)"/>
       </defs>
       <use xlink:href="#Outfit-Regular-42"/>
       <use xlink:href="#Outfit-Regular-61" transform="translate(62.299988 0)"/>
       <use xlink:href="#Outfit-Regular-68" transform="translate(120.499985 0)"/>
       <use xlink:href="#Outfit-Regular-72" transform="translate(175.299973 0)"/>
       <use xlink:href="#Outfit-Regular-61" transform="translate(217.199966 0)"/>
       <use xlink:href="#Outfit-Regular-69" transform="translate(275.399963 0)"/>
       <use xlink:href="#Outfit-Regular-6e" transform="translate(297.799957 0)"/>
      </g>
     </g>
    </g>
    <g id="ytick_14">
     <g id="text_21">
      <!-- Mauritania -->
      <g style="fill: #262626" transform="translate(74.652188 489.42662) scale(0.11 -0.11)">
       <defs>
        <path id="Outfit-Regular-4d" d="M 525 0 
L 525 4442 
L 947 4442 
L 2829 1350 
L 2541 1350 
L 4422 4442 
L 4845 4442 
L 4845 0 
L 4243 0 
L 4243 3386 
L 4384 3347 
L 2899 909 
L 2477 909 
L 992 3347 
L 1126 3386 
L 1126 0 
L 525 0 
z
" transform="scale(0.015625)"/>
       </defs>
       <use xlink:href="#Outfit-Regular-4d"/>
       <use xlink:href="#Outfit-Regular-61" transform="translate(83.899994 0)"/>
       <use xlink:href="#Outfit-Regular-75" transform="translate(142.099991 0)"/>
       <use xlink:href="#Outfit-Regular-72" transform="translate(193.699982 0)"/>
       <use xlink:href="#Outfit-Regular-69" transform="translate(235.599976 0)"/>
       <use xlink:href="#Outfit-Regular-74" transform="translate(257.999969 0)"/>
       <use xlink:href="#Outfit-Regular-61" transform="translate(294.799957 0)"/>
       <use xlink:href="#Outfit-Regular-6e" transform="translate(352.999954 0)"/>
       <use xlink:href="#Outfit-Regular-69" transform="translate(407.799942 0)"/>
       <use xlink:href="#Outfit-Regular-61" transform="translate(430.199936 0)"/>
      </g>
     </g>
    </g>
    <g id="ytick_15">
     <g id="text_22">
      <!-- Morocco -->
      <g style="fill: #262626" transform="translate(85.103906 522.299252) scale(0.11 -0.11)">
       <use xlink:href="#Outfit-Regular-4d"/>
       <use xlink:href="#Outfit-Regular-6f" transform="translate(83.899994 0)"/>
       <use xlink:href="#Outfit-Regular-72" transform="translate(140.499985 0)"/>
       <use xlink:href="#Outfit-Regular-6f" transform="translate(182.399979 0)"/>
       <use xlink:href="#Outfit-Regular-63" transform="translate(238.999969 0)"/>
       <use xlink:href="#Outfit-Regular-63" transform="translate(287.899963 0)"/>
       <use xlink:href="#Outfit-Regular-6f" transform="translate(336.799957 0)"/>
      </g>
     </g>
    </g>
    <g id="ytick_16">
     <g id="text_23">
      <!-- Djibouti -->
      <g style="fill: #262626" transform="translate(90.428594 555.171883) scale(0.11 -0.11)">
       <defs>
        <path id="Outfit-Regular-44" d="M 922 0 
L 922 550 
L 2157 550 
Q 2650 550 3021 764 
Q 3392 979 3600 1356 
Q 3808 1734 3808 2227 
Q 3808 2714 3597 3091 
Q 3386 3469 3014 3680 
Q 2643 3891 2157 3891 
L 928 3891 
L 928 4442 
L 2170 4442 
Q 2656 4442 3069 4275 
Q 3482 4109 3786 3808 
Q 4090 3507 4259 3104 
Q 4429 2701 4429 2221 
Q 4429 1747 4259 1340 
Q 4090 934 3789 633 
Q 3488 333 3075 166 
Q 2662 0 2182 0 
L 922 0 
z
M 525 0 
L 525 4442 
L 1126 4442 
L 1126 0 
L 525 0 
z
" transform="scale(0.015625)"/>
        <path id="Outfit-Regular-6a" d="M 38 -1338 
Q -256 -1338 -457 -1242 
Q -659 -1146 -819 -966 
L -448 -589 
Q -358 -698 -252 -749 
Q -147 -800 0 -800 
Q 192 -800 333 -681 
Q 474 -563 474 -326 
L 474 3040 
L 1050 3040 
L 1050 -320 
Q 1050 -653 909 -877 
Q 768 -1101 537 -1219 
Q 307 -1338 38 -1338 
z
M 768 3648 
Q 614 3648 512 3753 
Q 410 3859 410 4019 
Q 410 4173 512 4278 
Q 614 4384 768 4384 
Q 928 4384 1030 4278 
Q 1133 4173 1133 4019 
Q 1133 3859 1030 3753 
Q 928 3648 768 3648 
z
" transform="scale(0.015625)"/>
       </defs>
       <use xlink:href="#Outfit-Regular-44"/>
       <use xlink:href="#Outfit-Regular-6a" transform="translate(73.999985 0)"/>
       <use xlink:href="#Outfit-Regular-69" transform="translate(96.999969 0)"/>
       <use xlink:href="#Outfit-Regular-62" transform="translate(119.399963 0)"/>
       <use xlink:href="#Outfit-Regular-6f" transform="translate(177.59996 0)"/>
       <use xlink:href="#Outfit-Regular-75" transform="translate(234.199951 0)"/>
       <use xlink:href="#Outfit-Regular-74" transform="translate(285.799942 0)"/>
       <use xlink:href="#Outfit-Regular-69" transform="translate(322.59993 0)"/>
      </g>
     </g>
    </g>
    <g id="ytick_17">
     <g id="text_24">
      <!-- Egypt, Arab Rep. -->
      <g style="fill: #262626" transform="translate(44.326563 588.044515) scale(0.11 -0.11)">
       <defs>
        <path id="Outfit-Regular-45" d="M 525 0 
L 525 4442 
L 1126 4442 
L 1126 0 
L 525 0 
z
M 934 0 
L 934 550 
L 3482 550 
L 3482 0 
L 934 0 
z
M 934 2010 
L 934 2534 
L 3270 2534 
L 3270 2010 
L 934 2010 
z
M 934 3891 
L 934 4442 
L 3450 4442 
L 3450 3891 
L 934 3891 
z
" transform="scale(0.015625)"/>
       </defs>
       <use xlink:href="#Outfit-Regular-45"/>
       <use xlink:href="#Outfit-Regular-67" transform="translate(58.999985 0)"/>
       <use xlink:href="#Outfit-Regular-79" transform="translate(116.899979 0)"/>
       <use xlink:href="#Outfit-Regular-70" transform="translate(168.299973 0)"/>
       <use xlink:href="#Outfit-Regular-74" transform="translate(226.499969 0)"/>
       <use xlink:href="#Outfit-Regular-2c" transform="translate(263.299957 0)"/>
       <use xlink:href="#Outfit-Regular-20" transform="translate(290.799942 0)"/>
       <use xlink:href="#Outfit-Regular-41" transform="translate(311.59993 0)"/>
       <use xlink:href="#Outfit-Regular-72" transform="translate(381.199921 0)"/>
       <use xlink:href="#Outfit-Regular-61" transform="translate(423.099915 0)"/>
       <use xlink:href="#Outfit-Regular-62" transform="translate(481.299911 0)"/>
       <use xlink:href="#Outfit-Regular-20" transform="translate(539.499908 0)"/>
       <use xlink:href="#Outfit-Regular-52" transform="translate(560.299896 0)"/>
       <use xlink:href="#Outfit-Regular-65" transform="translate(623.299881 0)"/>
       <use xlink:href="#Outfit-Regular-70" transform="translate(676.899872 0)"/>
       <use xlink:href="#Outfit-Regular-2e" transform="translate(735.099869 0)"/>
      </g>
     </g>
    </g>
    <g id="ytick_18">
     <g id="text_25">
      <!-- Iraq -->
      <g style="fill: #262626" transform="translate(108.11625 620.917146) scale(0.11 -0.11)">
       <defs>
        <path id="Outfit-Regular-49" d="M 525 0 
L 525 4442 
L 1126 4442 
L 1126 0 
L 525 0 
z
" transform="scale(0.015625)"/>
        <path id="Outfit-Regular-71" d="M 1722 -64 
Q 1299 -64 960 144 
Q 621 352 425 710 
Q 230 1069 230 1517 
Q 230 1965 425 2323 
Q 621 2682 960 2893 
Q 1299 3104 1715 3104 
Q 2067 3104 2339 2960 
Q 2611 2816 2774 2563 
Q 2938 2310 2957 1978 
L 2957 1062 
Q 2938 736 2774 480 
Q 2611 224 2339 80 
Q 2067 -64 1722 -64 
z
M 1811 480 
Q 2240 480 2502 771 
Q 2765 1062 2765 1517 
Q 2765 1830 2646 2064 
Q 2528 2298 2313 2429 
Q 2099 2560 1811 2560 
Q 1523 2560 1302 2425 
Q 1082 2291 954 2057 
Q 826 1824 826 1523 
Q 826 1216 954 982 
Q 1082 749 1302 614 
Q 1523 480 1811 480 
z
M 2733 -1274 
L 2733 762 
L 2835 1504 
L 2733 2240 
L 2733 3040 
L 3309 3040 
L 3309 -1274 
L 2733 -1274 
z
" transform="scale(0.015625)"/>
       </defs>
       <use xlink:href="#Outfit-Regular-49"/>
       <use xlink:href="#Outfit-Regular-72" transform="translate(25.799988 0)"/>
       <use xlink:href="#Outfit-Regular-61" transform="translate(67.699982 0)"/>
       <use xlink:href="#Outfit-Regular-71" transform="translate(125.899979 0)"/>
      </g>
     </g>
    </g>
    <g id="ytick_19">
     <g id="text_26">
      <!-- United Arab Emirates -->
      <g style="fill: #262626" transform="translate(22.37125 653.789778) scale(0.11 -0.11)">
       <defs>
        <path id="Outfit-Regular-55" d="M 2189 -64 
Q 1696 -64 1309 157 
Q 922 378 698 765 
Q 474 1152 474 1645 
L 474 4442 
L 1075 4442 
L 1075 1658 
Q 1075 1306 1222 1050 
Q 1370 794 1622 653 
Q 1875 512 2189 512 
Q 2515 512 2761 653 
Q 3008 794 3152 1050 
Q 3296 1306 3296 1651 
L 3296 4442 
L 3904 4442 
L 3904 1638 
Q 3904 1146 3680 762 
Q 3456 378 3072 157 
Q 2688 -64 2189 -64 
z
" transform="scale(0.015625)"/>
       </defs>
       <use xlink:href="#Outfit-Regular-55"/>
       <use xlink:href="#Outfit-Regular-6e" transform="translate(68.299988 0)"/>
       <use xlink:href="#Outfit-Regular-69" transform="translate(123.099976 0)"/>
       <use xlink:href="#Outfit-Regular-74" transform="translate(145.499969 0)"/>
       <use xlink:href="#Outfit-Regular-65" transform="translate(182.299957 0)"/>
       <use xlink:href="#Outfit-Regular-64" transform="translate(235.899948 0)"/>
       <use xlink:href="#Outfit-Regular-20" transform="translate(294.099945 0)"/>
       <use xlink:href="#Outfit-Regular-41" transform="translate(314.899933 0)"/>
       <use xlink:href="#Outfit-Regular-72" transform="translate(384.499924 0)"/>
       <use xlink:href="#Outfit-Regular-61" transform="translate(426.399918 0)"/>
       <use xlink:href="#Outfit-Regular-62" transform="translate(484.599915 0)"/>
       <use xlink:href="#Outfit-Regular-20" transform="translate(542.799911 0)"/>
       <use xlink:href="#Outfit-Regular-45" transform="translate(563.599899 0)"/>
       <use xlink:href="#Outfit-Regular-6d" transform="translate(622.599884 0)"/>
       <use xlink:href="#Outfit-Regular-69" transform="translate(708.099869 0)"/>
       <use xlink:href="#Outfit-Regular-72" transform="translate(730.499863 0)"/>
       <use xlink:href="#Outfit-Regular-61" transform="translate(772.399857 0)"/>
       <use xlink:href="#Outfit-Regular-74" transform="translate(830.599854 0)"/>
       <use xlink:href="#Outfit-Regular-65" transform="translate(867.399841 0)"/>
       <use xlink:href="#Outfit-Regular-73" transform="translate(920.999832 0)"/>
      </g>
     </g>
    </g>
    <g id="text_27">
     <!-- Country -->
     <g style="fill: #262626" transform="translate(15.91125 376.528437) rotate(-90) scale(0.12 -0.12)">
      <defs>
       <path id="Outfit-Bold-43" d="M 2579 -70 
Q 2074 -70 1642 106 
Q 1210 282 886 602 
Q 563 922 384 1347 
Q 205 1773 205 2266 
Q 205 2758 384 3184 
Q 563 3610 883 3923 
Q 1203 4237 1635 4413 
Q 2067 4589 2573 4589 
Q 3110 4589 3529 4416 
Q 3949 4243 4262 3942 
L 3590 3264 
Q 3411 3456 3158 3565 
Q 2906 3674 2573 3674 
Q 2278 3674 2032 3574 
Q 1786 3475 1610 3289 
Q 1434 3104 1334 2841 
Q 1235 2579 1235 2266 
Q 1235 1946 1334 1683 
Q 1434 1421 1610 1235 
Q 1786 1050 2032 947 
Q 2278 845 2573 845 
Q 2918 845 3174 953 
Q 3430 1062 3616 1254 
L 4294 576 
Q 3968 275 3549 102 
Q 3130 -70 2579 -70 
z
" transform="scale(0.015625)"/>
       <path id="Outfit-Bold-75" d="M 1728 -70 
Q 1299 -70 969 106 
Q 640 282 454 592 
Q 269 902 269 1306 
L 269 3110 
L 1248 3110 
L 1248 1318 
Q 1248 1158 1302 1043 
Q 1357 928 1465 864 
Q 1574 800 1728 800 
Q 1946 800 2074 937 
Q 2202 1075 2202 1318 
L 2202 3110 
L 3181 3110 
L 3181 1312 
Q 3181 902 2995 592 
Q 2810 282 2483 106 
Q 2157 -70 1728 -70 
z
" transform="scale(0.015625)"/>
       <path id="Outfit-Bold-79" d="M 1306 -13 
L 26 3110 
L 1082 3110 
L 1894 634 
L 1504 634 
L 2336 3110 
L 3392 3110 
L 2061 -13 
L 1306 -13 
z
M 506 -1312 
L 1440 704 
L 2061 -13 
L 1510 -1312 
L 506 -1312 
z
" transform="scale(0.015625)"/>
      </defs>
      <use xlink:href="#Outfit-Bold-43"/>
      <use xlink:href="#Outfit-Bold-6f" transform="translate(68.899994 0)"/>
      <use xlink:href="#Outfit-Bold-75" transform="translate(126.499985 0)"/>
      <use xlink:href="#Outfit-Bold-6e" transform="translate(180.399979 0)"/>
      <use xlink:href="#Outfit-Bold-74" transform="translate(237.599976 0)"/>
      <use xlink:href="#Outfit-Bold-72" transform="translate(277.499969 0)"/>
      <use xlink:href="#Outfit-Bold-79" transform="translate(321.899963 0)"/>
     </g>
    </g>
   </g>
   <g id="patch_3">
    <path d="M 137.878594 45.006013 
L 137.878594 45.006013 
L 137.878594 71.304118 
L 137.878594 71.304118 
z
" clip-path="url(#p3726d72313)" style="fill: #451d5b; stroke: #ffffff; stroke-linejoin: miter"/>
   </g>
   <g id="patch_4">
    <path d="M 137.878594 77.878645 
L 137.878594 77.878645 
L 137.878594 104.17675 
L 137.878594 104.17675 
z
" clip-path="url(#p3726d72313)" style="fill: #492e6b; stroke: #ffffff; stroke-linejoin: miter"/>
   </g>
   <g id="patch_5">
    <path d="M 137.878594 110.751276 
L 209.962813 110.751276 
L 209.962813 137.049382 
L 137.878594 137.049382 
z
" clip-path="url(#p3726d72313)" style="fill: #4b3e76; stroke: #ffffff; stroke-linejoin: miter"/>
   </g>
   <g id="patch_6">
    <path d="M 137.878594 143.623908 
L 239.257165 143.623908 
L 239.257165 169.922013 
L 137.878594 169.922013 
z
" clip-path="url(#p3726d72313)" style="fill: #e00700; opacity: 0.9; stroke: #e00700; stroke-linejoin: miter"/>
   </g>
   <g id="patch_7">
    <path d="M 137.878594 176.496539 
L 265.404726 176.496539 
L 265.404726 202.794645 
L 137.878594 202.794645 
z
" clip-path="url(#p3726d72313)" style="fill: #455681; stroke: #ffffff; stroke-linejoin: miter"/>
   </g>
   <g id="patch_8">
    <path d="M 137.878594 209.369171 
L 293.596079 209.369171 
L 293.596079 235.667276 
L 137.878594 235.667276 
z
" clip-path="url(#p3726d72313)" style="fill: #405f82; stroke: #ffffff; stroke-linejoin: miter"/>
   </g>
   <g id="patch_9">
    <path d="M 137.878594 242.241803 
L 392.314477 242.241803 
L 392.314477 268.539908 
L 137.878594 268.539908 
z
" clip-path="url(#p3726d72313)" style="fill: #3b6882; stroke: #ffffff; stroke-linejoin: miter"/>
   </g>
   <g id="patch_10">
    <path d="M 137.878594 275.114434 
L 405.047626 275.114434 
L 405.047626 301.412539 
L 137.878594 301.412539 
z
" clip-path="url(#p3726d72313)" style="fill: #367182; stroke: #ffffff; stroke-linejoin: miter"/>
   </g>
   <g id="patch_11">
    <path d="M 137.878594 307.987066 
L 408.226858 307.987066 
L 408.226858 334.285171 
L 137.878594 334.285171 
z
" clip-path="url(#p3726d72313)" style="fill: #327a81; stroke: #ffffff; stroke-linejoin: miter"/>
   </g>
   <g id="patch_12">
    <path d="M 137.878594 340.859697 
L 455.234074 340.859697 
L 455.234074 367.157803 
L 137.878594 367.157803 
z
" clip-path="url(#p3726d72313)" style="fill: #2f837f; stroke: #ffffff; stroke-linejoin: miter"/>
   </g>
   <g id="patch_13">
    <path d="M 137.878594 373.732329 
L 456.385734 373.732329 
L 456.385734 400.030434 
L 137.878594 400.030434 
z
" clip-path="url(#p3726d72313)" style="fill: #2e8c7e; stroke: #ffffff; stroke-linejoin: miter"/>
   </g>
   <g id="patch_14">
    <path d="M 137.878594 406.604961 
L 460.148907 406.604961 
L 460.148907 432.903066 
L 137.878594 432.903066 
z
" clip-path="url(#p3726d72313)" style="fill: #75e000; opacity: 0.9; stroke: #75e000; stroke-linejoin: miter"/>
   </g>
   <g id="patch_15">
    <path d="M 137.878594 439.477592 
L 462.290022 439.477592 
L 462.290022 465.775697 
L 137.878594 465.775697 
z
" clip-path="url(#p3726d72313)" style="fill: #40a379; stroke: #ffffff; stroke-linejoin: miter"/>
   </g>
   <g id="patch_16">
    <path d="M 137.878594 472.350224 
L 515.736805 472.350224 
L 515.736805 498.648329 
L 137.878594 498.648329 
z
" clip-path="url(#p3726d72313)" style="fill: #53b075; stroke: #ffffff; stroke-linejoin: miter"/>
   </g>
   <g id="patch_17">
    <path d="M 137.878594 505.222855 
L 532.103362 505.222855 
L 532.103362 531.520961 
L 137.878594 531.520961 
z
" clip-path="url(#p3726d72313)" style="fill: #e07a00; opacity: 0.9; stroke: #e07a00; stroke-linejoin: miter"/>
   </g>
   <g id="patch_18">
    <path d="M 137.878594 538.095487 
L 562.111419 538.095487 
L 562.111419 564.393592 
L 137.878594 564.393592 
z
" clip-path="url(#p3726d72313)" style="fill: #80c161; stroke: #ffffff; stroke-linejoin: miter"/>
   </g>
   <g id="patch_19">
    <path d="M 137.878594 570.968118 
L 587.237084 570.968118 
L 587.237084 597.266224 
L 137.878594 597.266224 
z
" clip-path="url(#p3726d72313)" style="fill: #c200e0; opacity: 0.9; stroke: #c200e0; stroke-linejoin: miter"/>
   </g>
   <g id="patch_20">
    <path d="M 137.878594 603.84075 
L 606.247594 603.84075 
L 606.247594 630.138855 
L 137.878594 630.138855 
z
" clip-path="url(#p3726d72313)" style="fill: #aec83d; stroke: #ffffff; stroke-linejoin: miter"/>
   </g>
   <g id="patch_21">
    <path d="M 137.878594 636.713382 
L 948.907165 636.713382 
L 948.907165 663.011487 
L 137.878594 663.011487 
z
" clip-path="url(#p3726d72313)" style="fill: #c7ca32; stroke: #ffffff; stroke-linejoin: miter"/>
   </g>
   <g id="line2d_7">
    <path clip-path="url(#p3726d72313)" style="fill: none; stroke: #424242; stroke-width: 2.25; stroke-linecap: round"/>
   </g>
   <g id="line2d_8">
    <path clip-path="url(#p3726d72313)" style="fill: none; stroke: #424242; stroke-width: 2.25; stroke-linecap: round"/>
   </g>
   <g id="line2d_9">
    <path clip-path="url(#p3726d72313)" style="fill: none; stroke: #424242; stroke-width: 2.25; stroke-linecap: round"/>
   </g>
   <g id="line2d_10">
    <path clip-path="url(#p3726d72313)" style="fill: none; stroke: #424242; stroke-width: 2.25; stroke-linecap: round"/>
   </g>
   <g id="line2d_11">
    <path clip-path="url(#p3726d72313)" style="fill: none; stroke: #424242; stroke-width: 2.25; stroke-linecap: round"/>
   </g>
   <g id="line2d_12">
    <path clip-path="url(#p3726d72313)" style="fill: none; stroke: #424242; stroke-width: 2.25; stroke-linecap: round"/>
   </g>
   <g id="line2d_13">
    <path clip-path="url(#p3726d72313)" style="fill: none; stroke: #424242; stroke-width: 2.25; stroke-linecap: round"/>
   </g>
   <g id="line2d_14">
    <path clip-path="url(#p3726d72313)" style="fill: none; stroke: #424242; stroke-width: 2.25; stroke-linecap: round"/>
   </g>
   <g id="line2d_15">
    <path clip-path="url(#p3726d72313)" style="fill: none; stroke: #424242; stroke-width: 2.25; stroke-linecap: round"/>
   </g>
   <g id="line2d_16">
    <path clip-path="url(#p3726d72313)" style="fill: none; stroke: #424242; stroke-width: 2.25; stroke-linecap: round"/>
   </g>
   <g id="line2d_17">
    <path clip-path="url(#p3726d72313)" style="fill: none; stroke: #424242; stroke-width: 2.25; stroke-linecap: round"/>
   </g>
   <g id="line2d_18">
    <path clip-path="url(#p3726d72313)" style="fill: none; stroke: #424242; stroke-width: 2.25; stroke-linecap: round"/>
   </g>
   <g id="line2d_19">
    <path clip-path="url(#p3726d72313)" style="fill: none; stroke: #424242; stroke-width: 2.25; stroke-linecap: round"/>
   </g>
   <g id="line2d_20">
    <path clip-path="url(#p3726d72313)" style="fill: none; stroke: #424242; stroke-width: 2.25; stroke-linecap: round"/>
   </g>
   <g id="line2d_21">
    <path clip-path="url(#p3726d72313)" style="fill: none; stroke: #424242; stroke-width: 2.25; stroke-linecap: round"/>
   </g>
   <g id="line2d_22">
    <path clip-path="url(#p3726d72313)" style="fill: none; stroke: #424242; stroke-width: 2.25; stroke-linecap: round"/>
   </g>
   <g id="line2d_23">
    <path clip-path="url(#p3726d72313)" style="fill: none; stroke: #424242; stroke-width: 2.25; stroke-linecap: round"/>
   </g>
   <g id="line2d_24">
    <path clip-path="url(#p3726d72313)" style="fill: none; stroke: #424242; stroke-width: 2.25; stroke-linecap: round"/>
   </g>
   <g id="line2d_25">
    <path clip-path="url(#p3726d72313)" style="fill: none; stroke: #424242; stroke-width: 2.25; stroke-linecap: round"/>
   </g>
   <g id="patch_22">
    <path d="M 137.878594 666.29875 
L 137.878594 41.71875 
" style="fill: none; stroke: #ffffff; stroke-width: 1.25; stroke-linejoin: miter; stroke-linecap: square"/>
   </g>
   <g id="patch_23">
    <path d="M 989.458594 666.29875 
L 989.458594 41.71875 
" style="fill: none; stroke: #ffffff; stroke-width: 1.25; stroke-linejoin: miter; stroke-linecap: square"/>
   </g>
   <g id="patch_24">
    <path d="M 137.878594 666.29875 
L 989.458594 666.29875 
" style="fill: none; stroke: #ffffff; stroke-width: 1.25; stroke-linejoin: miter; stroke-linecap: square"/>
   </g>
   <g id="patch_25">
    <path d="M 137.878594 41.71875 
L 989.458594 41.71875 
" style="fill: none; stroke: #ffffff; stroke-width: 1.25; stroke-linejoin: miter; stroke-linecap: square"/>
   </g>
   <g id="text_28">
    <!-- 4.4% -->
    <g style="fill: #262626" transform="translate(214.828985 126.505016) scale(0.1 -0.1)">
     <defs>
      <path id="Outfit-Bold-34" d="M 134 1568 
L 1619 4518 
L 2714 4518 
L 1197 1568 
L 134 1568 
z
M 134 1005 
L 134 1568 
L 467 1856 
L 3757 1856 
L 3757 1005 
L 134 1005 
z
M 2266 0 
L 2266 2797 
L 3251 2797 
L 3251 0 
L 2266 0 
z
" transform="scale(0.015625)"/>
      <path id="Outfit-Bold-2e" d="M 960 -70 
Q 710 -70 544 102 
Q 378 275 378 518 
Q 378 774 544 944 
Q 710 1114 960 1114 
Q 1216 1114 1379 944 
Q 1542 774 1542 518 
Q 1542 275 1379 102 
Q 1216 -70 960 -70 
z
" transform="scale(0.015625)"/>
     </defs>
     <use xlink:href="#Outfit-Bold-34"/>
     <use xlink:href="#Outfit-Bold-2e" transform="translate(60.899994 0)"/>
     <use xlink:href="#Outfit-Bold-34" transform="translate(90.899979 0)"/>
     <use xlink:href="#Outfit-Bold-25" transform="translate(151.799973 0)"/>
    </g>
   </g>
   <g id="text_29">
    <!-- 6.2% -->
    <g style="fill: #262626" transform="translate(244.123337 159.377648) scale(0.1 -0.1)">
     <defs>
      <path id="Outfit-Bold-36" d="M 1837 -70 
Q 1363 -70 982 141 
Q 602 352 381 707 
Q 160 1062 160 1504 
Q 160 2080 563 2669 
L 1837 4518 
L 2970 4518 
L 1555 2547 
L 1178 2515 
Q 1267 2669 1366 2781 
Q 1466 2893 1619 2953 
Q 1773 3014 2010 3014 
Q 2432 3014 2768 2819 
Q 3104 2624 3309 2288 
Q 3514 1952 3514 1517 
Q 3514 1075 3290 713 
Q 3066 352 2688 141 
Q 2310 -70 1837 -70 
z
M 1837 806 
Q 2035 806 2195 902 
Q 2355 998 2444 1164 
Q 2534 1331 2534 1536 
Q 2534 1747 2444 1910 
Q 2355 2074 2195 2166 
Q 2035 2259 1837 2259 
Q 1632 2259 1475 2166 
Q 1318 2074 1228 1910 
Q 1139 1747 1139 1536 
Q 1139 1331 1228 1164 
Q 1318 998 1475 902 
Q 1632 806 1837 806 
z
" transform="scale(0.015625)"/>
      <path id="Outfit-Bold-32" d="M 154 563 
L 1888 2355 
Q 2048 2515 2144 2649 
Q 2240 2784 2285 2902 
Q 2330 3021 2330 3142 
Q 2330 3405 2160 3555 
Q 1990 3706 1715 3706 
Q 1446 3706 1232 3562 
Q 1018 3418 819 3091 
L 147 3674 
Q 416 4128 832 4358 
Q 1248 4589 1786 4589 
Q 2253 4589 2595 4416 
Q 2938 4243 3126 3923 
Q 3315 3603 3315 3174 
Q 3315 2906 3244 2678 
Q 3174 2451 3017 2230 
Q 2861 2010 2598 1747 
L 1395 550 
L 154 563 
z
M 154 0 
L 154 563 
L 1005 858 
L 3405 858 
L 3405 0 
L 154 0 
z
" transform="scale(0.015625)"/>
     </defs>
     <use xlink:href="#Outfit-Bold-36"/>
     <use xlink:href="#Outfit-Bold-2e" transform="translate(57.299988 0)"/>
     <use xlink:href="#Outfit-Bold-32" transform="translate(87.299973 0)"/>
     <use xlink:href="#Outfit-Bold-25" transform="translate(143.699966 0)"/>
    </g>
   </g>
   <g id="text_30">
    <!-- 7.9% -->
    <g style="fill: #262626" transform="translate(270.270898 192.25028) scale(0.1 -0.1)">
     <defs>
      <path id="Outfit-Bold-37" d="M 730 0 
L 2266 3955 
L 3245 3955 
L 1766 0 
L 730 0 
z
M 128 3667 
L 128 4518 
L 3245 4518 
L 3245 3955 
L 2912 3667 
L 128 3667 
z
" transform="scale(0.015625)"/>
      <path id="Outfit-Bold-39" d="M 698 0 
L 2118 1978 
L 2490 2003 
Q 2406 1856 2307 1744 
Q 2208 1632 2057 1571 
Q 1907 1510 1658 1510 
Q 1248 1510 905 1705 
Q 563 1901 361 2237 
Q 160 2573 160 3002 
Q 160 3450 384 3808 
Q 608 4166 985 4377 
Q 1363 4589 1837 4589 
Q 2310 4589 2688 4381 
Q 3066 4173 3286 3817 
Q 3507 3462 3507 3014 
Q 3507 2438 3110 1856 
L 1837 0 
L 698 0 
z
M 1837 2259 
Q 2035 2259 2195 2355 
Q 2355 2451 2444 2614 
Q 2534 2778 2534 2982 
Q 2534 3194 2444 3360 
Q 2355 3526 2195 3619 
Q 2035 3712 1837 3712 
Q 1632 3712 1475 3619 
Q 1318 3526 1225 3360 
Q 1133 3194 1133 2982 
Q 1133 2778 1225 2614 
Q 1318 2451 1478 2355 
Q 1638 2259 1837 2259 
z
" transform="scale(0.015625)"/>
     </defs>
     <use xlink:href="#Outfit-Bold-37"/>
     <use xlink:href="#Outfit-Bold-2e" transform="translate(52.699997 0)"/>
     <use xlink:href="#Outfit-Bold-39" transform="translate(82.699982 0)"/>
     <use xlink:href="#Outfit-Bold-25" transform="translate(139.999969 0)"/>
    </g>
   </g>
   <g id="text_31">
    <!-- 9.6% -->
    <g style="fill: #262626" transform="translate(298.462251 225.122911) scale(0.1 -0.1)">
     <use xlink:href="#Outfit-Bold-39"/>
     <use xlink:href="#Outfit-Bold-2e" transform="translate(57.299988 0)"/>
     <use xlink:href="#Outfit-Bold-36" transform="translate(87.299973 0)"/>
     <use xlink:href="#Outfit-Bold-25" transform="translate(144.59996 0)"/>
    </g>
   </g>
   <g id="text_32">
    <!-- 15.7% -->
    <g style="fill: #262626" transform="translate(397.180649 257.995543) scale(0.1 -0.1)">
     <defs>
      <path id="Outfit-Bold-31" d="M 998 0 
L 998 4518 
L 1997 4518 
L 1997 0 
L 998 0 
z
M 128 3667 
L 128 4518 
L 1933 4518 
L 1933 3667 
L 128 3667 
z
" transform="scale(0.015625)"/>
      <path id="Outfit-Bold-35" d="M 1626 -70 
Q 1158 -70 752 93 
Q 346 256 77 563 
L 730 1210 
Q 851 1030 1084 918 
Q 1318 806 1594 806 
Q 1837 806 2016 892 
Q 2195 979 2297 1142 
Q 2400 1306 2400 1523 
Q 2400 1747 2297 1907 
Q 2195 2067 2012 2153 
Q 1830 2240 1600 2240 
Q 1370 2240 1178 2179 
Q 986 2118 826 1997 
L 909 2637 
Q 1056 2752 1190 2825 
Q 1325 2899 1485 2937 
Q 1645 2976 1862 2976 
Q 2362 2976 2704 2771 
Q 3046 2566 3222 2227 
Q 3398 1888 3398 1478 
Q 3398 1030 3177 678 
Q 2957 326 2560 128 
Q 2163 -70 1626 -70 
z
M 826 1997 
L 390 2400 
L 608 4518 
L 1517 4518 
L 1280 2419 
L 826 1997 
z
M 742 3667 
L 608 4518 
L 3149 4518 
L 3149 3667 
L 742 3667 
z
" transform="scale(0.015625)"/>
     </defs>
     <use xlink:href="#Outfit-Bold-31"/>
     <use xlink:href="#Outfit-Bold-35" transform="translate(37.799988 0)"/>
     <use xlink:href="#Outfit-Bold-2e" transform="translate(93.799973 0)"/>
     <use xlink:href="#Outfit-Bold-37" transform="translate(123.799957 0)"/>
     <use xlink:href="#Outfit-Bold-25" transform="translate(176.499954 0)"/>
    </g>
   </g>
   <g id="text_33">
    <!-- 16.5% -->
    <g style="fill: #262626" transform="translate(409.913797 290.868174) scale(0.1 -0.1)">
     <use xlink:href="#Outfit-Bold-31"/>
     <use xlink:href="#Outfit-Bold-36" transform="translate(37.799988 0)"/>
     <use xlink:href="#Outfit-Bold-2e" transform="translate(95.099976 0)"/>
     <use xlink:href="#Outfit-Bold-35" transform="translate(125.09996 0)"/>
     <use xlink:href="#Outfit-Bold-25" transform="translate(181.099945 0)"/>
    </g>
   </g>
   <g id="text_34">
    <!-- 16.7% -->
    <g style="fill: #262626" transform="translate(413.093029 323.740806) scale(0.1 -0.1)">
     <use xlink:href="#Outfit-Bold-31"/>
     <use xlink:href="#Outfit-Bold-36" transform="translate(37.799988 0)"/>
     <use xlink:href="#Outfit-Bold-2e" transform="translate(95.099976 0)"/>
     <use xlink:href="#Outfit-Bold-37" transform="translate(125.09996 0)"/>
     <use xlink:href="#Outfit-Bold-25" transform="translate(177.799957 0)"/>
    </g>
   </g>
   <g id="text_35">
    <!-- 19.6% -->
    <g style="fill: #262626" transform="translate(460.100245 356.613437) scale(0.1 -0.1)">
     <use xlink:href="#Outfit-Bold-31"/>
     <use xlink:href="#Outfit-Bold-39" transform="translate(37.799988 0)"/>
     <use xlink:href="#Outfit-Bold-2e" transform="translate(95.099976 0)"/>
     <use xlink:href="#Outfit-Bold-36" transform="translate(125.09996 0)"/>
     <use xlink:href="#Outfit-Bold-25" transform="translate(182.399948 0)"/>
    </g>
   </g>
   <g id="text_36">
    <!-- 19.6% -->
    <g style="fill: #262626" transform="translate(461.251906 389.486069) scale(0.1 -0.1)">
     <use xlink:href="#Outfit-Bold-31"/>
     <use xlink:href="#Outfit-Bold-39" transform="translate(37.799988 0)"/>
     <use xlink:href="#Outfit-Bold-2e" transform="translate(95.099976 0)"/>
     <use xlink:href="#Outfit-Bold-36" transform="translate(125.09996 0)"/>
     <use xlink:href="#Outfit-Bold-25" transform="translate(182.399948 0)"/>
    </g>
   </g>
   <g id="text_37">
    <!-- 19.9% -->
    <g style="fill: #262626" transform="translate(465.015078 422.358701) scale(0.1 -0.1)">
     <use xlink:href="#Outfit-Bold-31"/>
     <use xlink:href="#Outfit-Bold-39" transform="translate(37.799988 0)"/>
     <use xlink:href="#Outfit-Bold-2e" transform="translate(95.099976 0)"/>
     <use xlink:href="#Outfit-Bold-39" transform="translate(125.09996 0)"/>
     <use xlink:href="#Outfit-Bold-25" transform="translate(182.399948 0)"/>
    </g>
   </g>
   <g id="text_38">
    <!-- 20.0% -->
    <g style="fill: #262626" transform="translate(467.156194 455.231332) scale(0.1 -0.1)">
     <defs>
      <path id="Outfit-Bold-30" d="M 2138 -70 
Q 1594 -70 1152 224 
Q 710 518 457 1046 
Q 205 1574 205 2266 
Q 205 2963 454 3484 
Q 704 4006 1139 4297 
Q 1574 4589 2125 4589 
Q 2682 4589 3117 4297 
Q 3552 4006 3805 3481 
Q 4058 2957 4058 2259 
Q 4058 1562 3805 1037 
Q 3552 512 3120 221 
Q 2688 -70 2138 -70 
z
M 2131 819 
Q 2413 819 2617 982 
Q 2822 1146 2934 1469 
Q 3046 1792 3046 2259 
Q 3046 2733 2934 3053 
Q 2822 3373 2617 3536 
Q 2413 3699 2125 3699 
Q 1850 3699 1642 3539 
Q 1434 3379 1325 3059 
Q 1216 2739 1216 2266 
Q 1216 1792 1325 1472 
Q 1434 1152 1642 985 
Q 1850 819 2131 819 
z
" transform="scale(0.015625)"/>
     </defs>
     <use xlink:href="#Outfit-Bold-32"/>
     <use xlink:href="#Outfit-Bold-30" transform="translate(56.399994 0)"/>
     <use xlink:href="#Outfit-Bold-2e" transform="translate(122.999985 0)"/>
     <use xlink:href="#Outfit-Bold-30" transform="translate(152.999969 0)"/>
     <use xlink:href="#Outfit-Bold-25" transform="translate(219.59996 0)"/>
    </g>
   </g>
   <g id="text_39">
    <!-- 23.3% -->
    <g style="fill: #262626" transform="translate(520.602977 488.103964) scale(0.1 -0.1)">
     <defs>
      <path id="Outfit-Bold-33" d="M 1619 -70 
Q 1152 -70 761 93 
Q 371 256 102 563 
L 749 1210 
Q 870 1030 1104 918 
Q 1338 806 1600 806 
Q 1837 806 2009 889 
Q 2182 973 2281 1126 
Q 2381 1280 2381 1491 
Q 2381 1702 2281 1852 
Q 2182 2003 1993 2086 
Q 1805 2170 1542 2170 
Q 1421 2170 1289 2154 
Q 1158 2138 1069 2106 
L 1510 2662 
Q 1690 2714 1853 2749 
Q 2016 2784 2157 2784 
Q 2502 2784 2777 2621 
Q 3053 2458 3216 2160 
Q 3379 1862 3379 1453 
Q 3379 1005 3158 659 
Q 2938 314 2544 122 
Q 2150 -70 1619 -70 
z
M 1069 2106 
L 1069 2662 
L 2170 3955 
L 3296 3962 
L 2150 2656 
L 1069 2106 
z
M 384 3667 
L 384 4518 
L 3296 4518 
L 3296 3962 
L 2509 3667 
L 384 3667 
z
" transform="scale(0.015625)"/>
     </defs>
     <use xlink:href="#Outfit-Bold-32"/>
     <use xlink:href="#Outfit-Bold-33" transform="translate(56.399994 0)"/>
     <use xlink:href="#Outfit-Bold-2e" transform="translate(112.299988 0)"/>
     <use xlink:href="#Outfit-Bold-33" transform="translate(142.299973 0)"/>
     <use xlink:href="#Outfit-Bold-25" transform="translate(198.199966 0)"/>
    </g>
   </g>
   <g id="text_40">
    <!-- 24.3% -->
    <g style="fill: #262626" transform="translate(536.969533 520.976595) scale(0.1 -0.1)">
     <use xlink:href="#Outfit-Bold-32"/>
     <use xlink:href="#Outfit-Bold-34" transform="translate(56.399994 0)"/>
     <use xlink:href="#Outfit-Bold-2e" transform="translate(117.299988 0)"/>
     <use xlink:href="#Outfit-Bold-33" transform="translate(147.299973 0)"/>
     <use xlink:href="#Outfit-Bold-25" transform="translate(203.199966 0)"/>
    </g>
   </g>
   <g id="text_41">
    <!-- 26.2% -->
    <g style="fill: #262626" transform="translate(566.97759 553.849227) scale(0.1 -0.1)">
     <use xlink:href="#Outfit-Bold-32"/>
     <use xlink:href="#Outfit-Bold-36" transform="translate(56.399994 0)"/>
     <use xlink:href="#Outfit-Bold-2e" transform="translate(113.699982 0)"/>
     <use xlink:href="#Outfit-Bold-32" transform="translate(143.699966 0)"/>
     <use xlink:href="#Outfit-Bold-25" transform="translate(200.09996 0)"/>
    </g>
   </g>
   <g id="text_42">
    <!-- 27.7% -->
    <g style="fill: #262626" transform="translate(592.103255 586.721859) scale(0.1 -0.1)">
     <use xlink:href="#Outfit-Bold-32"/>
     <use xlink:href="#Outfit-Bold-37" transform="translate(56.399994 0)"/>
     <use xlink:href="#Outfit-Bold-2e" transform="translate(109.099991 0)"/>
     <use xlink:href="#Outfit-Bold-37" transform="translate(139.099976 0)"/>
     <use xlink:href="#Outfit-Bold-25" transform="translate(191.799973 0)"/>
    </g>
   </g>
   <g id="text_43">
    <!-- 28.9% -->
    <g style="fill: #262626" transform="translate(611.113765 619.59449) scale(0.1 -0.1)">
     <defs>
      <path id="Outfit-Bold-38" d="M 1798 -70 
Q 1312 -70 950 102 
Q 589 275 387 576 
Q 186 877 186 1261 
Q 186 1581 310 1837 
Q 435 2093 662 2265 
Q 890 2438 1190 2502 
L 1171 2298 
Q 915 2355 736 2512 
Q 557 2669 461 2893 
Q 365 3117 365 3360 
Q 365 3718 547 3996 
Q 730 4275 1056 4435 
Q 1382 4595 1798 4595 
Q 2221 4595 2544 4435 
Q 2867 4275 3049 3996 
Q 3232 3718 3232 3360 
Q 3232 3117 3139 2893 
Q 3046 2669 2867 2512 
Q 2688 2355 2432 2298 
L 2406 2502 
Q 2714 2438 2941 2265 
Q 3168 2093 3289 1837 
Q 3411 1581 3411 1261 
Q 3411 877 3212 576 
Q 3014 275 2652 102 
Q 2291 -70 1798 -70 
z
M 1798 787 
Q 1990 787 2137 867 
Q 2285 947 2371 1088 
Q 2458 1229 2458 1402 
Q 2458 1581 2371 1718 
Q 2285 1856 2137 1936 
Q 1990 2016 1798 2016 
Q 1606 2016 1459 1936 
Q 1312 1856 1229 1718 
Q 1146 1581 1146 1402 
Q 1146 1229 1229 1088 
Q 1312 947 1459 867 
Q 1606 787 1798 787 
z
M 1798 2746 
Q 2022 2746 2166 2890 
Q 2310 3034 2310 3251 
Q 2310 3475 2166 3619 
Q 2022 3763 1798 3763 
Q 1581 3763 1433 3622 
Q 1286 3482 1286 3258 
Q 1286 3040 1433 2893 
Q 1581 2746 1798 2746 
z
" transform="scale(0.015625)"/>
     </defs>
     <use xlink:href="#Outfit-Bold-32"/>
     <use xlink:href="#Outfit-Bold-38" transform="translate(56.399994 0)"/>
     <use xlink:href="#Outfit-Bold-2e" transform="translate(112.599991 0)"/>
     <use xlink:href="#Outfit-Bold-39" transform="translate(142.599976 0)"/>
     <use xlink:href="#Outfit-Bold-25" transform="translate(199.899963 0)"/>
    </g>
   </g>
   <g id="text_44">
    <!-- 50.0% -->
    <g style="fill: #262626" transform="translate(953.773337 652.467122) scale(0.1 -0.1)">
     <use xlink:href="#Outfit-Bold-35"/>
     <use xlink:href="#Outfit-Bold-30" transform="translate(55.999985 0)"/>
     <use xlink:href="#Outfit-Bold-2e" transform="translate(122.599976 0)"/>
     <use xlink:href="#Outfit-Bold-30" transform="translate(152.59996 0)"/>
     <use xlink:href="#Outfit-Bold-25" transform="translate(219.199951 0)"/>
    </g>
   </g>
   <g id="text_45">
    <!-- Women in Parliament (%)  Arab Countries (2024) -->
    <g style="fill: #262626" transform="translate(337.117031 21.71875) scale(0.2 -0.2)">
     <defs>
      <path id="Outfit-Bold-2013" d="M 346 1235 
L 346 2029 
L 3290 2029 
L 3290 1235 
L 346 1235 
z
" transform="scale(0.015625)"/>
      <path id="Outfit-Bold-41" d="M 96 0 
L 1888 4518 
L 2797 4518 
L 4570 0 
L 3507 0 
L 2150 3750 
L 2515 3750 
L 1139 0 
L 96 0 
z
M 1114 819 
L 1114 1638 
L 3578 1638 
L 3578 819 
L 1114 819 
z
" transform="scale(0.015625)"/>
      <path id="Outfit-Bold-62" d="M 2138 -64 
Q 1824 -64 1561 67 
Q 1299 198 1132 419 
Q 966 640 941 915 
L 941 2227 
Q 966 2502 1132 2716 
Q 1299 2931 1561 3052 
Q 1824 3174 2138 3174 
Q 2579 3174 2921 2963 
Q 3264 2752 3459 2387 
Q 3654 2022 3654 1555 
Q 3654 1088 3459 723 
Q 3264 358 2921 147 
Q 2579 -64 2138 -64 
z
M 346 0 
L 346 4646 
L 1325 4646 
L 1325 2349 
L 1165 1594 
L 1312 838 
L 1312 0 
L 346 0 
z
M 1965 819 
Q 2170 819 2326 915 
Q 2483 1011 2572 1177 
Q 2662 1344 2662 1555 
Q 2662 1773 2572 1939 
Q 2483 2106 2326 2198 
Q 2170 2291 1965 2291 
Q 1760 2291 1600 2198 
Q 1440 2106 1353 1939 
Q 1267 1773 1267 1555 
Q 1267 1338 1356 1171 
Q 1446 1005 1603 912 
Q 1760 819 1965 819 
z
" transform="scale(0.015625)"/>
      <path id="Outfit-Bold-73" d="M 1478 -77 
Q 1203 -77 937 -6 
Q 672 64 445 195 
Q 218 326 58 499 
L 614 1062 
Q 768 896 979 803 
Q 1190 710 1440 710 
Q 1613 710 1705 761 
Q 1798 813 1798 902 
Q 1798 1018 1686 1078 
Q 1574 1139 1401 1187 
Q 1229 1235 1037 1292 
Q 845 1350 672 1452 
Q 499 1555 390 1737 
Q 282 1920 282 2202 
Q 282 2502 435 2723 
Q 589 2944 870 3072 
Q 1152 3200 1530 3200 
Q 1926 3200 2262 3062 
Q 2598 2925 2810 2656 
L 2253 2093 
Q 2106 2266 1923 2336 
Q 1741 2406 1568 2406 
Q 1402 2406 1318 2358 
Q 1235 2310 1235 2221 
Q 1235 2125 1344 2067 
Q 1453 2010 1625 1965 
Q 1798 1920 1990 1856 
Q 2182 1792 2355 1683 
Q 2528 1574 2637 1392 
Q 2746 1210 2746 915 
Q 2746 461 2403 192 
Q 2061 -77 1478 -77 
z
" transform="scale(0.015625)"/>
     </defs>
     <use xlink:href="#Outfit-Bold-57"/>
     <use xlink:href="#Outfit-Bold-6f" transform="translate(100.199982 0)"/>
     <use xlink:href="#Outfit-Bold-6d" transform="translate(157.799973 0)"/>
     <use xlink:href="#Outfit-Bold-65" transform="translate(245.09996 0)"/>
     <use xlink:href="#Outfit-Bold-6e" transform="translate(299.899948 0)"/>
     <use xlink:href="#Outfit-Bold-20" transform="translate(357.099945 0)"/>
     <use xlink:href="#Outfit-Bold-69" transform="translate(376.09993 0)"/>
     <use xlink:href="#Outfit-Bold-6e" transform="translate(402.199921 0)"/>
     <use xlink:href="#Outfit-Bold-20" transform="translate(459.399918 0)"/>
     <use xlink:href="#Outfit-Bold-50" transform="translate(478.399902 0)"/>
     <use xlink:href="#Outfit-Bold-61" transform="translate(541.19989 0)"/>
     <use xlink:href="#Outfit-Bold-72" transform="translate(600.699875 0)"/>
     <use xlink:href="#Outfit-Bold-6c" transform="translate(645.099869 0)"/>
     <use xlink:href="#Outfit-Bold-69" transform="translate(671.19986 0)"/>
     <use xlink:href="#Outfit-Bold-61" transform="translate(697.29985 0)"/>
     <use xlink:href="#Outfit-Bold-6d" transform="translate(756.799835 0)"/>
     <use xlink:href="#Outfit-Bold-65" transform="translate(844.099823 0)"/>
     <use xlink:href="#Outfit-Bold-6e" transform="translate(898.899811 0)"/>
     <use xlink:href="#Outfit-Bold-74" transform="translate(956.099808 0)"/>
     <use xlink:href="#Outfit-Bold-20" transform="translate(995.999802 0)"/>
     <use xlink:href="#Outfit-Bold-28" transform="translate(1014.999786 0)"/>
     <use xlink:href="#Outfit-Bold-25" transform="translate(1045.999771 0)"/>
     <use xlink:href="#Outfit-Bold-29" transform="translate(1114.499756 0)"/>
     <use xlink:href="#Outfit-Bold-20" transform="translate(1145.499741 0)"/>
     <use xlink:href="#Outfit-Bold-2013" transform="translate(1164.499725 0)"/>
     <use xlink:href="#Outfit-Bold-20" transform="translate(1221.299713 0)"/>
     <use xlink:href="#Outfit-Bold-41" transform="translate(1240.299698 0)"/>
     <use xlink:href="#Outfit-Bold-72" transform="translate(1313.199692 0)"/>
     <use xlink:href="#Outfit-Bold-61" transform="translate(1357.599686 0)"/>
     <use xlink:href="#Outfit-Bold-62" transform="translate(1417.09967 0)"/>
     <use xlink:href="#Outfit-Bold-20" transform="translate(1476.599655 0)"/>
     <use xlink:href="#Outfit-Bold-43" transform="translate(1495.59964 0)"/>
     <use xlink:href="#Outfit-Bold-6f" transform="translate(1564.499634 0)"/>
     <use xlink:href="#Outfit-Bold-75" transform="translate(1622.099625 0)"/>
     <use xlink:href="#Outfit-Bold-6e" transform="translate(1675.999619 0)"/>
     <use xlink:href="#Outfit-Bold-74" transform="translate(1733.199615 0)"/>
     <use xlink:href="#Outfit-Bold-72" transform="translate(1773.099609 0)"/>
     <use xlink:href="#Outfit-Bold-69" transform="translate(1817.499603 0)"/>
     <use xlink:href="#Outfit-Bold-65" transform="translate(1843.599594 0)"/>
     <use xlink:href="#Outfit-Bold-73" transform="translate(1898.399582 0)"/>
     <use xlink:href="#Outfit-Bold-20" transform="translate(1944.19957 0)"/>
     <use xlink:href="#Outfit-Bold-28" transform="translate(1963.199554 0)"/>
     <use xlink:href="#Outfit-Bold-32" transform="translate(1994.199539 0)"/>
     <use xlink:href="#Outfit-Bold-30" transform="translate(2050.599533 0)"/>
     <use xlink:href="#Outfit-Bold-32" transform="translate(2117.199524 0)"/>
     <use xlink:href="#Outfit-Bold-34" transform="translate(2173.599518 0)"/>
     <use xlink:href="#Outfit-Bold-29" transform="translate(2234.499512 0)"/>
    </g>
   </g>
  </g>
 </g>
 <defs>
  <clipPath id="p3726d72313">
   <rect x="137.878594" y="41.71875" width="851.58" height="624.58"/>
  </clipPath>
 </defs>
</svg>
