<svg xmlns="http://www.w3.org/2000/svg" x="0px" y="0px"
width="24" height="24"
viewBox="0 0 226 226"
style=" fill:#000000;"><g fill="none" fill-rule="nonzero" stroke="none" stroke-width="1" stroke-linecap="butt" stroke-linejoin="miter" stroke-miterlimit="10" stroke-dasharray="" stroke-dashoffset="0" font-family="none" font-weight="none" font-size="none" text-anchor="none" style="mix-blend-mode: normal"><path d="M0,226v-226h226v226z" fill="none"></path><g fill="#ffffff"><path d="M171.91891,63.22703c-1.83625,-0.03531 -3.51359,1.05938 -4.25516,2.73672c-0.72391,1.695 -0.35313,3.65484 0.93578,4.96141l36.05406,37.55484h-195.50766c-1.62437,-0.01766 -3.14281,0.82984 -3.955,2.24234c-0.82984,1.4125 -0.82984,3.14281 0,4.55531c0.81219,1.4125 2.33062,2.26 3.955,2.24234h195.50766l-36.05406,37.55484c-1.73031,1.80094 -1.65969,4.66125 0.14125,6.39156c1.80094,1.73031 4.66125,1.67734 6.39156,-0.14125l46.40062,-48.32516l-46.40062,-48.32516c-0.82984,-0.90047 -1.99516,-1.4125 -3.21344,-1.44781z"></path></g></g></svg>