<svg width="130" height="70" viewBox="0 0 130 70" fill="none" xmlns="http://www.w3.org/2000/svg">
<mask id="mask0_5_2" style="mask-type:luminance" maskUnits="userSpaceOnUse" x="69" y="16" width="55" height="38">
<path d="M123.232 16.9372H69.6805V53.863H123.232V16.9372Z" fill="white"/>
</mask>
<g mask="url(#mask0_5_2)">
<path d="M99.7817 49.1358H93.0246C94.143 51.1293 95.2076 52.7087 96.4299 53.8631C97.7599 52.4466 98.8891 50.8568 99.7817 49.1358Z" fill="black"/>
<path d="M111.166 49.1358H100.422C100.103 50.8178 100.103 52.3936 100.103 53.548C103.236 53.3391 107.391 51.919 111.166 49.1358Z" fill="black"/>
<path d="M115.999 45.2512H76.8112C77.4028 45.9595 78.0802 46.5969 78.8295 47.1423H113.82C114.673 46.6713 115.415 46.0267 115.999 45.2512Z" fill="black"/>
<path d="M123.18 27.2842C118.287 27.5993 111.268 30.8571 106.698 36.1616C105.877 37.0503 105.145 38.0205 104.515 39.051H120.255C122.381 34.8478 123.496 30.6977 123.18 27.2842Z" fill="black"/>
<path d="M103.235 39.051C103.342 37.8434 103.446 36.682 103.446 35.3223C103.446 27.9711 100.098 20.3544 96.4276 16.9373C92.7066 20.3508 89.4087 27.9675 89.4087 35.3223C89.4087 36.6856 89.4087 37.8434 89.6201 39.051H103.235Z" fill="black"/>
<path d="M92.6568 53.548C92.7285 52.0748 92.6712 50.5983 92.4919 49.1358H81.6447C85.4767 51.919 89.6206 53.3355 92.6532 53.548H92.6568Z" fill="black"/>
<path d="M88.4016 39.051C87.8172 38.0525 87.0179 37.107 86.2221 36.1616C81.648 30.8606 74.5754 27.5993 69.7359 27.2842C69.417 30.6977 70.4852 34.8478 72.6038 39.051H88.4016Z" fill="black"/>
<path d="M119.195 41.0481H73.6726C73.9916 41.7316 74.7373 42.6735 75.0562 43.0949H117.754C118.327 42.4822 118.811 41.7954 119.191 41.0481H119.195Z" fill="black"/>
</g>
<path d="M8.40577 53.927L5.57369 48.9266L16.902 41.8749L23.7247 53.927H8.40577Z" fill="black"/>
<path d="M29.1314 53.927L18.7042 36.1053L30.0325 29.3098L44.3215 53.927H29.1314Z" fill="black"/>
<path d="M49.7283 53.927L31.8347 23.6684L43.2917 16.873L64.9184 53.927H49.7283Z" fill="black"/>
</svg>
